SplineFontDB: 3.2
FontName: Inconsolata-UltraCondensed
FullName: Inconsolata Ultra Condensed
FamilyName: Inconsolata Ultra Condensed
Weight: Book
Copyright: Copyright 2006 The Inconsolata Project Authors (https://github.com/cyrealtype/Inconsolata)
Version: 3.000; ttfautohint (v1.8.3)
ItalicAngle: -9
UnderlinePosition: -297
UnderlineWidth: 102
Ascent: 1802
Descent: 246
InvalidEm: 0
sfntRevision: 0x00030000
LayerCount: 2
Layer: 0 1 "Back" 1
Layer: 1 1 "Fore" 0
XUID: [1021 282 -1687062340 12206]
StyleMap: 0x0040
FSType: 0
OS2Version: 4
OS2_WeightWidthSlopeOnly: 0
OS2_UseTypoMetrics: 1
CreationTime: 1576097233
ModificationTime: 1732402468
PfmFamily: 81
TTFWeight: 400
TTFWidth: 1
LineGap: 0
VLineGap: 0
Panose: 0 0 0 0 0 0 0 0 0 0
OS2TypoAscent: 1759
OS2TypoAOffset: 0
OS2TypoDescent: -389
OS2TypoDOffset: 0
OS2TypoLinegap: 0
OS2WinAscent: 2056
OS2WinAOffset: 0
OS2WinDescent: 930
OS2WinDOffset: 0
HheadAscent: 1759
HheadAOffset: 0
HheadDescent: -389
HheadDOffset: 0
OS2SubXSize: 1331
OS2SubYSize: 1229
OS2SubXOff: 0
OS2SubYOff: 154
OS2SupXSize: 1331
OS2SupYSize: 1229
OS2SupXOff: 0
OS2SupYOff: 717
OS2StrikeYSize: 102
OS2StrikeYPos: 561
OS2CapHeight: 1276
OS2XHeight: 936
OS2Vendor: 'CYRE'
OS2CodePages: 60000193.cdd40000
OS2UnicodeRanges: a00000ff.0000f9eb.00000020.00000000
Lookup: 1 0 0 "'aalt' Access All Alternates in Latin lookup 0" { "'aalt' Access All Alternates in Latin lookup 0 subtable"  } ['aalt' ('DFLT' <'dflt' > 'latn' <'AZE ' 'CAT ' 'CRT ' 'KAZ ' 'MOL ' 'ROM ' 'TAT ' 'TRK ' 'dflt' > ) ]
Lookup: 3 0 0 "'aalt' Access All Alternates in Latin lookup 1" { "'aalt' Access All Alternates in Latin lookup 1 subtable"  } ['aalt' ('DFLT' <'dflt' > 'latn' <'AZE ' 'CAT ' 'CRT ' 'KAZ ' 'MOL ' 'ROM ' 'TAT ' 'TRK ' 'dflt' > ) ]

StartChar: A
Encoding: 65 65 1
Width: 512
VWidth: 2441
GlyphClass: 2
Flags: HW
AnchorPoint: "Anchor-3" 321 0 basechar 0
AnchorPoint: "Anchor-2" 161 0 basechar 0
AnchorPoint: "Anchor-0" 401.902 1521 basechar 0
LayerCount: 2
Fore
SplineSet
331.421875 1076 m 1,0,-1
 189.229492188 576 l 1,1,-1
 313.229492188 576 l 1,2,-1
 331.421875 1076 l 1,0,-1
294 0 m 1,3,-1
 309.481445312 445 l 1,4,-1
 151.481445312 445 l 1,5,-1
 26 0 l 1,6,-1
 -79 0 l 1,7,-1
 381.020507812 1547 l 1,8,-1
 431.020507812 1547 l 1,9,-1
 401 0 l 1,10,-1
 294 0 l 1,3,-1
EndSplineSet
Substitution2: "Single Substitution lookup 29 subtable" ordfeminine
Substitution2: "'aalt' Access All Alternates in Latin lookup 0 subtable" ordfeminine
EndChar

StartChar: AE
Encoding: 198 198 26
Width: 512
VWidth: 2441
GlyphClass: 1
Flags: HW
LayerCount: 2
Fore
SplineSet
168.63671875 547 m 1,0,-1
 237.63671875 547 l 1,1,-1
 403.095703125 1377 l 1,2,-1
 395.095703125 1377 l 1,3,-1
 168.63671875 547 l 1,0,-1
-91 0 m 1,4,-1
 346.219726562 1523 l 1,5,-1
 630.219726562 1523 l 1,6,-1
 608.520507812 1386 l 1,7,-1
 482.520507812 1386 l 1,8,-1
 399.84375 864 l 1,9,-1
 499.84375 864 l 1,10,-1
 477.353515625 722 l 1,11,-1
 377.353515625 722 l 1,12,-1
 284.698242188 137 l 1,13,-1
 408.698242188 137 l 1,14,-1
 387 0 l 1,15,-1
 151 0 l 1,16,-1
 217.521484375 420 l 1,17,-1
 133.521484375 420 l 1,18,-1
 13 0 l 1,19,-1
 -91 0 l 1,4,-1
EndSplineSet
EndChar

StartChar: B
Encoding: 66 66 28
Width: 512
VWidth: 2441
GlyphClass: 2
Flags: HW
AnchorPoint: "Anchor-2" 199 0 basechar 0
AnchorPoint: "Anchor-0" 439.902 1521 basechar 0
LayerCount: 2
Fore
SplineSet
103.698242188 137 m 1,0,-1
 204.698242188 137 l 2,1,2
 271.698242188 137 271.698242188 137 319.365234375 207.5 c 128,-1,3
 367.03125 278 367.03125 278 392.213867188 437 c 0,4,5
 413.913085938 574 413.913085938 574 386.008789062 663 c 128,-1,6
 358.10546875 752 358.10546875 752 282.10546875 752 c 2,7,-1
 201.10546875 752 l 1,8,-1
 103.698242188 137 l 1,0,-1
222.329101562 886 m 1,9,-1
 299.329101562 886 l 2,10,11
 386.329101562 886 386.329101562 886 423.07421875 957 c 128,-1,12
 459.819335938 1028 459.819335938 1028 476.291015625 1132 c 0,13,14
 492.129882812 1232 492.129882812 1232 476.325195312 1309 c 128,-1,15
 460.520507812 1386 460.520507812 1386 389.520507812 1386 c 2,16,-1
 301.520507812 1386 l 1,17,-1
 222.329101562 886 l 1,9,-1
-38 0 m 1,18,-1
 202.90234375 1521 l 1,19,-1
 410.90234375 1521 l 2,20,21
 473.90234375 1521 473.90234375 1521 524.254882812 1488.5 c 128,-1,22
 574.607421875 1456 574.607421875 1456 595.436523438 1376 c 128,-1,23
 616.266601562 1296 616.266601562 1296 593.6171875 1153 c 0,24,25
 567.80078125 990 567.80078125 990 532.213867188 920 c 128,-1,26
 496.626953125 850 496.626953125 850 430.083007812 815 c 1,27,28
 480.540039062 780 480.540039062 780 508.072265625 685.5 c 128,-1,29
 535.60546875 591 535.60546875 591 509.629882812 427 c 0,30,31
 475.260742188 210 475.260742188 210 393.129882812 105 c 128,-1,32
 311 0 311 0 168 0 c 2,33,-1
 -38 0 l 1,18,-1
EndSplineSet
EndChar

StartChar: C
Encoding: 67 67 29
Width: 512
VWidth: 2441
GlyphClass: 2
Flags: HW
AnchorPoint: "Anchor-2" 223 0 basechar 0
AnchorPoint: "Anchor-0" 452.902 1521 basechar 0
LayerCount: 2
Fore
SplineSet
223.19921875 -24 m 0,0,1
 148.19921875 -24 148.19921875 -24 97.5234375 47.5 c 128,-1,2
 46.84765625 119 46.84765625 119 37.2734375 289 c 128,-1,3
 27.6982421875 459 27.6982421875 459 72.10546875 752 c 0,4,5
 110.434570312 994 110.434570312 994 159.325195312 1148 c 128,-1,6
 208.216796875 1302 208.216796875 1302 262.520507812 1386 c 128,-1,7
 316.825195312 1470 316.825195312 1470 370.814453125 1501.5 c 128,-1,8
 424.803710938 1533 424.803710938 1533 471.803710938 1533 c 0,9,10
 548.803710938 1533 548.803710938 1533 592.43359375 1477 c 128,-1,11
 636.064453125 1421 636.064453125 1421 639.216796875 1302 c 1,12,-1
 556.595703125 1216 l 1,13,-1
 537.5859375 1197 l 1,14,-1
 528.486328125 1209 l 1,15,16
 529.49609375 1228 529.49609375 1228 536.376953125 1252.5 c 128,-1,17
 543.256835938 1277 543.256835938 1277 536.1171875 1314 c 0,18,19
 521.877929688 1363 521.877929688 1363 499.095703125 1377 c 128,-1,20
 476.3125 1391 476.3125 1391 447.3125 1391 c 0,21,22
 378.3125 1391 378.3125 1391 309.688476562 1245 c 128,-1,23
 241.064453125 1099 241.064453125 1099 188.005859375 764 c 0,24,25
 136.689453125 440 136.689453125 440 160.110351562 278.5 c 128,-1,26
 183.53125 117 183.53125 117 249.53125 117 c 0,27,28
 292.53125 117 292.53125 117 327.549804688 155 c 128,-1,29
 362.568359375 193 362.568359375 193 397.129882812 266 c 1,30,-1
 449.18359375 159 l 1,31,32
 398.13671875 64 398.13671875 64 345.16796875 20 c 128,-1,33
 292.19921875 -24 292.19921875 -24 223.19921875 -24 c 0,0,1
EndSplineSet
EndChar

StartChar: D
Encoding: 68 68 36
Width: 512
VWidth: 2441
GlyphClass: 2
Flags: HW
AnchorPoint: "Anchor-4" 316.688 762 basechar 0
AnchorPoint: "Anchor-2" 196 0 basechar 0
AnchorPoint: "Anchor-0" 401.902 1521 basechar 0
LayerCount: 2
Fore
SplineSet
113.381835938 135 m 1,0,-1
 140.381835938 135 l 2,1,2
 246.381835938 135 246.381835938 135 323.936523438 299.5 c 128,-1,3
 401.490234375 464 401.490234375 464 445.6796875 743 c 0,4,5
 475.456054688 931 475.456054688 931 480.68359375 1074.5 c 128,-1,6
 485.912109375 1218 485.912109375 1218 456.05859375 1301 c 128,-1,7
 426.204101562 1384 426.204101562 1384 353.204101562 1384 c 2,8,-1
 311.204101562 1384 l 1,9,-1
 113.381835938 135 l 1,0,-1
-36.31640625 -2 m 1,10,-1
 204.90234375 1521 l 1,11,-1
 378.90234375 1521 l 2,12,13
 471.90234375 1521 471.90234375 1521 520.879882812 1473.5 c 128,-1,14
 569.856445312 1426 569.856445312 1426 589.017578125 1326 c 128,-1,15
 608.1796875 1226 608.1796875 1226 601.876953125 1091.5 c 128,-1,16
 595.57421875 957 595.57421875 957 563.10546875 752 c 0,17,18
 506.245117188 393 506.245117188 393 399.463867188 195.5 c 128,-1,19
 292.68359375 -2 292.68359375 -2 123.68359375 -2 c 2,20,-1
 -36.31640625 -2 l 1,10,-1
EndSplineSet
EndChar

StartChar: Eth
Encoding: 208 208 37
Width: 512
VWidth: 2441
GlyphClass: 1
Flags: HW
LayerCount: 2
Fore
SplineSet
114.381835938 135 m 1,0,-1
 145.381835938 135 l 2,1,2
 245.381835938 135 245.381835938 135 314.540039062 297 c 128,-1,3
 383.698242188 459 383.698242188 459 429.313476562 747 c 0,4,5
 475.719726562 1040 475.719726562 1040 459.303710938 1211 c 128,-1,6
 442.887695312 1382 442.887695312 1382 352.887695312 1382 c 2,7,-1
 311.887695312 1382 l 1,8,-1
 231.745117188 876 l 1,9,-1
 308.745117188 876 l 1,10,-1
 286.25390625 734 l 1,11,-1
 209.25390625 734 l 1,12,-1
 114.381835938 135 l 1,0,-1
-17.31640625 -2 m 1,13,-1
 99.25390625 734 l 1,14,-1
 54.25390625 734 l 1,15,-1
 76.7451171875 876 l 1,16,-1
 121.745117188 876 l 1,17,-1
 223.90234375 1521 l 1,18,-1
 378.90234375 1521 l 2,19,20
 444.90234375 1521 444.90234375 1521 484.330078125 1479.5 c 128,-1,21
 523.756835938 1438 523.756835938 1438 542.541015625 1373.5 c 128,-1,22
 561.325195312 1309 561.325195312 1309 565.921875 1237 c 0,23,24
 571.735351562 1179 571.735351562 1179 570.100585938 1064.5 c 128,-1,25
 568.46484375 950 568.46484375 950 537.580078125 755 c 0,26,27
 472.642578125 345 472.642578125 345 368.163085938 171.5 c 128,-1,28
 263.68359375 -2 263.68359375 -2 125.68359375 -2 c 2,29,-1
 -17.31640625 -2 l 1,13,-1
EndSplineSet
EndChar

StartChar: E
Encoding: 69 69 42
Width: 512
VWidth: 2441
GlyphClass: 2
Flags: HW
AnchorPoint: "Anchor-3" 459.801 24 basechar 0
AnchorPoint: "Anchor-2" 211 0 basechar 0
AnchorPoint: "Anchor-0" 468.902 1521 basechar 0
LayerCount: 2
Fore
SplineSet
-28 0 m 1,0,-1
 213.219726562 1523 l 1,1,-1
 689.219726562 1523 l 1,2,-1
 667.520507812 1386 l 1,3,-1
 316.520507812 1386 l 1,4,-1
 233.52734375 862 l 1,5,-1
 518.52734375 862 l 1,6,-1
 496.829101562 725 l 1,7,-1
 211.829101562 725 l 1,8,-1
 118.698242188 137 l 1,9,-1
 467.698242188 137 l 1,10,-1
 446 0 l 1,11,-1
 -28 0 l 1,0,-1
EndSplineSet
EndChar

StartChar: uni01B8
Encoding: 440 440 65
Width: 512
VWidth: 2441
GlyphClass: 1
Flags: HW
LayerCount: 2
Fore
SplineSet
228.723632812 -27 m 0,0,1
 109.723632812 -27 109.723632812 -27 61.5966796875 89 c 128,-1,2
 13.46875 205 13.46875 205 47.521484375 420 c 0,3,4
 81.890625 637 81.890625 637 165.372070312 760 c 128,-1,5
 248.853515625 883 248.853515625 883 349.1796875 904 c 1,6,-1
 232.204101562 1384 l 1,7,-1
 253.90234375 1521 l 1,8,-1
 626.90234375 1521 l 1,9,-1
 605.204101562 1384 l 1,10,-1
 351.204101562 1384 l 1,11,-1
 461.813476562 908 l 1,12,-1
 441.698242188 781 l 1,13,14
 425.3515625 782.661132812 425.3515625 782.661132812 410.0078125 782.661132812 c 0,15,16
 360.690429688 782.661132812 360.690429688 782.661132812 321.743164062 765.5 c 0,17,18
 270.6796875 743 270.6796875 743 234.984375 666 c 128,-1,19
 199.288085938 589 199.288085938 589 174.421875 432 c 0,20,21
 146.705078125 257 146.705078125 257 168.221679688 184.5 c 128,-1,22
 189.739257812 112 189.739257812 112 260.739257812 112 c 0,23,24
 316.739257812 112 316.739257812 112 358.5 161 c 1,25,26
 383.04296875 196 383.04296875 196 389.131835938 215.5 c 128,-1,27
 395.220703125 235 395.220703125 235 392.913085938 252 c 1,28,-1
 402.447265625 268 l 1,29,-1
 422.546875 256 l 1,30,-1
 449.84765625 119 l 1,31,32
 397.2265625 33 397.2265625 33 341.975585938 3 c 128,-1,33
 286.723632812 -27 286.723632812 -27 228.723632812 -27 c 0,0,1
EndSplineSet
EndChar

StartChar: F
Encoding: 70 70 66
Width: 512
VWidth: 2441
GlyphClass: 2
Flags: HW
AnchorPoint: "Anchor-2" 211 0 basechar 0
AnchorPoint: "Anchor-0" 451.902 1521 basechar 0
LayerCount: 2
Fore
SplineSet
1 0 m 1,0,-1
 242.219726562 1523 l 1,1,-1
 682.219726562 1523 l 1,2,-1
 660.520507812 1386 l 1,3,-1
 344.520507812 1386 l 1,4,-1
 265.645507812 888 l 1,5,-1
 512.645507812 888 l 1,6,-1
 491.580078125 755 l 1,7,-1
 244.580078125 755 l 1,8,-1
 125 0 l 1,9,-1
 1 0 l 1,0,-1
EndSplineSet
EndChar

StartChar: G
Encoding: 71 71 67
Width: 512
VWidth: 2441
GlyphClass: 2
Flags: HW
AnchorPoint: "Anchor-2" 207 0 basechar 0
AnchorPoint: "Anchor-0" 457.902 1521 basechar 0
LayerCount: 2
Fore
SplineSet
215.19921875 -24 m 0,0,1
 90.19921875 -24 90.19921875 -24 46.474609375 164 c 128,-1,2
 2.7509765625 352 2.7509765625 352 64.6796875 743 c 0,3,4
 67.80078125 763.734375 67.80078125 763.734375 70.982421875 783.823242188 c 0,5,6
 106.776367188 1009.81640625 106.776367188 1009.81640625 150.275390625 1154 c 0,7,8
 197.641601562 1311 197.641601562 1311 251.788085938 1394 c 128,-1,9
 305.93359375 1477 305.93359375 1477 359.264648438 1507.5 c 128,-1,10
 412.595703125 1538 412.595703125 1538 460.595703125 1538 c 0,11,12
 542.595703125 1538 542.595703125 1538 586.379882812 1473.5 c 128,-1,13
 630.1640625 1409 630.1640625 1409 632.1171875 1314 c 1,14,-1
 554.921875 1237 l 1,15,-1
 535.912109375 1218 l 1,16,-1
 526.8125 1230 l 1,17,18
 528.138671875 1251 528.138671875 1251 531.202148438 1273.5 c 128,-1,19
 534.266601562 1296 534.266601562 1296 522.651367188 1330 c 0,20,21
 497.421875 1398 497.421875 1398 435.73828125 1400 c 0,22,23
 392.73828125 1400 392.73828125 1400 348.551757812 1342 c 128,-1,24
 304.365234375 1284 304.365234375 1284 262.404296875 1148.5 c 128,-1,25
 220.443359375 1013 220.443359375 1013 183.22265625 778 c 0,26,27
 133.015625 461 133.015625 461 149.376953125 286.5 c 128,-1,28
 165.739257812 112 165.739257812 112 228.739257812 112 c 0,29,30
 256.739257812 112 256.739257812 112 285.2734375 128 c 128,-1,31
 313.807617188 144 313.807617188 144 340.66796875 181 c 1,32,-1
 405.288085938 589 l 1,33,-1
 295.288085938 589 l 1,34,-1
 316.037109375 720 l 1,35,-1
 541.037109375 720 l 1,36,-1
 446.323242188 122 l 1,37,38
 383.810546875 43 383.810546875 43 326.504882812 9.5 c 128,-1,39
 269.19921875 -24 269.19921875 -24 215.19921875 -24 c 0,0,1
EndSplineSet
EndChar

StartChar: H
Encoding: 72 72 74
Width: 512
VWidth: 2441
GlyphClass: 2
Flags: HW
AnchorPoint: "Anchor-4" 625.688 762 basechar 0
AnchorPoint: "Anchor-2" 505 0 basechar 0
AnchorPoint: "Anchor-0" 745.902 1521 basechar 0
LayerCount: 2
Fore
SplineSet
206.90234375 1521 m 1,0,-1
 340.90234375 1521 l 1,1,-1
 338.209960938 1504 l 1,2,3
 328.993164062 1490 328.993164062 1490 324.299804688 1473 c 128,-1,4
 319.607421875 1456 319.607421875 1456 312.956054688 1414 c 2,5,-1
 226.319335938 867 l 1,6,-1
 446.319335938 867 l 1,7,-1
 549.90234375 1521 l 1,8,-1
 686.90234375 1521 l 1,9,-1
 684.209960938 1504 l 1,10,11
 674.993164062 1490 674.993164062 1490 669.799804688 1473 c 128,-1,12
 664.607421875 1456 664.607421875 1456 657.956054688 1414 c 2,13,-1
 434 0 l 1,14,-1
 309 0 l 1,15,-1
 424.62109375 730 l 1,16,-1
 204.62109375 730 l 1,17,-1
 89 0 l 1,18,-1
 -34 0 l 1,19,-1
 206.90234375 1521 l 1,0,-1
EndSplineSet
EndChar

StartChar: Hbar
Encoding: 294 294 75
Width: 512
VWidth: 2441
GlyphClass: 2
Flags: HW
AnchorPoint: "Anchor-4" 519.688 762 basechar 0
AnchorPoint: "Anchor-2" 399 0 basechar 0
AnchorPoint: "Anchor-0" 639.902 1521 basechar 0
LayerCount: 2
Fore
SplineSet
190.319335938 867 m 1,0,-1
 372.319335938 867 l 1,1,-1
 427.278320312 1214 l 1,2,-1
 245.278320312 1214 l 1,3,-1
 190.319335938 867 l 1,0,-1
99.2783203125 1214 m 1,4,-1
 120.977539062 1351 l 1,5,-1
 164.977539062 1351 l 1,6,-1
 191.90234375 1521 l 1,7,-1
 302.90234375 1521 l 1,8,-1
 300.209960938 1504 l 1,9,10
 291.993164062 1490 291.993164062 1490 287.799804688 1473 c 128,-1,11
 283.607421875 1456 283.607421875 1456 276.956054688 1414 c 2,12,-1
 266.977539062 1351 l 1,13,-1
 448.977539062 1351 l 1,14,-1
 475.90234375 1521 l 1,15,-1
 589.90234375 1521 l 1,16,-1
 587.209960938 1504 l 1,17,18
 578.993164062 1490 578.993164062 1490 574.299804688 1473 c 128,-1,19
 569.607421875 1456 569.607421875 1456 562.956054688 1414 c 2,20,-1
 552.977539062 1351 l 1,21,-1
 600.977539062 1351 l 1,22,-1
 579.278320312 1214 l 1,23,-1
 531.278320312 1214 l 1,24,-1
 339 0 l 1,25,-1
 235 0 l 1,26,-1
 350.62109375 730 l 1,27,-1
 168.62109375 730 l 1,28,-1
 53 0 l 1,29,-1
 -49 0 l 1,30,-1
 143.278320312 1214 l 1,31,-1
 99.2783203125 1214 l 1,4,-1
EndSplineSet
EndChar

StartChar: I
Encoding: 73 73 79
Width: 512
VWidth: 2441
GlyphClass: 2
Flags: HW
AnchorPoint: "Anchor-3" 338 0 basechar 0
AnchorPoint: "Anchor-2" 214 0 basechar 0
AnchorPoint: "Anchor-0" 439.902 1521 basechar 0
LayerCount: 2
Fore
SplineSet
6 0 m 1,0,-1
 27.6982421875 137 l 1,1,-1
 159.698242188 137 l 1,2,-1
 357.204101562 1384 l 1,3,-1
 228.204101562 1384 l 1,4,-1
 249.90234375 1521 l 1,5,-1
 632.90234375 1521 l 1,6,-1
 611.204101562 1384 l 1,7,-1
 481.204101562 1384 l 1,8,-1
 283.381835938 135 l 1,9,-1
 421.381835938 135 l 1,10,-1
 400 0 l 1,11,-1
 6 0 l 1,0,-1
EndSplineSet
EndChar

StartChar: J
Encoding: 74 74 94
Width: 512
VWidth: 2441
GlyphClass: 2
Flags: HW
AnchorPoint: "Anchor-2" 183 0 basechar 0
AnchorPoint: "Anchor-0" 516.902 1521 basechar 0
LayerCount: 2
Fore
SplineSet
115.723632812 -27 m 0,0,1
 5.7236328125 -27 5.7236328125 -27 -34.478515625 98 c 1,2,-1
 39.6552734375 263 l 1,3,-1
 50.6142578125 288 l 1,4,-1
 63.9814453125 284 l 1,5,6
 71.900390625 267.793945312 71.900390625 267.793945312 66.599609375 234.321289062 c 0,7,8
 61.8056640625 204.053710938 61.8056640625 204.053710938 73.92578125 170 c 0,9,10
 99.8916015625 116.981445312 99.8916015625 116.981445312 137.147460938 116.981445312 c 0,11,12
 137.836914062 116.981445312 137.836914062 116.981445312 138.53125 117 c 0,13,14
 177.53125 117 177.53125 117 217.206054688 206.5 c 128,-1,15
 256.881835938 296 256.881835938 296 290.458984375 508 c 2,16,-1
 429.204101562 1384 l 1,17,-1
 299.204101562 1384 l 1,18,-1
 320.90234375 1521 l 1,19,-1
 670.90234375 1521 l 1,20,-1
 649.204101562 1384 l 1,21,-1
 548.204101562 1384 l 1,22,-1
 409.776367188 510 l 2,23,24
 376.990234375 303 376.990234375 303 331.879882812 185.5 c 128,-1,25
 286.770507812 68 286.770507812 68 231.247070312 20.5 c 128,-1,26
 175.723632812 -27 175.723632812 -27 115.723632812 -27 c 0,0,1
EndSplineSet
EndChar

StartChar: K
Encoding: 75 75 96
Width: 512
VWidth: 2441
GlyphClass: 1
Flags: HW
LayerCount: 2
Fore
SplineSet
231.829101562 725 m 1,0,-1
 166.713867188 598 l 1,1,-1
 72 0 l 1,2,-1
 -43 0 l 1,3,-1
 197.90234375 1521 l 1,4,-1
 331.90234375 1521 l 1,5,-1
 329.209960938 1504 l 1,6,7
 313.993164062 1490 313.993164062 1490 308.299804688 1473 c 128,-1,8
 302.607421875 1456 302.607421875 1456 295.956054688 1414 c 2,9,-1
 203.458984375 830 l 1,10,-1
 546.803710938 1533 l 1,11,12
 557.01171875 1528 557.01171875 1528 586.45703125 1524.5 c 128,-1,13
 615.90234375 1521 615.90234375 1521 630.90234375 1521 c 2,14,-1
 660.90234375 1521 l 1,15,-1
 327.834960938 845 l 1,16,-1
 437 0 l 1,17,-1
 311.416015625 -10 l 1,18,-1
 231.829101562 725 l 1,0,-1
EndSplineSet
EndChar

StartChar: uni0198
Encoding: 408 408 98
Width: 512
VWidth: 2441
GlyphClass: 1
Flags: HW
LayerCount: 2
Fore
SplineSet
202.90234375 1521 m 1,0,-1
 335.90234375 1521 l 1,1,-1
 333.209960938 1504 l 1,2,3
 317.993164062 1490 317.993164062 1490 312.299804688 1473 c 128,-1,4
 306.607421875 1456 306.607421875 1456 299.956054688 1414 c 2,5,-1
 209.834960938 845 l 1,6,7
 325.390625 1120 325.390625 1120 402.831054688 1268 c 128,-1,8
 480.272460938 1416 480.272460938 1416 536.379882812 1473.5 c 128,-1,9
 592.486328125 1531 592.486328125 1531 639.486328125 1531 c 0,10,11
 661.486328125 1531 661.486328125 1531 674.90234375 1521 c 1,12,-1
 643.225585938 1321 l 1,13,-1
 636.225585938 1321 l 1,14,15
 631.443359375 1335 631.443359375 1335 626.02734375 1345 c 128,-1,16
 620.611328125 1355 620.611328125 1355 602.0859375 1358 c 2,17,-1
 596.0859375 1358 l 2,18,19
 581.0859375 1358 581.0859375 1358 554.280273438 1324.5 c 128,-1,20
 527.474609375 1291 527.474609375 1291 473.240234375 1188.5 c 128,-1,21
 419.005859375 1086 419.005859375 1086 321.537109375 881 c 1,22,-1
 442 0 l 1,23,-1
 314.416015625 -10 l 1,24,-1
 235.235351562 696 l 1,25,26
 201.356445312 621 201.356445312 621 160.260742188 532 c 1,27,-1
 76 0 l 1,28,-1
 -38 0 l 1,29,-1
 202.90234375 1521 l 1,0,-1
EndSplineSet
EndChar

StartChar: L
Encoding: 76 76 99
Width: 512
VWidth: 2441
GlyphClass: 2
Flags: HW
AnchorPoint: "Anchor-4" 158.688 762 basechar 0
AnchorPoint: "Anchor-2" 211 0 basechar 0
AnchorPoint: "Anchor-1" 301.757 1116 basechar 0
AnchorPoint: "Anchor-0" 390.902 1521 basechar 0
LayerCount: 2
Fore
SplineSet
216.90234375 1521 m 1,0,-1
 363.90234375 1521 l 1,1,-1
 361.209960938 1504 l 1,2,3
 344.993164062 1490 344.993164062 1490 338.799804688 1473 c 128,-1,4
 332.607421875 1456 332.607421875 1456 325.956054688 1414 c 2,5,-1
 125.916015625 151 l 1,6,-1
 476.916015625 151 l 1,7,-1
 453 0 l 1,8,-1
 -24 0 l 1,9,-1
 216.90234375 1521 l 1,0,-1
EndSplineSet
EndChar

StartChar: uni01C7
Encoding: 455 455 100
Width: 512
VWidth: 2380
GlyphClass: 1
Flags: HW
LayerCount: 2
Fore
SplineSet
-10.478515625 98 m 1,0,-1
 214.90234375 1521 l 1,1,-1
 347.90234375 1521 l 1,2,3
 346.52734375 1506 346.52734375 1506 341.893554688 1502 c 0,4,5
 337.259765625 1498 337.259765625 1498 331.833984375 1489 c 0,6,7
 326.409179688 1480 326.409179688 1480 319.548828125 1443 c 2,8,-1
 126.953125 227 l 1,9,-1
 272.953125 227 l 1,10,11
 272.794921875 226 272.794921875 226 252.521484375 98 c 1,12,-1
 -10.478515625 98 l 1,0,-1
203.037109375 -246 m 0,13,14
 146.037109375 -246 146.037109375 -246 103.47265625 -218 c 0,15,16
 60.9072265625 -190 60.9072265625 -190 29.984375 -139 c 1,17,-1
 129.049804688 -6 l 1,18,19
 140.515625 -22 140.515625 -22 132.45703125 -35 c 0,20,21
 124.397460938 -48 124.397460938 -48 148.646484375 -78 c 0,22,23
 158.0625 -88 158.0625 -88 170.794921875 -96 c 0,24,25
 183.528320312 -104 183.528320312 -104 211.528320312 -104 c 0,26,27
 254.528320312 -104 254.528320312 -104 289.19921875 -24 c 0,28,29
 323.869140625 56 323.869140625 56 355.071289062 253 c 2,30,-1
 535.629882812 1393 l 1,31,-1
 423.629882812 1393 l 1,32,-1
 443.90234375 1521 l 1,33,-1
 671.90234375 1521 l 1,34,-1
 471.546875 256 l 1,35,36
 468.78125 236.771484375 468.78125 236.771484375 465.861328125 218.33203125 c 0,0,0
 427.163085938 -26 427.163085938 -26 361.092773438 -132 c 0,1,2
 290.037109375 -246 290.037109375 -246 203.037109375 -246 c 0,13,14
EndSplineSet
EndChar

StartChar: Lcaron
Encoding: 317 317 102
Width: 512
VWidth: 2441
GlyphClass: 2
Flags: HW
AnchorPoint: "Anchor-4" 158.688 762 basechar 0
AnchorPoint: "Anchor-2" 211 0 basechar 0
AnchorPoint: "Anchor-1" 301.757 1116 basechar 0
AnchorPoint: "Anchor-0" 390.902 1521 basechar 0
LayerCount: 2
Fore
SplineSet
478.918945312 1016 m 1,0,-1
 441.412109375 1057 l 1,1,2
 476.490234375 1108 476.490234375 1108 502.592773438 1156 c 128,-1,3
 528.6953125 1204 528.6953125 1204 534.396484375 1240 c 0,4,5
 541.048828125 1282 541.048828125 1282 521.24609375 1308.5 c 128,-1,6
 501.443359375 1335 501.443359375 1335 509.99609375 1389 c 0,7,8
 517.756835938 1438 517.756835938 1438 541.19140625 1466 c 128,-1,9
 564.625976562 1494 564.625976562 1494 594.625976562 1494 c 0,10,11
 615.625976562 1494 615.625976562 1494 636.954101562 1464.5 c 128,-1,12
 658.28125 1435 658.28125 1435 647.194335938 1365 c 0,13,14
 634.682617188 1286 634.682617188 1286 590.774414062 1204.5 c 128,-1,15
 546.866210938 1123 546.866210938 1123 478.918945312 1016 c 1,0,-1
216.90234375 1521 m 1,16,-1
 363.90234375 1521 l 1,17,-1
 361.209960938 1504 l 1,18,19
 344.993164062 1490 344.993164062 1490 338.799804688 1473 c 128,-1,20
 332.607421875 1456 332.607421875 1456 325.956054688 1414 c 2,21,-1
 125.916015625 151 l 1,22,-1
 476.916015625 151 l 1,23,-1
 453 0 l 1,24,-1
 -24 0 l 1,25,-1
 216.90234375 1521 l 1,16,-1
EndSplineSet
EndChar

StartChar: uni01C8
Encoding: 456 456 106
Width: 512
VWidth: 2362
GlyphClass: 1
Flags: HW
LayerCount: 2
Fore
SplineSet
134.037109375 -246 m 0,0,1
 70.037109375 -246 70.037109375 -246 33.634765625 -207.5 c 128,-1,2
 -2.7666015625 -169 -2.7666015625 -169 -25.373046875 -116 c 1,3,-1
 74.384765625 34 l 1,4,5
 83.009765625 19 83.009765625 19 80.158203125 1 c 128,-1,6
 77.3076171875 -17 77.3076171875 -17 80.3232421875 -39 c 128,-1,7
 83.3388671875 -61 83.3388671875 -61 109.270507812 -93 c 0,8,9
 121.89453125 -108 121.89453125 -108 133.39453125 -108 c 128,-1,10
 144.89453125 -108 144.89453125 -108 162.89453125 -108 c 0,11,12
 187.89453125 -108 187.89453125 -108 218.770507812 -93 c 128,-1,13
 249.646484375 -78 249.646484375 -78 279.38671875 -16.5 c 128,-1,14
 309.126953125 45 309.126953125 45 330.66796875 181 c 2,15,-1
 466.0859375 1036 l 1,16,-1
 308.0859375 1036 l 1,17,-1
 327.092773438 1156 l 1,18,-1
 585.092773438 1156 l 1,19,-1
 431.934570312 189 l 2,20,21
 394.239257812 -49 394.239257812 -49 312.138671875 -147.5 c 128,-1,22
 230.037109375 -246 230.037109375 -246 134.037109375 -246 c 0,0,1
-13.826171875 140 m 1,23,-1
 205.536132812 1525 l 1,24,-1
 327.536132812 1525 l 1,25,26
 324.051757812 1503 324.051757812 1503 317.438476562 1486.5 c 128,-1,27
 310.825195312 1470 310.825195312 1470 307.499023438 1449 c 2,28,-1
 121.713867188 276 l 1,29,-1
 282.713867188 276 l 1,30,-1
 261.173828125 140 l 1,31,-1
 -13.826171875 140 l 1,23,-1
557.788085938 1394 m 128,-1,33
 528.788085938 1394 528.788085938 1394 511.827148438 1419.5 c 128,-1,34
 494.865234375 1445 494.865234375 1445 500.567382812 1481 c 0,35,36
 506.5859375 1519 506.5859375 1519 531.125 1544.5 c 128,-1,37
 555.663085938 1570 555.663085938 1570 585.663085938 1570 c 0,38,39
 614.663085938 1570 614.663085938 1570 633.125 1544.5 c 128,-1,40
 651.5859375 1519 651.5859375 1519 645.567382812 1481 c 0,41,42
 639.865234375 1445 639.865234375 1445 613.327148438 1419.5 c 128,-1,32
 586.788085938 1394 586.788085938 1394 557.788085938 1394 c 128,-1,33
EndSplineSet
EndChar

StartChar: Lslash
Encoding: 321 321 108
Width: 512
VWidth: 2441
GlyphClass: 1
Flags: HW
LayerCount: 2
Fore
SplineSet
-25 0 m 1,0,-1
 68.2880859375 589 l 1,1,-1
 15.111328125 550 l 1,2,-1
 39.8193359375 706 l 1,3,-1
 93.3134765625 747 l 1,4,-1
 215.90234375 1521 l 1,5,-1
 339.90234375 1521 l 2,6,7
 348.90234375 1521 348.90234375 1521 348.110351562 1516 c 0,8,9
 346.52734375 1506 346.52734375 1506 336.333984375 1489 c 128,-1,10
 326.141601562 1472 326.141601562 1472 318.756835938 1438 c 2,11,-1
 218.658203125 806 l 1,12,-1
 404.40625 937 l 2,13,14
 426.624023438 951 426.624023438 951 438.366210938 962 c 1,15,-1
 412.548828125 799 l 1,16,-1
 193.950195312 650 l 1,17,-1
 114.916015625 151 l 1,18,-1
 431.916015625 151 l 1,19,-1
 408 0 l 1,20,-1
 -25 0 l 1,0,-1
EndSplineSet
EndChar

StartChar: M
Encoding: 77 77 109
Width: 512
VWidth: 2441
GlyphClass: 2
Flags: HW
AnchorPoint: "Anchor-2" 189 0 basechar 0
AnchorPoint: "Anchor-0" 429.902 1521 basechar 0
LayerCount: 2
Fore
SplineSet
-51 0 m 1,0,-1
 189.90234375 1521 l 1,1,-1
 279.90234375 1521 l 1,2,-1
 323.626953125 850 l 1,3,-1
 582.219726562 1523 l 1,4,-1
 670.219726562 1523 l 1,5,-1
 429 0 l 1,6,-1
 328 0 l 1,7,-1
 498.104492188 1074 l 1,8,-1
 282.735351562 535 l 1,9,-1
 253.735351562 535 l 1,10,-1
 218.99609375 1067 l 1,11,-1
 50 0 l 1,12,-1
 -51 0 l 1,0,-1
EndSplineSet
EndChar

StartChar: N
Encoding: 78 78 111
Width: 512
VWidth: 2441
GlyphClass: 2
Flags: HW
AnchorPoint: "Anchor-2" 189 0 basechar 0
AnchorPoint: "Anchor-0" 429.902 1521 basechar 0
LayerCount: 2
Fore
SplineSet
198.90234375 1521 m 1,0,-1
 304.90234375 1521 l 1,1,-1
 389.807617188 466 l 1,2,-1
 556.90234375 1521 l 1,3,-1
 678.90234375 1521 l 1,4,-1
 676.209960938 1504 l 1,5,6
 660.993164062 1490 660.993164062 1490 654.799804688 1473 c 128,-1,7
 648.607421875 1456 648.607421875 1456 641.956054688 1414 c 2,8,-1
 418 0 l 1,9,-1
 325 0 l 1,10,-1
 237.866210938 1123 l 1,11,-1
 60 0 l 1,12,-1
 -42 0 l 1,13,-1
 198.90234375 1521 l 1,0,-1
EndSplineSet
EndChar

StartChar: Eng
Encoding: 330 330 117
Width: 512
VWidth: 2344
GlyphClass: 2
Flags: HW
AnchorPoint: "Anchor-2" 204.184 159 basechar 0
AnchorPoint: "Anchor-0" 419.902 1521 basechar 0
LayerCount: 2
Fore
SplineSet
551.90234375 1521 m 1,0,-1
 655.90234375 1521 l 1,1,2
 653.84375 1508 653.84375 1508 649.1015625 1497 c 128,-1,3
 644.359375 1486 644.359375 1486 640.557617188 1462 c 2,4,-1
 434.18359375 159 l 2,5,6
 409.950195312 6 409.950195312 6 372.93359375 -82.5 c 128,-1,7
 335.916015625 -171 335.916015625 -171 288.4765625 -208.5 c 128,-1,8
 241.037109375 -246 241.037109375 -246 191.037109375 -246 c 0,9,10
 139.037109375 -246 139.037109375 -246 102.58984375 -192 c 1,11,-1
 164.130859375 -56 l 1,12,13
 175.705078125 -65 175.705078125 -65 177.299804688 -86.5 c 128,-1,14
 178.89453125 -108 178.89453125 -108 214.89453125 -108 c 0,15,16
 264.89453125 -108 264.89453125 -108 290.510742188 -31.5 c 128,-1,17
 316.126953125 45 316.126953125 45 343.78515625 207 c 1,18,-1
 241.359375 1164 l 1,19,-1
 82.18359375 159 l 1,20,-1
 -18.81640625 159 l 1,21,-1
 196.90234375 1521 l 1,22,-1
 303.90234375 1521 l 1,23,-1
 402.229492188 576 l 1,24,-1
 551.90234375 1521 l 1,0,-1
EndSplineSet
EndChar

StartChar: O
Encoding: 79 79 120
Width: 512
VWidth: 2441
GlyphClass: 2
Flags: HW
AnchorPoint: "Anchor-4" 295.688 762 basechar 0
AnchorPoint: "Anchor-3" 217.801 24 basechar 0
AnchorPoint: "Anchor-2" 175 0 basechar 0
AnchorPoint: "Anchor-1" 538.856 1426 basechar 0
AnchorPoint: "Anchor-0" 415.902 1521 basechar 0
LayerCount: 2
Fore
SplineSet
192.421875 110 m 0,0,1
 231.421875 110 231.421875 110 268.5 161 c 128,-1,2
 305.577148438 212 305.577148438 212 345.013671875 350.5 c 128,-1,3
 384.450195312 489 384.450195312 489 426.10546875 752 c 0,4,5
 466.334960938 1006 466.334960938 1006 470.850585938 1145 c 128,-1,6
 475.365234375 1284 475.365234375 1284 455.077148438 1339 c 128,-1,7
 434.788085938 1394 434.788085938 1394 395.788085938 1394 c 0,8,9
 358.788085938 1394 358.788085938 1394 319.577148438 1339 c 128,-1,10
 280.365234375 1284 280.365234375 1284 240.850585938 1145 c 128,-1,11
 201.334960938 1006 201.334960938 1006 161.10546875 752 c 0,12,13
 119.450195312 489 119.450195312 489 115.013671875 350.5 c 128,-1,14
 110.577148438 212 110.577148438 212 133 161 c 128,-1,15
 155.421875 110 155.421875 110 192.421875 110 c 0,0,1
170.723632812 -27 m 128,-1,17
 92.7236328125 -27 92.7236328125 -27 50.3896484375 43.5 c 128,-1,18
 8.0556640625 114 8.0556640625 114 6.9814453125 284 c 128,-1,19
 5.90625 454 5.90625 454 53.10546875 752 c 0,20,21
 99.1953125 1043 99.1953125 1043 154.041015625 1212.5 c 128,-1,22
 208.887695312 1382 208.887695312 1382 274.686523438 1456.5 c 128,-1,23
 340.486328125 1531 340.486328125 1531 417.486328125 1531 c 0,24,25
 495.486328125 1531 495.486328125 1531 536.686523438 1456.5 c 128,-1,26
 577.887695312 1382 577.887695312 1382 578.461914062 1212 c 128,-1,27
 579.036132812 1042 579.036132812 1042 533.10546875 752 c 0,28,29
 485.90625 454 485.90625 454 431.481445312 284 c 128,-1,30
 377.055664062 114 377.055664062 114 312.889648438 43.5 c 128,-1,16
 248.723632812 -27 248.723632812 -27 170.723632812 -27 c 128,-1,17
EndSplineSet
Substitution2: "Single Substitution lookup 29 subtable" ordmasculine
Substitution2: "'aalt' Access All Alternates in Latin lookup 0 subtable" ordmasculine
EndChar

StartChar: Oslash
Encoding: 216 216 148
Width: 512
VWidth: 2441
GlyphClass: 2
Flags: HW
AnchorPoint: "Anchor-4" 295.688 762 basechar 0
AnchorPoint: "Anchor-3" 217.801 24 basechar 0
AnchorPoint: "Anchor-2" 175 0 basechar 0
AnchorPoint: "Anchor-1" 538.856 1426 basechar 0
AnchorPoint: "Anchor-0" 415.902 1521 basechar 0
LayerCount: 2
Fore
SplineSet
192.421875 110 m 0,0,1
 231.421875 110 231.421875 110 268.5 161 c 128,-1,2
 305.577148438 212 305.577148438 212 345.013671875 350.5 c 128,-1,3
 384.450195312 489 384.450195312 489 426.10546875 752 c 0,4,5
 444.953125 871 444.953125 871 455.919921875 965.5 c 128,-1,6
 466.887695312 1060 466.887695312 1060 470.657226562 1128 c 1,7,-1
 119.46875 205 l 1,8,9
 129.916015625 151 129.916015625 151 148.168945312 130.5 c 128,-1,10
 166.421875 110 166.421875 110 192.421875 110 c 0,0,1
161.10546875 752 m 0,11,12
 143.682617188 642 143.682617188 642 132.903320312 555 c 128,-1,13
 122.124023438 468 122.124023438 468 117.829101562 403 c 1,14,-1
 462.641601562 1311 l 1,15,16
 452.927734375 1357 452.927734375 1357 436.857421875 1375.5 c 128,-1,17
 420.788085938 1394 420.788085938 1394 395.788085938 1394 c 0,18,19
 358.788085938 1394 358.788085938 1394 319.577148438 1339 c 128,-1,20
 280.365234375 1284 280.365234375 1284 240.850585938 1145 c 128,-1,21
 201.334960938 1006 201.334960938 1006 161.10546875 752 c 0,11,12
4.6865234375 -103 m 1,22,-1
 -58.978515625 -63 l 1,23,-1
 19.015625 139 l 1,24,25
 2.4287109375 230 2.4287109375 230 10.1064453125 379.5 c 128,-1,26
 17.78515625 529 17.78515625 529 53.10546875 752 c 0,27,28
 99.1953125 1043 99.1953125 1043 154.041015625 1212.5 c 128,-1,29
 208.887695312 1382 208.887695312 1382 274.686523438 1456.5 c 128,-1,30
 340.486328125 1531 340.486328125 1531 417.486328125 1531 c 0,31,32
 486.486328125 1531 486.486328125 1531 525.93359375 1477 c 1,33,-1
 596.709960938 1665 l 1,34,-1
 656.741210938 1621 l 1,35,-1
 564.095703125 1377 l 1,36,37
 584.682617188 1286 584.682617188 1286 577.028320312 1133.5 c 128,-1,38
 569.375 981 569.375 981 533.10546875 752 c 0,39,40
 485.90625 454 485.90625 454 431.481445312 284 c 128,-1,41
 377.055664062 114 377.055664062 114 312.889648438 43.5 c 128,-1,42
 248.723632812 -27 248.723632812 -27 170.723632812 -27 c 0,43,44
 94.7236328125 -27 94.7236328125 -27 55.54296875 35 c 1,45,-1
 4.6865234375 -103 l 1,22,-1
EndSplineSet
EndChar

StartChar: OE
Encoding: 338 338 154
Width: 512
VWidth: 2441
GlyphClass: 1
Flags: HW
LayerCount: 2
Fore
SplineSet
106.956054688 126 m 0,0,1
 129.956054688 126 129.956054688 126 150.088867188 180.5 c 128,-1,2
 170.220703125 235 170.220703125 235 189.890625 315 c 1,3,-1
 327.52734375 1184 l 1,4,5
 339.840820312 1287 339.840820312 1287 336.34375 1347 c 128,-1,6
 332.846679688 1407 332.846679688 1407 301.846679688 1407 c 0,7,8
 283.846679688 1407 283.846679688 1407 261.66015625 1349 c 128,-1,9
 239.474609375 1291 239.474609375 1291 210.30078125 1151 c 128,-1,10
 181.126953125 1011 181.126953125 1011 142.005859375 764 c 0,11,12
 94.490234375 464 94.490234375 464 82.2236328125 295 c 128,-1,13
 69.9560546875 126 69.9560546875 126 106.956054688 126 c 0,0,1
60.3076171875 -17 m 0,14,15
 27.3076171875 -17 27.3076171875 -17 6.6923828125 17 c 128,-1,16
 -13.9228515625 51 -13.9228515625 51 -20.380859375 136.5 c 128,-1,17
 -26.8388671875 222 -26.8388671875 222 -14.1845703125 374.5 c 128,-1,18
 -1.53125 527 -1.53125 527 35.6884765625 762 c 0,19,20
 82.8876953125 1060 82.8876953125 1060 128.3125 1230 c 128,-1,21
 173.73828125 1400 173.73828125 1400 218.5625 1471.5 c 128,-1,22
 263.38671875 1543 263.38671875 1543 311.38671875 1543 c 0,23,24
 334.38671875 1543 334.38671875 1543 348.432617188 1527.5 c 128,-1,25
 362.477539062 1512 362.477539062 1512 373.716796875 1463 c 1,26,-1
 383.219726562 1523 l 1,27,-1
 636.219726562 1523 l 1,28,-1
 614.520507812 1386 l 1,29,-1
 464.520507812 1386 l 1,30,-1
 381.84375 864 l 1,31,-1
 512.84375 864 l 1,32,-1
 490.353515625 722 l 1,33,-1
 359.353515625 722 l 1,34,-1
 266.381835938 135 l 1,35,-1
 414.381835938 135 l 1,36,-1
 393 0 l 1,37,-1
 140 0 l 1,38,-1
 150.453125 66 l 1,39,40
 127.16796875 20 127.16796875 20 106.237304688 1.5 c 128,-1,41
 85.3076171875 -17 85.3076171875 -17 60.3076171875 -17 c 0,14,15
EndSplineSet
EndChar

StartChar: P
Encoding: 80 80 155
Width: 512
VWidth: 2441
GlyphClass: 2
Flags: HW
AnchorPoint: "Anchor-2" 13 0 basechar 0
AnchorPoint: "Anchor-0" 437.902 1521 basechar 0
LayerCount: 2
Fore
SplineSet
213.658203125 806 m 1,0,-1
 308.658203125 806 l 2,1,2
 383.658203125 806 383.658203125 806 433.408203125 886.5 c 128,-1,3
 483.158203125 967 483.158203125 967 503.272460938 1094 c 0,4,5
 527.188476562 1245 527.188476562 1245 499.696289062 1314.5 c 128,-1,6
 472.204101562 1384 472.204101562 1384 400.204101562 1384 c 2,7,-1
 305.204101562 1384 l 1,8,-1
 213.658203125 806 l 1,0,-1
-34 0 m 1,9,-1
 206.90234375 1521 l 1,10,-1
 424.90234375 1521 l 2,11,12
 686.90625 1521 686.90625 1521 620.573242188 1102.19042969 c 0,13,14
 586.016601562 884.005859375 586.016601562 884.005859375 496.985351562 776.5 c 128,-1,15
 407.958984375 669 407.958984375 669 295.958984375 669 c 2,16,-1
 191.958984375 669 l 1,17,-1
 86 0 l 1,18,-1
 -34 0 l 1,9,-1
EndSplineSet
EndChar

StartChar: Thorn
Encoding: 222 222 156
Width: 512
VWidth: 2441
GlyphClass: 1
Flags: HW
LayerCount: 2
Fore
SplineSet
158.676757812 522 m 1,0,-1
 269.676757812 522 l 2,1,2
 347.676757812 522 347.676757812 522 391.901367188 605.5 c 128,-1,3
 436.126953125 689 436.126953125 689 453.866210938 801 c 128,-1,4
 471.60546875 913 471.60546875 913 452.305664062 999.5 c 128,-1,5
 433.005859375 1086 433.005859375 1086 350.005859375 1086 c 2,6,-1
 248.005859375 1086 l 1,7,-1
 158.676757812 522 l 1,0,-1
-38 0 m 1,8,-1
 202.90234375 1521 l 1,9,-1
 327.90234375 1521 l 2,10,11
 329.5859375 1519 329.5859375 1519 328.793945312 1514 c 0,12,13
 327.685546875 1507 327.685546875 1507 318.651367188 1491 c 128,-1,14
 309.6171875 1475 309.6171875 1475 306.1328125 1453 c 2,15,-1
 269.704101562 1223 l 1,16,-1
 395.704101562 1223 l 2,17,18
 473.704101562 1223 473.704101562 1223 517.493164062 1168 c 128,-1,19
 561.282226562 1113 561.282226562 1113 574.735351562 1018 c 128,-1,20
 588.188476562 923 588.188476562 923 569.658203125 806 c 0,21,22
 541.940429688 631 541.940429688 631 458.489257812 514.5 c 128,-1,23
 375.037109375 398 375.037109375 398 250.037109375 398 c 2,24,-1
 139.037109375 398 l 1,25,-1
 76 0 l 1,26,-1
 -38 0 l 1,8,-1
EndSplineSet
EndChar

StartChar: Q
Encoding: 81 81 157
Width: 512
VWidth: 2391
GlyphClass: 2
Flags: HW
AnchorPoint: "Anchor-2" 191.146 83 basechar 0
AnchorPoint: "Anchor-0" 419.062 1522 basechar 0
LayerCount: 2
Fore
SplineSet
215.360351562 198 m 0,0,1
 276.360351562 198 276.360351562 198 330.950195312 328 c 128,-1,2
 385.540039062 458 385.540039062 458 433.688476562 762 c 0,3,4
 472.017578125 1004 472.017578125 1004 476.087890625 1146.5 c 128,-1,5
 480.157226562 1289 480.157226562 1289 459.16015625 1349 c 128,-1,6
 438.1640625 1409 438.1640625 1409 403.1640625 1409 c 0,7,8
 355.1640625 1409 355.1640625 1409 291.598632812 1276 c 128,-1,9
 228.033203125 1143 228.033203125 1143 178.458984375 830 c 0,10,11
 141.080078125 594 141.080078125 594 136.64453125 455.5 c 128,-1,12
 132.208007812 317 132.208007812 317 154.284179688 257.5 c 128,-1,13
 176.360351562 198 176.360351562 198 215.360351562 198 c 0,0,1
302.196289062 -245 m 1,14,15
 290.185546875 -246.005859375 290.185546875 -246.005859375 279.041015625 -246.005859375 c 0,16,17
 190.501953125 -246.005859375 190.501953125 -246.005859375 156.594726562 -182.5 c 0,18,19
 118.418945312 -111 118.418945312 -111 146.611328125 67 c 1,20,21
 90.046875 95 90.046875 95 58.083984375 171 c 128,-1,22
 26.12109375 247 26.12109375 247 24.720703125 396 c 128,-1,23
 23.3193359375 545 23.3193359375 545 62.916015625 795 c 0,24,25
 109.322265625 1088 109.322265625 1088 168.401367188 1249.5 c 128,-1,26
 227.48046875 1411 227.48046875 1411 292.038085938 1474.5 c 128,-1,27
 356.595703125 1538 356.595703125 1538 421.595703125 1538 c 0,28,29
 488.595703125 1538 488.595703125 1538 531.720703125 1472.5 c 128,-1,30
 574.846679688 1407 574.846679688 1407 582.084960938 1247.5 c 128,-1,31
 589.322265625 1088 589.322265625 1088 543.866210938 801 c 0,32,33
 504.111328125 550 504.111328125 550 458.87890625 397 c 128,-1,34
 413.645507812 244 413.645507812 244 362.108398438 168 c 128,-1,35
 310.571289062 92 310.571289062 92 242.611328125 67 c 1,36,37
 234.416015625 -10 234.416015625 -10 234.41796875 -60.5 c 128,-1,38
 234.418945312 -111 234.418945312 -111 280.418945312 -111 c 2,39,-1
 370.2109375 -106 l 1,40,-1
 346.196289062 -245 l 1,41,-1
 302.196289062 -245 l 1,14,15
EndSplineSet
EndChar

StartChar: R
Encoding: 82 82 158
Width: 512
VWidth: 2441
GlyphClass: 2
Flags: HW
AnchorPoint: "Anchor-2" 200 0 basechar 0
AnchorPoint: "Anchor-0" 440.902 1521 basechar 0
LayerCount: 2
Fore
SplineSet
221.083007812 815 m 1,0,-1
 313.083007812 815 l 2,1,2
 367.083007812 815 367.083007812 815 416.06640625 887.5 c 128,-1,3
 465.048828125 960 465.048828125 960 487.380859375 1101 c 0,4,5
 511.296875 1252 511.296875 1252 484.250976562 1318 c 128,-1,6
 457.204101562 1384 457.204101562 1384 403.204101562 1384 c 2,7,-1
 311.204101562 1384 l 1,8,-1
 221.083007812 815 l 1,0,-1
-29 0 m 1,9,-1
 211.90234375 1521 l 1,10,-1
 414.90234375 1521 l 2,11,12
 544.90234375 1521 544.90234375 1521 590.584960938 1408.5 c 128,-1,13
 636.266601562 1296 636.266601562 1296 605.380859375 1101 c 0,14,15
 579.881835938 940 579.881835938 940 521.80078125 829 c 128,-1,16
 463.719726562 718 463.719726562 718 389.443359375 691 c 1,17,-1
 451 0 l 1,18,-1
 330 0 l 1,19,-1
 260.384765625 678 l 1,20,-1
 199.384765625 678 l 1,21,-1
 92 0 l 1,22,-1
 -29 0 l 1,9,-1
EndSplineSet
EndChar

StartChar: S
Encoding: 83 83 166
Width: 512
VWidth: 2441
GlyphClass: 2
Flags: HW
AnchorPoint: "Anchor-2" 200 0 basechar 0
AnchorPoint: "Anchor-0" 456.902 1521 basechar 0
LayerCount: 2
Fore
SplineSet
196.19921875 -24 m 0,0,1
 125.19921875 -24 125.19921875 -24 72.5341796875 16 c 128,-1,2
 19.869140625 56 19.869140625 56 -9.1923828125 144 c 1,3,-1
 62 322 l 1,4,-1
 70.958984375 347 l 1,5,-1
 87.1669921875 342 l 1,6,7
 96.474609375 325 96.474609375 325 88.0654296875 294 c 0,8,9
 86.5556640625 288.435546875 86.5556640625 288.435546875 85.6435546875 282.678710938 c 0,10,11
 81.474609375 256.359375 81.474609375 256.359375 89.794921875 226 c 0,12,13
 108.716796875 175 108.716796875 175 140.228515625 143.5 c 128,-1,14
 171.739257812 112 171.739257812 112 219.739257812 112 c 0,15,16
 285.739257812 112 285.739257812 112 329.4296875 179.5 c 128,-1,17
 373.12109375 247 373.12109375 247 395.928710938 391 c 0,18,19
 405.114257812 449 405.114257812 449 407.61328125 499.5 c 128,-1,20
 410.111328125 550 410.111328125 550 390.084960938 603.5 c 128,-1,21
 370.05859375 657 370.05859375 657 308.719726562 718 c 0,22,23
 206.450195312 811 206.450195312 811 181.743164062 926.5 c 128,-1,24
 157.036132812 1042 157.036132812 1042 176.517578125 1165 c 0,25,26
 208.986328125 1370 208.986328125 1370 282.94921875 1455 c 128,-1,27
 356.912109375 1540 356.912109375 1540 461.912109375 1540 c 0,28,29
 590.912109375 1540 590.912109375 1540 640.620117188 1374 c 1,30,-1
 569.704101562 1223 l 1,31,-1
 558.903320312 1199 l 1,32,-1
 546.01171875 1206 l 1,33,34
 540.020507812 1225 540.020507812 1225 547.456054688 1253 c 0,35,36
 548.517578125 1257 548.517578125 1257 549.180664062 1261.18359375 c 0,37,38
 553.15625 1286.28613281 553.15625 1286.28613281 542.750976562 1318 c 0,39,40
 508.372070312 1404 508.372070312 1404 433.372070312 1404 c 0,41,42
 374.372070312 1404 374.372070312 1404 344.952148438 1354 c 128,-1,43
 315.533203125 1304 315.533203125 1304 295.418945312 1177 c 0,44,45
 280.372070312 1082 280.372070312 1082 295.725585938 999 c 128,-1,46
 311.080078125 916 311.080078125 916 393.092773438 834 c 0,47,48
 488.6796875 743 488.6796875 743 510.9453125 640.5 c 128,-1,49
 533.2109375 538 533.2109375 538 513.729492188 415 c 0,50,51
 483.161132812 222 483.161132812 222 405.6796875 99 c 128,-1,52
 328.19921875 -24 328.19921875 -24 196.19921875 -24 c 0,0,1
EndSplineSet
EndChar

StartChar: uni1E9E
Encoding: 7838 7838 177
Width: 512
VWidth: 2441
GlyphClass: 1
Flags: HW
LayerCount: 2
Fore
SplineSet
224.19921875 -24 m 0,0,1
 154.19921875 -24 154.19921875 -24 112.860351562 37 c 1,2,-1
 170.92578125 170 l 1,3,4
 201.055664062 114 201.055664062 114 239.055664062 114 c 0,5,6
 295.055664062 114 295.055664062 114 332.28125 197.5 c 128,-1,7
 369.505859375 281 369.505859375 281 398.490234375 464 c 0,8,9
 423.673828125 623 423.673828125 623 413.715820312 708.5 c 128,-1,10
 403.756835938 794 403.756835938 794 310.756835938 794 c 2,11,-1
 275.756835938 794 l 1,12,-1
 296.505859375 925 l 1,13,-1
 482.704101562 1223 l 1,14,15
 493.791015625 1293 493.791015625 1293 497.0859375 1358 c 128,-1,16
 500.380859375 1423 500.380859375 1423 485.533203125 1465 c 128,-1,17
 470.685546875 1507 470.685546875 1507 425.685546875 1507 c 0,18,19
 373.685546875 1507 373.685546875 1507 331.356445312 1426 c 128,-1,20
 289.02734375 1345 289.02734375 1345 259.725585938 1160 c 2,21,-1
 76 0 l 1,22,-1
 -40 0 l 1,23,-1
 138.657226562 1128 l 2,24,25
 171.91796875 1338 171.91796875 1338 219.682617188 1447 c 128,-1,26
 267.446289062 1556 267.446289062 1556 326.043945312 1594.5 c 128,-1,27
 384.641601562 1633 384.641601562 1633 445.641601562 1633 c 0,28,29
 551.641601562 1633 551.641601562 1633 588.90234375 1521 c 128,-1,30
 626.1640625 1409 626.1640625 1409 593.6953125 1204 c 1,31,-1
 391.396484375 918 l 1,32,33
 495.595703125 894 495.595703125 894 519.985351562 776.5 c 128,-1,34
 544.375 659 544.375 659 510.005859375 442 c 0,35,36
 470.884765625 195 470.884765625 195 397.541992188 85.5 c 128,-1,37
 324.19921875 -24 324.19921875 -24 224.19921875 -24 c 0,0,1
EndSplineSet
EndChar

StartChar: T
Encoding: 84 84 179
Width: 512
VWidth: 2441
GlyphClass: 2
Flags: HW
AnchorPoint: "Anchor-4" 297.688 762 basechar 0
AnchorPoint: "Anchor-2" 184 0 basechar 0
AnchorPoint: "Anchor-0" 424.902 1521 basechar 0
LayerCount: 2
Fore
SplineSet
122 0 m 1,0,-1
 341.520507812 1386 l 1,1,-1
 161.520507812 1386 l 1,2,-1
 183.219726562 1523 l 1,3,-1
 663.219726562 1523 l 1,4,-1
 641.520507812 1386 l 1,5,-1
 454.520507812 1386 l 1,6,-1
 235 0 l 1,7,-1
 122 0 l 1,0,-1
EndSplineSet
EndChar

StartChar: Tbar
Encoding: 358 358 180
Width: 512
VWidth: 2441
GlyphClass: 2
Flags: HW
AnchorPoint: "Anchor-4" 297.688 762 basechar 0
AnchorPoint: "Anchor-2" 184 0 basechar 0
AnchorPoint: "Anchor-0" 424.902 1521 basechar 0
LayerCount: 2
Fore
SplineSet
122 0 m 1,0,-1
 231.918945312 694 l 1,1,-1
 113.918945312 694 l 1,2,-1
 135.458984375 830 l 1,3,-1
 253.458984375 830 l 1,4,-1
 341.520507812 1386 l 1,5,-1
 161.520507812 1386 l 1,6,-1
 183.219726562 1523 l 1,7,-1
 663.219726562 1523 l 1,8,-1
 641.520507812 1386 l 1,9,-1
 454.520507812 1386 l 1,10,-1
 366.458984375 830 l 1,11,-1
 495.458984375 830 l 1,12,-1
 473.918945312 694 l 1,13,-1
 344.918945312 694 l 1,14,-1
 235 0 l 1,15,-1
 122 0 l 1,0,-1
EndSplineSet
EndChar

StartChar: U
Encoding: 85 85 186
Width: 512
VWidth: 2441
GlyphClass: 2
Flags: HW
AnchorPoint: "Anchor-3" 267.801 24 basechar 0
AnchorPoint: "Anchor-2" 203 0 basechar 0
AnchorPoint: "Anchor-1" 685.902 1521 basechar 0
AnchorPoint: "Anchor-0" 443.902 1521 basechar 0
LayerCount: 2
Fore
SplineSet
200.723632812 -27 m 0,0,1
 55.7236328125 -27 55.7236328125 -27 27.705078125 96 c 128,-1,2
 -0.3134765625 219 -0.3134765625 219 40.390625 476 c 2,3,-1
 205.90234375 1521 l 1,4,-1
 348.90234375 1521 l 1,5,-1
 346.209960938 1504 l 1,6,7
 329.993164062 1490 329.993164062 1490 323.799804688 1473 c 128,-1,8
 317.607421875 1456 317.607421875 1456 310.956054688 1414 c 2,9,-1
 161.916015625 473 l 2,10,11
 132.139648438 285 132.139648438 285 143.7265625 194 c 0,12,13
 155.064453125 104.95703125 155.064453125 104.95703125 218.803710938 104.95703125 c 0,14,15
 220.204101562 104.95703125 220.204101562 104.95703125 221.629882812 105 c 0,16,17
 289.947265625 107 289.947265625 107 330.626953125 206 c 128,-1,18
 371.307617188 305 371.307617188 305 399.024414062 480 c 2,19,-1
 563.90234375 1521 l 1,20,-1
 685.90234375 1521 l 1,21,-1
 521.658203125 484 l 2,22,23
 477.15234375 203 477.15234375 203 403.4375 88 c 128,-1,24
 329.723632812 -27 329.723632812 -27 200.723632812 -27 c 0,0,1
EndSplineSet
EndChar

StartChar: V
Encoding: 86 86 209
Width: 512
VWidth: 2441
GlyphClass: 2
Flags: HW
AnchorPoint: "Anchor-2" 172 0 basechar 0
AnchorPoint: "Anchor-0" 412.902 1521 basechar 0
LayerCount: 2
Fore
SplineSet
142.416015625 -10 m 1,0,-1
 175.219726562 1523 l 1,1,-1
 282.219726562 1523 l 1,2,-1
 252.58984375 452 l 1,3,-1
 550.90234375 1521 l 1,4,-1
 654.90234375 1521 l 1,5,-1
 204.416015625 -10 l 1,6,-1
 142.416015625 -10 l 1,0,-1
EndSplineSet
EndChar

StartChar: W
Encoding: 87 87 210
Width: 512
VWidth: 2441
GlyphClass: 2
Flags: HW
AnchorPoint: "Anchor-2" 159 0 basechar 0
AnchorPoint: "Anchor-0" 405.902 1521 basechar 0
LayerCount: 2
Fore
SplineSet
17 0 m 1,0,-1
 157.90234375 1521 l 1,1,-1
 249.90234375 1521 l 1,2,-1
 153.40625 615 l 1,3,-1
 366.1640625 1409 l 1,4,-1
 409.1640625 1409 l 1,5,-1
 366.40625 615 l 1,6,-1
 552.90234375 1521 l 1,7,-1
 637.90234375 1521 l 1,8,-1
 297 0 l 1,9,-1
 250 0 l 1,10,-1
 304.713867188 920 l 1,11,-1
 68 0 l 1,12,-1
 17 0 l 1,0,-1
EndSplineSet
EndChar

StartChar: X
Encoding: 88 88 215
Width: 512
VWidth: 2441
GlyphClass: 2
Flags: HW
AnchorPoint: "Anchor-2" 189 0 basechar 0
AnchorPoint: "Anchor-0" 429.902 1521 basechar 0
LayerCount: 2
Fore
SplineSet
-47 0 m 1,0,-1
 248.90625 776 l 1,1,-1
 199.219726562 1523 l 1,2,-1
 311.219726562 1523 l 1,3,-1
 346.434570312 994 l 1,4,-1
 551.219726562 1523 l 1,5,-1
 652.219726562 1523 l 1,6,-1
 374.22265625 778 l 1,7,-1
 433 0 l 1,8,-1
 321 0 l 1,9,-1
 276.745117188 554 l 1,10,-1
 61 0 l 1,11,-1
 -47 0 l 1,0,-1
EndSplineSet
EndChar

StartChar: Y
Encoding: 89 89 216
Width: 512
VWidth: 2441
GlyphClass: 2
Flags: HW
AnchorPoint: "Anchor-2" 184 0 basechar 0
AnchorPoint: "Anchor-0" 415.902 1521 basechar 0
LayerCount: 2
Fore
SplineSet
128 0 m 1,0,-1
 219.229492188 576 l 1,1,-1
 177.90234375 1521 l 1,2,-1
 288.90234375 1521 l 1,3,-1
 314.984375 827 l 1,4,-1
 551.90234375 1521 l 1,5,-1
 657.90234375 1521 l 1,6,-1
 329.229492188 576 l 1,7,-1
 238 0 l 1,8,-1
 128 0 l 1,0,-1
EndSplineSet
EndChar

StartChar: Z
Encoding: 90 90 226
Width: 512
VWidth: 2441
GlyphClass: 2
Flags: HW
AnchorPoint: "Anchor-2" 218 0 basechar 0
AnchorPoint: "Anchor-0" 447.902 1521 basechar 0
LayerCount: 2
Fore
SplineSet
-18.578125 110 m 1,0,-1
 523.204101562 1384 l 1,1,-1
 196.204101562 1384 l 1,2,-1
 217.90234375 1521 l 1,3,-1
 666.90234375 1521 l 1,4,-1
 649.48046875 1411 l 1,5,-1
 110.698242188 137 l 1,6,-1
 363.698242188 137 l 2,7,8
 403.698242188 137 403.698242188 137 420.490234375 142 c 128,-1,9
 437.282226562 147 437.282226562 147 453.5 161 c 1,10,-1
 469.5 161 l 1,11,-1
 444 0 l 1,12,-1
 -36 0 l 1,13,-1
 -18.578125 110 l 1,0,-1
EndSplineSet
EndChar

StartChar: a
Encoding: 97 97 232
Width: 512
VWidth: 2441
GlyphClass: 2
Flags: HW
AnchorPoint: "Anchor-3" 405 0 basechar 0
AnchorPoint: "Anchor-2" 167 0 basechar 0
AnchorPoint: "Anchor-0" 379.748 1097 basechar 0
LayerCount: 2
Fore
SplineSet
113.515625 300 m 0,0,1
 97.994140625 202 97.994140625 202 119.866210938 157 c 128,-1,2
 141.739257812 112 141.739257812 112 184.739257812 112 c 0,3,4
 258.739257812 112 258.739257812 112 319.765625 219.5 c 128,-1,5
 380.791992188 327 380.791992188 327 418.735351562 535 c 1,6,7
 369.319335938 545 369.319335938 545 334.319335938 545 c 0,8,9
 247.319335938 545 247.319335938 545 191.424804688 492 c 128,-1,10
 135.53125 439 135.53125 439 113.515625 300 c 0,0,1
153.723632812 -27 m 0,11,12
 58.7236328125 -27 58.7236328125 -27 23.2705078125 68 c 128,-1,13
 -12.18359375 163 -12.18359375 163 9.1982421875 298 c 0,14,15
 33.1142578125 449 33.1142578125 449 79.7607421875 532 c 128,-1,16
 126.40625 615 126.40625 615 194.395507812 646.5 c 128,-1,17
 262.384765625 678 262.384765625 678 348.384765625 678 c 0,18,19
 369.384765625 678 369.384765625 678 391.830078125 674.5 c 128,-1,20
 414.276367188 671 414.276367188 671 439.166992188 664 c 1,21,22
 457.756835938 794 457.756835938 794 458.08203125 865.5 c 128,-1,23
 458.40625 937 458.40625 937 433.158203125 967 c 128,-1,24
 407.909179688 997 407.909179688 997 349.909179688 997 c 0,25,26
 279.909179688 997 279.909179688 997 194.813476562 908 c 1,27,-1
 163.34375 1025 l 1,28,29
 268.399414062 1139 268.399414062 1139 379.55859375 1140 c 0,30,31
 469.55859375 1140 469.55859375 1140 514.430664062 1095 c 128,-1,32
 559.303710938 1050 559.303710938 1050 565.03515625 931.5 c 128,-1,33
 570.766601562 813 570.766601562 813 536.080078125 594 c 2,34,-1
 442 0 l 1,35,-1
 338 0 l 1,36,-1
 364.92578125 170 l 1,37,38
 313.602539062 48 313.602539062 48 257.663085938 10.5 c 128,-1,39
 201.723632812 -27 201.723632812 -27 153.723632812 -27 c 0,11,12
EndSplineSet
Substitution2: "Single Substitution lookup 29 subtable" ordfeminine
Substitution2: "'aalt' Access All Alternates in Latin lookup 0 subtable" ordfeminine
EndChar

StartChar: ae
Encoding: 230 230 257
Width: 512
VWidth: 2441
GlyphClass: 1
Flags: HW
LayerCount: 2
Fore
SplineSet
66.947265625 107 m 0,0,1
 92.947265625 107 92.947265625 107 111.37109375 166.5 c 128,-1,2
 129.794921875 226 129.794921875 226 146.158203125 323 c 128,-1,3
 162.521484375 420 162.521484375 420 180.260742188 532 c 1,4,5
 125.676757812 522 125.676757812 522 101.153320312 474.5 c 128,-1,6
 76.6298828125 427 76.6298828125 427 56.1982421875 298 c 0,7,8
 39.884765625 195 39.884765625 195 42.416015625 151 c 128,-1,9
 44.947265625 107 44.947265625 107 66.947265625 107 c 0,0,1
301.384765625 678 m 1,10,-1
 392.126953125 689 l 1,11,12
 416.518554688 843 416.518554688 843 423.767578125 923.5 c 128,-1,13
 431.017578125 1004 431.017578125 1004 409.017578125 1004 c 0,14,15
 377.017578125 1004 377.017578125 1004 351.555664062 919 c 128,-1,16
 326.092773438 834 326.092773438 834 301.384765625 678 c 1,10,-1
31.7236328125 -27 m 0,17,18
 -38.2763671875 -27 -38.2763671875 -27 -53.7294921875 68 c 128,-1,19
 -69.18359375 163 -69.18359375 163 -47.484375 300 c 0,20,21
 -26.578125 432 -26.578125 432 2.2216796875 506.5 c 128,-1,22
 31.021484375 581 31.021484375 581 78.302734375 617.5 c 128,-1,23
 125.583007812 654 125.583007812 654 201.958984375 669 c 1,24,25
 227.142578125 828 227.142578125 828 231.580078125 916 c 128,-1,26
 236.017578125 1004 236.017578125 1004 195.017578125 1004 c 0,27,28
 173.017578125 1004 173.017578125 1004 153.692382812 983 c 128,-1,29
 134.366210938 962 134.366210938 962 113.505859375 925 c 1,30,-1
 92.1357421875 1030 l 1,31,32
 116.896484375 1079 116.896484375 1079 151.227539062 1109.5 c 128,-1,33
 185.55859375 1140 185.55859375 1140 222.55859375 1140 c 0,34,35
 258.55859375 1140 258.55859375 1140 280.485351562 1098.5 c 128,-1,36
 302.412109375 1057 302.412109375 1057 308.334960938 1006 c 1,37,38
 327.204101562 1062 327.204101562 1062 365.880859375 1101 c 128,-1,39
 404.55859375 1140 404.55859375 1140 434.55859375 1140 c 0,40,41
 502.55859375 1140 502.55859375 1140 514.08203125 1026.5 c 128,-1,42
 525.60546875 913 525.60546875 913 484.583007812 654 c 2,43,-1
 470.645507812 566 l 1,44,-1
 281.427734375 552 l 1,45,-1
 261.629882812 427 l 2,46,47
 239.139648438 285 239.139648438 285 240.489257812 192.5 c 128,-1,48
 241.838867188 100 241.838867188 100 285.838867188 100 c 0,49,50
 309.838867188 100 309.838867188 100 332.876953125 125.5 c 128,-1,51
 355.916015625 151 355.916015625 151 372.142578125 184 c 1,52,-1
 397.512695312 79 l 1,53,54
 373.2265625 33 373.2265625 33 338.475585938 3 c 128,-1,55
 303.723632812 -27 303.723632812 -27 267.723632812 -27 c 0,56,57
 229.723632812 -27 229.723632812 -27 196.004882812 9.5 c 128,-1,58
 162.286132812 46 162.286132812 46 159.947265625 107 c 1,59,60
 136.286132812 46 136.286132812 46 102.004882812 9.5 c 128,-1,61
 67.7236328125 -27 67.7236328125 -27 31.7236328125 -27 c 0,17,18
EndSplineSet
EndChar

StartChar: b
Encoding: 98 98 259
Width: 512
VWidth: 2441
GlyphClass: 2
Flags: HW
AnchorPoint: "Anchor-2" 480 0 basechar 0
AnchorPoint: "Anchor-0" 656.757 1116 basechar 0
LayerCount: 2
Fore
SplineSet
229.84765625 119 m 0,0,1
 257.84765625 119 257.84765625 119 283.668945312 130.5 c 128,-1,2
 309.490234375 142 309.490234375 142 333.642578125 184 c 128,-1,3
 357.794921875 226 357.794921875 226 381.970703125 315.5 c 128,-1,4
 406.145507812 405 406.145507812 405 430.537109375 559 c 0,5,6
 459.99609375 745 459.99609375 745 459.805664062 838.5 c 128,-1,7
 459.614257812 932 459.614257812 932 438.578125 966.5 c 128,-1,8
 417.54296875 1001 417.54296875 1001 379.54296875 1001 c 0,9,10
 342.54296875 1001 342.54296875 1001 305.366210938 962 c 128,-1,11
 268.188476562 923 268.188476562 923 233.166992188 825 c 128,-1,12
 198.145507812 727 198.145507812 727 170.745117188 554 c 0,13,14
 134 322 134 322 148.923828125 220.5 c 128,-1,15
 163.84765625 119 163.84765625 119 229.84765625 119 c 0,0,1
225.723632812 -27 m 0,16,17
 179.723632812 -27 179.723632812 -27 141.850585938 18 c 128,-1,18
 103.978515625 63 103.978515625 63 104.282226562 147 c 1,19,-1
 69 0 l 1,20,-1
 -28 0 l 1,21,-1
 229.216796875 1624 l 1,22,-1
 351.216796875 1624 l 1,23,-1
 348.5234375 1607 l 1,24,25
 339.306640625 1593 339.306640625 1593 334.53515625 1575.5 c 128,-1,26
 329.762695312 1558 329.762695312 1558 323.110351562 1516 c 2,27,-1
 232.672851562 945 l 1,28,29
 275.620117188 1052 275.620117188 1052 333.748046875 1097 c 128,-1,30
 391.875 1142 391.875 1142 428.875 1142 c 0,31,32
 492.875 1142 492.875 1142 530.985351562 1098.5 c 128,-1,33
 569.095703125 1055 569.095703125 1055 574.53515625 931.5 c 128,-1,34
 579.974609375 808 579.974609375 808 542.12109375 569 c 0,35,36
 503.474609375 325 503.474609375 325 451.122070312 196.5 c 128,-1,37
 398.770507812 68 398.770507812 68 339.747070312 20.5 c 128,-1,38
 280.723632812 -27 280.723632812 -27 225.723632812 -27 c 0,16,17
EndSplineSet
EndChar

StartChar: c
Encoding: 99 99 261
Width: 512
VWidth: 2441
GlyphClass: 2
Flags: HW
AnchorPoint: "Anchor-2" 245 0 basechar 0
AnchorPoint: "Anchor-0" 421.757 1116 basechar 0
LayerCount: 2
Fore
SplineSet
238.723632812 -27 m 0,0,1
 -36.2763671875 -27 -36.2763671875 -27 56.2197265625 557 c 0,2,3
 91.6982421875 781 91.6982421875 781 152.075195312 906.5 c 128,-1,4
 212.453125 1032 212.453125 1032 283.767578125 1084.5 c 128,-1,5
 355.083007812 1137 355.083007812 1137 420.083007812 1137 c 0,6,7
 575.083007812 1137 575.083007812 1137 602.583007812 976 c 1,8,-1
 530.635742188 869 l 1,9,-1
 518.309570312 848 l 1,10,-1
 504.418945312 855 l 1,11,12
 500.427734375 874 500.427734375 874 502.966796875 899.5 c 128,-1,13
 505.505859375 925 505.505859375 925 490.048828125 960 c 1,14,15
 456.809570312 1009 456.809570312 1009 397.809570312 1009 c 0,16,17
 366.809570312 1009 366.809570312 1009 323.711914062 970.5 c 128,-1,18
 280.614257812 932 280.614257812 932 240.171875 834.5 c 128,-1,19
 199.729492188 737 199.729492188 737 171.219726562 557 c 0,20,21
 130.673828125 301 130.673828125 301 156.65234375 203 c 128,-1,22
 182.629882812 105 182.629882812 105 263.629882812 105 c 0,23,24
 304.629882812 105 304.629882812 105 345.907226562 132 c 128,-1,25
 387.18359375 159 387.18359375 159 427.686523438 219 c 1,26,-1
 452.413085938 91 l 1,27,28
 406.751953125 30 406.751953125 30 351.237304688 1.5 c 128,-1,29
 295.723632812 -27 295.723632812 -27 238.723632812 -27 c 0,0,1
EndSplineSet
EndChar

StartChar: d
Encoding: 100 100 268
Width: 512
VWidth: 2441
GlyphClass: 2
Flags: HW
AnchorPoint: "Anchor-4" 536.235 1340 basechar 0
AnchorPoint: "Anchor-2" 197 0 basechar 0
AnchorPoint: "Anchor-1" 626.757 1116 basechar 0
AnchorPoint: "Anchor-0" 373.757 1116 basechar 0
LayerCount: 2
Fore
SplineSet
199.055664062 114 m 0,0,1
 234.055664062 114 234.055664062 114 268.049804688 155 c 128,-1,2
 302.04296875 196 302.04296875 196 333.485351562 293.5 c 128,-1,3
 364.928710938 391 364.928710938 391 392.329101562 564 c 0,4,5
 431.450195312 811 431.450195312 811 410.837890625 905 c 128,-1,6
 390.225585938 999 390.225585938 999 343.225585938 999 c 0,7,8
 301.225585938 999 301.225585938 999 269.158203125 967 c 128,-1,9
 237.08984375 935 237.08984375 935 208.889648438 848.5 c 128,-1,10
 180.688476562 762 180.688476562 762 154.397460938 596 c 0,11,12
 121.13671875 386 121.13671875 386 122.243164062 282.5 c 128,-1,13
 123.350585938 179 123.350585938 179 146.203125 146.5 c 128,-1,14
 169.055664062 114 169.055664062 114 199.055664062 114 c 0,0,1
153.19921875 -24 m 0,15,16
 111.19921875 -24 111.19921875 -24 78.2626953125 -1.5 c 128,-1,17
 45.326171875 21 45.326171875 21 27.962890625 85 c 128,-1,18
 10.599609375 149 10.599609375 149 12.708984375 266.5 c 128,-1,19
 14.8193359375 384 14.8193359375 384 44.12109375 569 c 0,20,21
 82.1328125 809 82.1328125 809 129.614257812 932 c 128,-1,22
 177.095703125 1055 177.095703125 1055 232.485351562 1098.5 c 128,-1,23
 287.875 1142 287.875 1142 349.875 1142 c 0,24,25
 462.875 1142 462.875 1142 456.474609375 969 c 1,26,-1
 560.216796875 1624 l 1,27,-1
 691.216796875 1624 l 1,28,-1
 688.5234375 1607 l 1,29,30
 672.306640625 1593 672.306640625 1593 666.53515625 1575.5 c 128,-1,31
 660.762695312 1558 660.762695312 1558 654.110351562 1516 c 2,32,-1
 441.400390625 173 l 2,33,34
 434.431640625 129 434.431640625 129 428.700195312 86.5 c 128,-1,35
 422.96875 44 422.96875 44 425 0 c 1,36,-1
 320 0 l 1,37,38
 315.751953125 30 315.751953125 30 315.032226562 66.5 c 128,-1,39
 314.313476562 103 314.313476562 103 321.282226562 147 c 1,40,41
 292.1953125 77 292.1953125 77 248.197265625 26.5 c 128,-1,42
 204.19921875 -24 204.19921875 -24 153.19921875 -24 c 0,15,16
EndSplineSet
EndChar

StartChar: eth
Encoding: 240 240 269
Width: 512
VWidth: 2441
GlyphClass: 1
Flags: HW
LayerCount: 2
Fore
SplineSet
213.838867188 100 m 0,0,1
 252.838867188 100 252.838867188 100 288.065429688 133 c 128,-1,2
 323.291992188 166 323.291992188 166 355.129882812 266 c 128,-1,3
 386.96875 366 386.96875 366 418.645507812 566 c 0,4,5
 456.182617188 803 456.182617188 803 433.05078125 909.5 c 128,-1,6
 410.552734375 1013.08203125 410.552734375 1013.08203125 359.350585938 1013.08203125 c 0,0,0
 357.908203125 1013.08203125 357.908203125 1013.08203125 356.443359375 1013 c 0,7,8
 310.443359375 1013 310.443359375 1013 272.529296875 972.5 c 128,-1,9
 234.614257812 932 234.614257812 932 202.909179688 836 c 128,-1,10
 171.204101562 740 171.204101562 740 143.645507812 566 c 0,11,12
 114.502929688 382 114.502929688 382 117.084960938 281.5 c 128,-1,13
 119.66796875 181 119.66796875 181 144.752929688 140.5 c 128,-1,14
 169.838867188 100 169.838867188 100 213.838867188 100 c 0,0,1
193.248046875 -30 m 0,15,16
 127.248046875 -30 127.248046875 -30 79.4052734375 21.5 c 128,-1,17
 31.5625 73 31.5625 73 17.439453125 198.5 c 128,-1,18
 3.31640625 324 3.31640625 324 38.3193359375 545 c 0,19,20
 74.1142578125 771 74.1142578125 771 123.283203125 901.5 c 128,-1,21
 172.453125 1032 172.453125 1032 233.505859375 1086 c 128,-1,22
 294.55859375 1140 294.55859375 1140 363.55859375 1140 c 0,23,24
 402.55859375 1140 402.55859375 1140 431.866210938 1123 c 128,-1,25
 461.172851562 1106 461.172851562 1106 473.095703125 1055 c 1,26,27
 471.182617188 1125 471.182617188 1125 462.377929688 1202 c 128,-1,28
 453.573242188 1279 453.573242188 1279 430.34375 1347 c 1,29,-1
 297.46484375 1272 l 1,30,-1
 272.095703125 1377 l 1,31,-1
 397.865234375 1445 l 1,32,33
 379.151367188 1491 379.151367188 1491 358.407226562 1530.5 c 128,-1,34
 337.663085938 1570 337.663085938 1570 310.573242188 1601 c 1,35,-1
 428.75 1640 l 1,36,37
 470.772460938 1577 470.772460938 1577 503.833984375 1489 c 1,38,-1
 629.080078125 1560 l 1,39,-1
 646.1328125 1453 l 1,40,-1
 534.73828125 1400 l 1,41,42
 562.424804688 1297 562.424804688 1297 569.606445312 1184.5 c 128,-1,43
 576.788085938 1072 576.788085938 1072 567.668945312 935.5 c 128,-1,44
 558.548828125 799 558.548828125 799 529.723632812 617 c 0,45,46
 489.176757812 361 489.176757812 361 440.502929688 221 c 128,-1,47
 391.829101562 81 391.829101562 81 330.5390625 25.5 c 128,-1,48
 269.248046875 -30 269.248046875 -30 193.248046875 -30 c 0,15,16
EndSplineSet
EndChar

StartChar: dcaron
Encoding: 271 271 270
Width: 512
VWidth: 2441
GlyphClass: 1
Flags: HW
LayerCount: 2
Fore
SplineSet
117.055664062 114 m 0,0,1
 135.055664062 114 135.055664062 114 160.416015625 151 c 128,-1,2
 185.776367188 188 185.776367188 188 213.797851562 286 c 128,-1,3
 241.819335938 384 241.819335938 384 270.329101562 564 c 0,4,5
 297.25390625 734 297.25390625 734 299.721679688 828.5 c 128,-1,6
 302.188476562 923 302.188476562 923 291.20703125 961 c 128,-1,7
 280.225585938 999 280.225585938 999 266.225585938 999 c 0,8,9
 236.225585938 999 236.225585938 999 212.791015625 971 c 128,-1,10
 189.356445312 943 189.356445312 943 167.235351562 857 c 128,-1,11
 145.114257812 771 145.114257812 771 117.397460938 596 c 0,12,13
 91.10546875 430 91.10546875 430 83.1630859375 332.5 c 128,-1,14
 75.220703125 235 75.220703125 235 79.35546875 188.5 c 128,-1,15
 83.490234375 142 83.490234375 142 95.2734375 128 c 128,-1,16
 107.055664062 114 107.055664062 114 117.055664062 114 c 0,0,1
74.19921875 -24 m 0,17,18
 42.19921875 -24 42.19921875 -24 19.4453125 -3.5 c 128,-1,19
 -3.3076171875 17 -3.3076171875 17 -12.646484375 78 c 128,-1,20
 -21.984375 139 -21.984375 139 -13.7158203125 257.5 c 128,-1,21
 -5.447265625 376 -5.447265625 376 25.12109375 569 c 0,22,23
 54.580078125 755 54.580078125 755 81.9775390625 868 c 128,-1,24
 109.375 981 109.375 981 137.877929688 1041 c 128,-1,25
 166.380859375 1101 166.380859375 1101 197.627929688 1121.5 c 128,-1,26
 228.875 1142 228.875 1142 266.875 1142 c 0,27,28
 350.875 1142 350.875 1142 333.266601562 974 c 1,29,-1
 436.216796875 1624 l 1,30,-1
 550.216796875 1624 l 1,31,-1
 547.5234375 1607 l 1,32,33
 533.306640625 1593 533.306640625 1593 526.53515625 1575.5 c 128,-1,34
 519.762695312 1558 519.762695312 1558 513.110351562 1516 c 2,35,-1
 300.400390625 173 l 2,36,37
 293.431640625 129 293.431640625 129 288.200195312 86.5 c 128,-1,38
 282.96875 44 282.96875 44 282 0 c 1,39,-1
 194 0 l 1,40,41
 192.276367188 27 192.276367188 27 190.899414062 62.5 c 128,-1,42
 189.521484375 98 189.521484375 98 196.490234375 142 c 1,43,44
 173.720703125 74 173.720703125 74 141.959960938 25 c 128,-1,45
 110.19921875 -24 110.19921875 -24 74.19921875 -24 c 0,17,18
625.325195312 1631 m 0,46,47
 644.325195312 1631 644.325195312 1631 653.8359375 1599.5 c 128,-1,48
 663.346679688 1568 663.346679688 1568 653.209960938 1504 c 0,49,50
 641.331054688 1429 641.331054688 1429 610.759765625 1337 c 128,-1,51
 580.188476562 1245 580.188476562 1245 521.55859375 1140 c 1,52,-1
 485.418945312 1177 l 1,53,54
 508.0703125 1219 508.0703125 1219 533.861328125 1274.5 c 128,-1,55
 559.651367188 1330 559.651367188 1330 567.887695312 1382 c 0,56,57
 573.747070312 1419 573.747070312 1419 559.944335938 1445.5 c 128,-1,58
 547.522460938 1469.34960938 547.522460938 1469.34960938 555.725585938 1521.14453125 c 0,0,0
 556.63671875 1526.90039062 556.63671875 1526.90039062 557.803710938 1533 c 0,59,60
 566.772460938 1577 566.772460938 1577 585.548828125 1604 c 128,-1,61
 604.325195312 1631 604.325195312 1631 625.325195312 1631 c 0,46,47
EndSplineSet
EndChar

StartChar: e
Encoding: 101 101 274
Width: 512
VWidth: 2441
GlyphClass: 2
Flags: HW
AnchorPoint: "Anchor-3" 309.801 24 basechar 0
AnchorPoint: "Anchor-2" 262 0 basechar 0
AnchorPoint: "Anchor-0" 389.757 1116 basechar 0
LayerCount: 2
Fore
SplineSet
185.166992188 664 m 1,0,-1
 427.166992188 664 l 1,1,2
 457.735351562 857 457.735351562 857 449.985351562 937.5 c 128,-1,3
 442.235351562 1018 442.235351562 1018 372.235351562 1018 c 0,4,5
 328.235351562 1018 328.235351562 1018 298.142578125 989 c 128,-1,6
 268.048828125 960 268.048828125 960 242.353515625 883 c 128,-1,7
 216.658203125 806 216.658203125 806 185.166992188 664 c 1,0,-1
228.19921875 -24 m 0,8,9
 87.19921875 -24 87.19921875 -24 43.3681640625 106.5 c 128,-1,10
 -0.462890625 237 -0.462890625 237 49.7451171875 554 c 0,11,12
 100.26953125 873 100.26953125 873 182.072265625 1007.5 c 128,-1,13
 263.875 1142 263.875 1142 396.875 1142 c 0,14,15
 470.875 1142 470.875 1142 514.088867188 1096 c 128,-1,16
 557.303710938 1050 557.303710938 1050 564.58984375 935 c 128,-1,17
 571.875 820 571.875 820 539.08984375 613 c 0,18,19
 535.288085938 589 535.288085938 589 532.75390625 573 c 128,-1,20
 530.219726562 557 530.219726562 557 524.2109375 538 c 1,21,-1
 162.2109375 538 l 1,22,23
 137.602539062 370 137.602539062 370 137.634765625 275.5 c 128,-1,24
 137.66796875 181 137.66796875 181 165.807617188 144 c 128,-1,25
 193.947265625 107 193.947265625 107 252.947265625 107 c 0,26,27
 303.947265625 107 303.947265625 107 335.881835938 135 c 128,-1,28
 367.81640625 163 367.81640625 163 391.46875 205 c 1,29,-1
 445.323242188 122 l 1,30,31
 400.869140625 56 400.869140625 56 346.034179688 16 c 128,-1,32
 291.19921875 -24 291.19921875 -24 228.19921875 -24 c 0,8,9
EndSplineSet
EndChar

StartChar: uni029A
Encoding: 666 666 296
Width: 512
VWidth: 2441
GlyphClass: 1
Flags: HW
LayerCount: 2
Fore
SplineSet
199.739257812 112 m 0,0,1
 250.739257812 112 250.739257812 112 286.995117188 151.5 c 128,-1,2
 323.250976562 191 323.250976562 191 354.194335938 288.5 c 128,-1,3
 385.13671875 386 385.13671875 386 412.853515625 561 c 128,-1,4
 440.571289062 736 440.571289062 736 439.592773438 834 c 128,-1,5
 438.614257812 932 438.614257812 932 415.711914062 970.5 c 128,-1,6
 392.809570312 1009 392.809570312 1009 348.809570312 1009 c 0,7,8
 257.809570312 1009 257.809570312 1009 228.984375 827 c 0,9,10
 218.213867188 759 218.213867188 759 234.190429688 711.5 c 128,-1,11
 250.166992188 664 250.166992188 664 294.166992188 664 c 0,12,13
 301.166992188 664 301.166992188 664 307.666992188 664 c 128,-1,14
 314.166992188 664 314.166992188 664 321.484375 666 c 1,15,-1
 299.46875 527 l 1,16,17
 288.78515625 529 288.78515625 529 280.260742188 532 c 128,-1,18
 271.735351562 535 271.735351562 535 259.735351562 535 c 0,19,20
 215.735351562 535 215.735351562 535 175.840820312 482 c 128,-1,21
 135.947265625 429 135.947265625 429 121.05859375 335 c 0,22,23
 86.7392578125 112 86.7392578125 112 199.739257812 112 c 0,0,1
178.990234375 -19 m 0,24,25
 79.3076171875 -17 79.3076171875 -17 31.3291015625 81 c 128,-1,26
 -16.6494140625 179 -16.6494140625 179 10.2763671875 349 c 0,27,28
 26.58984375 452 26.58984375 452 68.8349609375 523 c 128,-1,29
 111.080078125 594 111.080078125 594 160.40625 615 c 1,30,31
 132.05859375 657 132.05859375 657 121.086914062 714 c 128,-1,32
 110.114257812 771 110.114257812 771 121.04296875 840 c 0,33,34
 144.958984375 991 144.958984375 991 216.758789062 1065.5 c 128,-1,35
 288.55859375 1140 288.55859375 1140 371.55859375 1140 c 0,36,37
 501.55859375 1140 501.55859375 1140 537.09765625 1004.5 c 128,-1,38
 572.635742188 869 572.635742188 869 523.537109375 559 c 128,-1,39
 474.4375 249 474.4375 249 390.555664062 114 c 128,-1,40
 307.8984375 -19.029296875 307.8984375 -19.029296875 182.708984375 -19.029296875 c 0,0,0
 180.854492188 -19.029296875 180.854492188 -19.029296875 178.990234375 -19 c 0,24,25
EndSplineSet
EndChar

StartChar: f
Encoding: 102 102 300
Width: 512
VWidth: 2441
GlyphClass: 1
Flags: HW
LayerCount: 2
Fore
SplineSet
199.54296875 1001 m 1,0,-1
 103.54296875 1001 l 1,1,-1
 121.756835938 1116 l 1,2,-1
 217.756835938 1116 l 1,3,-1
 232.486328125 1209 l 2,4,5
 267.96484375 1433 267.96484375 1433 347.69921875 1535.5 c 128,-1,6
 427.43359375 1638 427.43359375 1638 508.43359375 1638 c 0,7,8
 554.43359375 1638 554.43359375 1638 600.994140625 1600.5 c 128,-1,9
 647.5546875 1563 647.5546875 1563 660.04296875 1484 c 1,10,-1
 591.887695312 1382 l 1,11,-1
 575.403320312 1360 l 1,12,-1
 564.986328125 1370 l 1,13,14
 565.99609375 1389 565.99609375 1389 569.53515625 1414.5 c 128,-1,15
 573.073242188 1440 573.073242188 1440 560.6171875 1475 c 1,16,17
 534.90234375 1521 534.90234375 1521 492.90234375 1521 c 0,18,19
 444.90234375 1521 444.90234375 1521 401.70703125 1444 c 128,-1,20
 358.51171875 1367 358.51171875 1367 333.486328125 1209 c 2,21,-1
 318.756835938 1116 l 1,22,-1
 468.756835938 1116 l 1,23,-1
 450.54296875 1001 l 1,24,-1
 300.54296875 1001 l 1,25,-1
 142 0 l 1,26,-1
 41 0 l 1,27,-1
 199.54296875 1001 l 1,0,-1
EndSplineSet
EndChar

StartChar: g
Encoding: 103 103 301
Width: 512
VWidth: 2298
GlyphClass: 2
Flags: HW
AnchorPoint: "Anchor-2" 154.363 -225 basechar 0
AnchorPoint: "Anchor-0" 337.391 1120 basechar 0
LayerCount: 2
Fore
SplineSet
64.4345703125 28 m 0,0,1
 52.7138671875 -46 52.7138671875 -46 81.8544921875 -83 c 128,-1,2
 110.994140625 -120 110.994140625 -120 164.994140625 -120 c 0,3,4
 231.994140625 -120 231.994140625 -120 260.329101562 -80 c 128,-1,5
 288.665039062 -40 288.665039062 -40 299.751953125 30 c 0,6,7
 311.155273438 102 311.155273438 102 298.278320312 137.5 c 128,-1,8
 285.400390625 173 285.400390625 173 227.400390625 173 c 0,9,10
 162.400390625 173 162.400390625 173 120.092773438 190 c 1,11,12
 98.18359375 159 98.18359375 159 86.060546875 123.5 c 128,-1,13
 73.9375 88 73.9375 88 64.4345703125 28 c 0,0,1
252.813476562 586 m 128,-1,15
 300.813476562 586 300.813476562 586 324.31640625 646 c 128,-1,16
 347.819335938 706 347.819335938 706 364.608398438 812 c 128,-1,17
 381.396484375 918 381.396484375 918 376.900390625 978 c 128,-1,18
 372.403320312 1038 372.403320312 1038 324.403320312 1038 c 128,-1,19
 276.403320312 1038 276.403320312 1038 252.900390625 978 c 128,-1,20
 229.396484375 918 229.396484375 918 212.608398438 812 c 128,-1,21
 195.819335938 706 195.819335938 706 200.31640625 646 c 128,-1,14
 204.813476562 586 204.813476562 586 252.813476562 586 c 128,-1,15
233.490234375 464 m 0,22,23
 198.490234375 464 198.490234375 464 173.340820312 482 c 1,24,25
 152.481445312 445 152.481445312 445 145.829101562 403 c 0,26,27
 137.592773438 351 137.592773438 351 157.633789062 326 c 128,-1,28
 177.673828125 301 177.673828125 301 264.673828125 301 c 0,29,30
 364.673828125 301 364.673828125 301 394.666015625 231.5 c 128,-1,31
 424.658203125 162 424.658203125 162 407.39453125 53 c 0,32,33
 395.357421875 -23 395.357421875 -23 363.928710938 -92 c 128,-1,34
 332.5 -161 332.5 -161 278.768554688 -203.5 c 128,-1,35
 225.037109375 -246 225.037109375 -246 145.037109375 -246 c 0,36,37
 41.037109375 -246 41.037109375 -246 -10.826171875 -182 c 128,-1,38
 -62.689453125 -118 -62.689453125 -118 -42.416015625 10 c 0,39,40
 -29.5869140625 91 -29.5869140625 91 0.861328125 147.5 c 128,-1,41
 31.310546875 204 31.310546875 204 68.5869140625 231 c 1,42,43
 33.189453125 279 33.189453125 279 46.96875 366 c 0,44,45
 54.5712890625 414 54.5712890625 414 76.619140625 458.5 c 128,-1,46
 98.6669921875 503 98.6669921875 503 127.161132812 544 c 1,47,48
 87.890625 637 87.890625 637 114.608398438 812 c 0,49,50
 140.108398438 973 140.108398438 973 201.758789062 1065.5 c 128,-1,51
 263.409179688 1158 263.409179688 1158 343.409179688 1158 c 0,52,53
 426.409179688 1158 426.409179688 1158 458.887695312 1060 c 1,54,55
 521.393554688 1148.11035156 521.393554688 1148.11035156 586.918945312 1148.11035156 c 0,56,57
 594.274414062 1148.11035156 594.274414062 1148.11035156 601.666992188 1147 c 1,58,-1
 593.393554688 1019 l 1,59,60
 561.34375 1025 561.34375 1025 531.918945312 1016 c 128,-1,61
 502.493164062 1007 502.493164062 1007 472.741210938 977 c 1,62,63
 476.337890625 905 476.337890625 905 462.608398438 812 c 0,64,65
 437.108398438 651 437.108398438 651 376.799804688 557.5 c 128,-1,66
 316.490234375 464 316.490234375 464 233.490234375 464 c 0,22,23
EndSplineSet
EndChar

StartChar: h
Encoding: 104 104 308
Width: 512
VWidth: 2441
GlyphClass: 2
Flags: HW
AnchorPoint: "Anchor-4" 277.235 1340 basechar 0
AnchorPoint: "Anchor-2" 211 0 basechar 0
AnchorPoint: "Anchor-0" 307.217 1624 basechar 0
LayerCount: 2
Fore
SplineSet
238.216796875 1624 m 1,0,-1
 370.216796875 1624 l 1,1,-1
 367.5234375 1607 l 1,2,3
 351.306640625 1593 351.306640625 1593 345.03515625 1575.5 c 128,-1,4
 338.762695312 1558 338.762695312 1558 332.110351562 1516 c 2,5,-1
 241.356445312 943 l 1,6,7
 335.5625 1142.00488281 335.5625 1142.00488281 441.8125 1142.00488281 c 0,8,9
 442.34375 1142.00488281 442.34375 1142.00488281 442.875 1142 c 0,10,11
 505.875 1142 505.875 1142 540.380859375 1101 c 128,-1,12
 574.887695312 1060 574.887695312 1060 578.311523438 958.5 c 128,-1,13
 581.735351562 857 581.735351562 857 553.068359375 676 c 2,14,-1
 446 0 l 1,15,-1
 335 0 l 1,16,-1
 441.276367188 671 l 2,17,18
 468.993164062 846 468.993164062 846 462.059570312 928.5 c 128,-1,19
 455.126953125 1011 455.126953125 1011 406.126953125 1011 c 0,20,21
 350.126953125 1011 350.126953125 1011 284.892578125 908.5 c 128,-1,22
 219.658203125 806 219.658203125 806 193.840820312 643 c 2,23,-1
 92 0 l 1,24,-1
 -19 0 l 1,25,-1
 238.216796875 1624 l 1,0,-1
EndSplineSet
EndChar

StartChar: i
Encoding: 105 105 313
Width: 512
VWidth: 2441
GlyphClass: 2
Flags: HW
AnchorPoint: "Anchor-3" 330 0 basechar 0
AnchorPoint: "Anchor-2" 214 0 basechar 0
AnchorPoint: "Anchor-0" 447.934 1477 basechar 0
LayerCount: 2
Fore
SplineSet
18 0 m 1,0,-1
 38.9072265625 132 l 1,1,-1
 182.907226562 132 l 1,2,-1
 317.692382812 983 l 1,3,-1
 180.692382812 983 l 1,4,-1
 201.756835938 1116 l 1,5,-1
 450.756835938 1116 l 1,6,-1
 294.907226562 132 l 1,7,-1
 424.907226562 132 l 1,8,-1
 404 0 l 1,9,-1
 18 0 l 1,0,-1
429.412109375 1379 m 0,10,11
 397.412109375 1379 397.412109375 1379 378.346679688 1407 c 128,-1,12
 359.28125 1435 359.28125 1435 365.6171875 1475 c 0,13,14
 372.26953125 1517 372.26953125 1517 400.125 1544.5 c 128,-1,15
 427.98046875 1572 427.98046875 1572 459.98046875 1572 c 0,16,17
 494.98046875 1572 494.98046875 1572 513.545898438 1544 c 128,-1,18
 532.110351562 1516 532.110351562 1516 525.6171875 1475 c 0,19,20
 519.440429688 1436 519.440429688 1436 491.92578125 1407.5 c 128,-1,21
 464.412109375 1379 464.412109375 1379 429.412109375 1379 c 0,10,11
EndSplineSet
Substitution2: "'locl' Localized Forms in Latin lookup 18 subtable" i.loclTRK
Substitution2: "'locl' Localized Forms in Latin lookup 17 subtable" i.loclTRK
Substitution2: "'locl' Localized Forms in Latin lookup 16 subtable" i.loclTRK
Substitution2: "'locl' Localized Forms in Latin lookup 15 subtable" i.loclTRK
Substitution2: "'locl' Localized Forms in Latin lookup 14 subtable" i.loclTRK
Substitution2: "Single Substitution lookup 4 subtable" dotlessi
Substitution2: "Single Substitution lookup 3 subtable" dotlessi
AlternateSubs2: "'aalt' Access All Alternates in Latin lookup 1 subtable" dotlessi i.loclTRK
EndChar

StartChar: dotlessi
Encoding: 305 305 314
Width: 512
VWidth: 2441
GlyphClass: 2
Flags: HW
AnchorPoint: "Anchor-3" 330 0 basechar 0
AnchorPoint: "Anchor-2" 214 0 basechar 0
AnchorPoint: "Anchor-0" 390.757 1116 basechar 0
LayerCount: 2
Fore
SplineSet
18 0 m 1,0,-1
 38.9072265625 132 l 1,1,-1
 182.907226562 132 l 1,2,-1
 317.692382812 983 l 1,3,-1
 180.692382812 983 l 1,4,-1
 201.756835938 1116 l 1,5,-1
 450.756835938 1116 l 1,6,-1
 294.907226562 132 l 1,7,-1
 424.907226562 132 l 1,8,-1
 404 0 l 1,9,-1
 18 0 l 1,0,-1
EndSplineSet
EndChar

StartChar: j
Encoding: 106 106 329
Width: 512
VWidth: 2362
GlyphClass: 2
Flags: HW
AnchorPoint: "Anchor-2" 170.336 -282 basechar 0
AnchorPoint: "Anchor-0" 537.359 1486 basechar 0
LayerCount: 2
Fore
SplineSet
92.037109375 -246 m 0,0,1
 43.037109375 -246 43.037109375 -246 -2.08203125 -221.5 c 128,-1,2
 -47.2021484375 -197 -47.2021484375 -197 -72.4404296875 -148 c 1,3,-1
 5.7236328125 -27 l 1,4,-1
 18.0498046875 -6 l 1,5,-1
 30.94140625 -13 l 1,6,7
 35.248046875 -30 35.248046875 -30 33.8427734375 -51.5 c 128,-1,8
 32.4375 -73 32.4375 -73 49.5283203125 -104 c 1,9,10
 71.0439453125 -126 71.0439453125 -126 112.884765625 -127 c 0,11,12
 214.884765625 -127 214.884765625 -127 263.66796875 181 c 2,13,-1
 399.0859375 1036 l 1,14,-1
 197.0859375 1036 l 1,15,-1
 216.250976562 1157 l 1,16,-1
 518.250976562 1157 l 1,17,-1
 364.934570312 189 l 2,18,19
 338.16796875 20 338.16796875 20 299.700195312 -74.5 c 128,-1,20
 261.233398438 -169 261.233398438 -169 210.634765625 -207.5 c 128,-1,21
 160.037109375 -246 160.037109375 -246 92.037109375 -246 c 0,0,1
520.104492188 1396 m 0,22,23
 491.104492188 1396 491.104492188 1396 474.22265625 1422 c 128,-1,24
 457.340820312 1448 457.340820312 1448 462.883789062 1483 c 0,25,26
 468.90234375 1521 468.90234375 1521 494.44140625 1546.5 c 128,-1,27
 519.98046875 1572 519.98046875 1572 547.98046875 1572 c 0,28,29
 578.98046875 1572 578.98046875 1572 596.44140625 1546.5 c 128,-1,30
 613.90234375 1521 613.90234375 1521 607.883789062 1483 c 0,31,32
 602.182617188 1447 602.182617188 1447 576.643554688 1421.5 c 128,-1,33
 551.104492188 1396 551.104492188 1396 520.104492188 1396 c 0,22,23
EndSplineSet
Substitution2: "Single Substitution lookup 4 subtable" uni0237
Substitution2: "Single Substitution lookup 3 subtable" uni0237
Substitution2: "'aalt' Access All Alternates in Latin lookup 0 subtable" uni0237
EndChar

StartChar: uni0237
Encoding: 567 567 330
Width: 512
VWidth: 2286
GlyphClass: 2
Flags: HW
AnchorPoint: "Anchor-2" 161.494 -281 basechar 0
AnchorPoint: "Anchor-0" 467.757 1116 basechar 0
LayerCount: 2
Fore
SplineSet
85.037109375 -246 m 0,0,1
 38.037109375 -246 38.037109375 -246 -5.740234375 -222.5 c 128,-1,2
 -49.5185546875 -199 -49.5185546875 -199 -74.916015625 -151 c 1,3,-1
 1.7734375 -33 l 1,4,-1
 13.94140625 -13 l 1,5,-1
 25.990234375 -19 l 1,6,7
 29.2978515625 -36 29.2978515625 -36 28.4716796875 -57 c 128,-1,8
 27.646484375 -78 27.646484375 -78 43.89453125 -108 c 1,9,10
 64.568359375 -129 64.568359375 -129 105.41015625 -130 c 0,11,12
 204.41015625 -130 204.41015625 -130 251.608398438 168 c 2,13,-1
 383.225585938 999 l 1,14,-1
 187.225585938 999 l 1,15,-1
 205.756835938 1116 l 1,16,-1
 498.756835938 1116 l 1,17,-1
 350.034179688 177 l 2,18,19
 324.05859375 13 324.05859375 13 286.987304688 -79 c 128,-1,20
 249.916015625 -171 249.916015625 -171 200.4765625 -208.5 c 128,-1,21
 151.037109375 -246 151.037109375 -246 85.037109375 -246 c 0,0,1
EndSplineSet
EndChar

StartChar: k
Encoding: 107 107 332
Width: 512
VWidth: 2441
GlyphClass: 2
Flags: HW
AnchorPoint: "Anchor-2" 184 0 basechar 0
AnchorPoint: "Anchor-0" 274.217 1624 basechar 0
LayerCount: 2
Fore
SplineSet
210.78515625 529 m 1,0,-1
 136.037109375 398 l 1,1,-1
 67 0 l 1,2,-1
 -35 0 l 1,3,-1
 222.216796875 1624 l 1,4,-1
 345.216796875 1624 l 1,5,-1
 342.5234375 1607 l 1,6,7
 327.306640625 1593 327.306640625 1593 320.53515625 1575.5 c 128,-1,8
 313.762695312 1558 313.762695312 1558 307.110351562 1516 c 2,9,-1
 162.189453125 601 l 1,10,-1
 481.548828125 1121 l 1,11,12
 493.756835938 1116 493.756835938 1116 516.703125 1112.5 c 128,-1,13
 539.6484375 1109 539.6484375 1109 554.6484375 1109 c 2,14,-1
 584.6484375 1109 l 1,15,-1
 297.474609375 647 l 1,16,-1
 445 0 l 1,17,-1
 336.416015625 -10 l 1,18,-1
 210.78515625 529 l 1,0,-1
EndSplineSet
EndChar

StartChar: kgreenlandic
Encoding: 312 312 334
Width: 512
VWidth: 2441
GlyphClass: 2
Flags: HW
AnchorPoint: "Anchor-2" 190 0 basechar 0
AnchorPoint: "Anchor-0" 200.757 1116 basechar 0
LayerCount: 2
Fore
SplineSet
210.78515625 529 m 1,0,-1
 136.037109375 398 l 1,1,-1
 67 0 l 1,2,-1
 -35 0 l 1,3,-1
 141.756835938 1116 l 1,4,-1
 264.756835938 1116 l 1,5,-1
 262.064453125 1099 l 1,6,7
 246.846679688 1085 246.846679688 1085 240.075195312 1067.5 c 128,-1,8
 233.303710938 1050 233.303710938 1050 226.809570312 1009 c 2,9,-1
 162.189453125 601 l 1,10,-1
 481.548828125 1121 l 1,11,12
 493.756835938 1116 493.756835938 1116 516.703125 1112.5 c 128,-1,13
 539.6484375 1109 539.6484375 1109 554.6484375 1109 c 2,14,-1
 584.6484375 1109 l 1,15,-1
 297.474609375 647 l 1,16,-1
 445 0 l 1,17,-1
 336.416015625 -10 l 1,18,-1
 210.78515625 529 l 1,0,-1
EndSplineSet
EndChar

StartChar: l
Encoding: 108 108 335
Width: 512
VWidth: 2441
GlyphClass: 2
Flags: HW
AnchorPoint: "Anchor-4" 302.537 559 basechar 0
AnchorPoint: "Anchor-2" 214 0 basechar 0
AnchorPoint: "Anchor-1" 671.757 1116 basechar 0
AnchorPoint: "Anchor-0" 471.217 1624 basechar 0
LayerCount: 2
Fore
SplineSet
4 0 m 1,0,-1
 24.9072265625 132 l 1,1,-1
 180.907226562 132 l 1,2,-1
 396.151367188 1491 l 1,3,-1
 247.151367188 1491 l 1,4,-1
 268.216796875 1624 l 1,5,-1
 527.216796875 1624 l 1,6,-1
 290.907226562 132 l 1,7,-1
 441.907226562 132 l 1,8,-1
 421 0 l 1,9,-1
 4 0 l 1,0,-1
EndSplineSet
EndChar

StartChar: ldot
Encoding: 320 320 339
Width: 512
VWidth: 2441
GlyphClass: 1
Flags: HW
LayerCount: 2
Fore
SplineSet
495.344726562 703 m 128,-1,1
 458.344726562 703 458.344726562 703 438.412109375 735 c 128,-1,2
 418.48046875 767 418.48046875 767 425.450195312 811 c 128,-1,3
 432.418945312 855 432.418945312 855 462.908203125 886.5 c 128,-1,4
 493.396484375 918 493.396484375 918 529.396484375 918 c 0,5,6
 566.396484375 918 566.396484375 918 586.908203125 886.5 c 128,-1,7
 607.418945312 855 607.418945312 855 600.450195312 811 c 128,-1,8
 593.48046875 767 593.48046875 767 562.912109375 735 c 128,-1,0
 532.344726562 703 532.344726562 703 495.344726562 703 c 128,-1,1
-8 0 m 1,9,-1
 12.9072265625 132 l 1,10,-1
 150.907226562 132 l 1,11,-1
 366.151367188 1491 l 1,12,-1
 235.151367188 1491 l 1,13,-1
 256.216796875 1624 l 1,14,-1
 498.216796875 1624 l 1,15,-1
 261.907226562 132 l 1,16,-1
 429.907226562 132 l 1,17,-1
 409 0 l 1,18,-1
 -8 0 l 1,9,-1
EndSplineSet
EndChar

StartChar: uni01C9
Encoding: 457 457 341
Width: 512
VWidth: 2368
GlyphClass: 1
Flags: HW
LayerCount: 2
Fore
SplineSet
142.037109375 -246 m 0,0,1
 93.037109375 -246 93.037109375 -246 56.630859375 -217 c 128,-1,2
 20.2236328125 -188 20.2236328125 -188 2.8759765625 -146 c 1,3,-1
 82.099609375 -12 l 1,4,5
 88.7236328125 -27 88.7236328125 -27 86.560546875 -37.5 c 128,-1,6
 84.3974609375 -48 84.3974609375 -48 90.259765625 -61.5 c 128,-1,7
 96.12109375 -75 96.12109375 -75 119.002929688 -101 c 0,8,9
 130.260742188 -112 130.260742188 -112 142.126953125 -116 c 128,-1,10
 153.994140625 -120 153.994140625 -120 168.994140625 -120 c 0,11,12
 225.994140625 -120 225.994140625 -120 264.447265625 -54 c 128,-1,13
 302.900390625 12 302.900390625 12 329.826171875 182 c 2,14,-1
 465.561523438 1039 l 1,15,-1
 309.561523438 1039 l 1,16,-1
 328.725585938 1160 l 1,17,-1
 584.725585938 1160 l 1,18,-1
 431.092773438 190 l 2,19,20
 404.16796875 20 404.16796875 20 362.700195312 -74.5 c 128,-1,21
 321.233398438 -169 321.233398438 -169 265.793945312 -206.5 c 128,-1,22
 210.354492188 -244 210.354492188 -244 142.037109375 -246 c 0,0,1
555.896484375 1401 m 0,23,24
 526.896484375 1401 526.896484375 1401 510.435546875 1426.5 c 128,-1,25
 493.974609375 1452 493.974609375 1452 499.67578125 1488 c 0,26,27
 505.694335938 1526 505.694335938 1526 530.733398438 1551.5 c 128,-1,28
 555.772460938 1577 555.772460938 1577 583.772460938 1577 c 0,29,30
 614.772460938 1577 614.772460938 1577 632.233398438 1551.5 c 128,-1,31
 649.694335938 1526 649.694335938 1526 643.67578125 1488 c 0,32,33
 637.974609375 1452 637.974609375 1452 612.435546875 1426.5 c 128,-1,34
 586.896484375 1401 586.896484375 1401 555.896484375 1401 c 0,23,24
-49.66796875 141 m 1,35,-1
 -30.5029296875 262 l 1,36,-1
 34.4970703125 262 l 1,37,-1
 231.051757812 1503 l 1,38,-1
 173.051757812 1503 l 1,39,-1
 192.216796875 1624 l 1,40,-1
 349.216796875 1624 l 1,41,-1
 133.497070312 262 l 1,42,-1
 260.497070312 262 l 1,43,-1
 241.33203125 141 l 1,44,-1
 -49.66796875 141 l 1,35,-1
EndSplineSet
EndChar

StartChar: lslash
Encoding: 322 322 343
Width: 512
VWidth: 2441
GlyphClass: 1
Flags: HW
LayerCount: 2
Fore
SplineSet
4 0 m 1,0,-1
 24.9072265625 132 l 1,1,-1
 175.907226562 132 l 1,2,-1
 263.493164062 685 l 1,3,-1
 170.198242188 620 l 1,4,-1
 195.22265625 778 l 1,5,-1
 288.834960938 845 l 1,6,-1
 391.151367188 1491 l 1,7,-1
 247.151367188 1491 l 1,8,-1
 268.216796875 1624 l 1,9,-1
 527.216796875 1624 l 1,10,-1
 413.49609375 906 l 1,11,-1
 523.166992188 986 l 1,12,-1
 496.875 820 l 1,13,-1
 387.99609375 745 l 1,14,-1
 290.907226562 132 l 1,15,-1
 441.907226562 132 l 1,16,-1
 421 0 l 1,17,-1
 4 0 l 1,0,-1
EndSplineSet
EndChar

StartChar: m
Encoding: 109 109 344
Width: 512
VWidth: 2441
GlyphClass: 2
Flags: HW
AnchorPoint: "Anchor-2" 186 0 basechar 0
AnchorPoint: "Anchor-0" 630.757 1116 basechar 0
LayerCount: 2
Fore
SplineSet
-52 0 m 1,0,-1
 124.756835938 1116 l 1,1,-1
 226.756835938 1116 l 1,2,-1
 209.334960938 1006 l 1,3,4
 231.99609375 1067 231.99609375 1067 257.935546875 1104.5 c 128,-1,5
 283.875 1142 283.875 1142 312.875 1142 c 0,6,7
 345.875 1142 345.875 1142 360.588867188 1096 c 128,-1,8
 375.303710938 1050 375.303710938 1050 370.05859375 979 c 1,9,10
 394.620117188 1052 394.620117188 1052 433.248046875 1097 c 128,-1,11
 471.875 1142 471.875 1142 506.875 1142 c 0,12,13
 556.875 1142 556.875 1142 572.6796875 1065 c 0,14,15
 586.088867188 999.666992188 586.088867188 999.666992188 569.583984375 895.45703125 c 0,16,17
 566.63671875 876.848632812 566.63671875 876.848632812 562.735351562 857 c 1,18,-1
 427 0 l 1,19,-1
 324 0 l 1,20,-1
 449.440429688 792 l 2,21,22
 465.75390625 895 465.75390625 895 472.356445312 943 c 128,-1,23
 478.958984375 991 478.958984375 991 475.993164062 1007 c 128,-1,24
 473.02734375 1023 473.02734375 1023 461.02734375 1023 c 0,25,26
 442.02734375 1023 442.02734375 1023 421.3203125 977.5 c 128,-1,27
 400.614257812 932 400.614257812 932 383.240234375 866.5 c 128,-1,28
 365.866210938 801 365.866210938 801 355.729492188 737 c 2,29,-1
 239 0 l 1,30,-1
 136 0 l 1,31,-1
 258.90625 776 l 2,32,33
 280.921875 915 280.921875 915 286.078125 966.5 c 128,-1,34
 291.235351562 1018 291.235351562 1018 268.235351562 1018 c 0,35,36
 253.235351562 1018 253.235351562 1018 220.435546875 943.5 c 128,-1,37
 187.635742188 869 187.635742188 869 167.99609375 745 c 2,38,-1
 50 0 l 1,39,-1
 -52 0 l 1,0,-1
EndSplineSet
EndChar

StartChar: n
Encoding: 110 110 346
Width: 512
VWidth: 2441
GlyphClass: 2
Flags: HW
AnchorPoint: "Anchor-2" 223 0 basechar 0
AnchorPoint: "Anchor-0" 406.757 1116 basechar 0
LayerCount: 2
Fore
SplineSet
-19 0 m 1,0,-1
 157.756835938 1116 l 1,1,-1
 268.756835938 1116 l 1,2,-1
 241.356445312 943 l 1,3,4
 335.5625 1142.00488281 335.5625 1142.00488281 449.732421875 1142.00488281 c 0,5,6
 450.303710938 1142.00488281 450.303710938 1142.00488281 450.875 1142 c 0,7,8
 508.875 1142 508.875 1142 542.990234375 1108 c 128,-1,9
 577.104492188 1074 577.104492188 1074 581.479492188 978.5 c 128,-1,10
 585.853515625 883 585.853515625 883 557.02734375 701 c 2,11,-1
 446 0 l 1,12,-1
 335 0 l 1,13,-1
 445.235351562 696 l 2,14,15
 472.953125 871 472.953125 871 464.040039062 941 c 128,-1,16
 455.126953125 1011 455.126953125 1011 406.126953125 1011 c 0,17,18
 350.126953125 1011 350.126953125 1011 286.396484375 918 c 128,-1,19
 222.666992188 825 222.666992188 825 197.484375 666 c 2,20,-1
 92 0 l 1,21,-1
 -19 0 l 1,0,-1
EndSplineSet
EndChar

StartChar: eng
Encoding: 331 331 352
Width: 512
VWidth: 2288
GlyphClass: 1
Flags: HW
LayerCount: 2
Fore
SplineSet
149.037109375 -246 m 0,0,1
 89.037109375 -246 89.037109375 -246 55.2236328125 -188 c 1,2,-1
 111.705078125 -65 l 1,3,4
 122.388671875 -67 122.388671875 -67 124.170898438 -81 c 128,-1,5
 125.953125 -95 125.953125 -95 133.657226562 -109.5 c 128,-1,6
 141.360351562 -124 141.360351562 -124 170.360351562 -124 c 0,7,8
 224.360351562 -124 224.360351562 -124 260.748046875 -30 c 128,-1,9
 297.13671875 64 297.13671875 64 323.428710938 230 c 2,10,-1
 401.987304688 726 l 2,11,12
 421.78515625 851 421.78515625 851 422.421875 915 c 128,-1,13
 423.05859375 979 423.05859375 979 408.122070312 1001.5 c 128,-1,14
 393.185546875 1024 393.185546875 1024 368.185546875 1024 c 0,15,16
 316.185546875 1024 316.185546875 1024 258.693359375 932.5 c 128,-1,17
 201.201171875 841 201.201171875 841 179.02734375 701 c 2,18,-1
 89.0654296875 133 l 1,19,-1
 -8.9345703125 133 l 1,20,-1
 147.232421875 1119 l 1,21,-1
 245.232421875 1119 l 1,22,-1
 220.999023438 966 l 1,23,24
 266.412109375 1057 266.412109375 1057 306.143554688 1099.5 c 128,-1,25
 345.875 1142 345.875 1142 401.875 1142 c 0,26,27
 444.875 1142 444.875 1142 476.806640625 1110 c 128,-1,28
 508.73828125 1078 508.73828125 1078 516.221679688 989.5 c 128,-1,29
 523.704101562 901 523.704101562 901 496.62109375 730 c 2,30,-1
 421.229492188 254 l 2,31,32
 391.611328125 67 391.611328125 67 350.84765625 -42 c 128,-1,33
 310.083984375 -151 310.083984375 -151 258.560546875 -198.5 c 128,-1,34
 207.037109375 -246 207.037109375 -246 149.037109375 -246 c 0,0,1
EndSplineSet
EndChar

StartChar: o
Encoding: 111 111 355
Width: 512
VWidth: 2441
GlyphClass: 2
Flags: HW
AnchorPoint: "Anchor-4" 281.537 559 basechar 0
AnchorPoint: "Anchor-3" 237.801 24 basechar 0
AnchorPoint: "Anchor-2" 193 0 basechar 0
AnchorPoint: "Anchor-1" 484.68 1065 basechar 0
AnchorPoint: "Anchor-0" 369.757 1116 basechar 0
LayerCount: 2
Fore
SplineSet
210.739257812 112 m 128,-1,1
 273.739257812 112 273.739257812 112 323.315429688 213.5 c 128,-1,2
 372.890625 315 372.890625 315 411.853515625 561 c 0,3,4
 452.083007812 815 452.083007812 815 432.946289062 912 c 128,-1,5
 413.809570312 1009 413.809570312 1009 352.809570312 1009 c 0,6,7
 293.809570312 1009 293.809570312 1009 241.446289062 912 c 128,-1,8
 189.083007812 815 189.083007812 815 148.853515625 561 c 0,9,10
 109.732421875 314 109.732421875 314 128.736328125 213 c 128,-1,0
 147.739257812 112 147.739257812 112 210.739257812 112 c 128,-1,1
189.990234375 -19 m 0,11,12
 119.990234375 -19 119.990234375 -19 73.8603515625 37 c 128,-1,13
 27.7294921875 93 27.7294921875 93 17.3447265625 220 c 128,-1,14
 6.958984375 347 6.958984375 347 40.537109375 559 c 0,15,16
 74.58984375 774 74.58984375 774 125.204101562 901 c 128,-1,17
 175.819335938 1028 175.819335938 1028 239.688476562 1084 c 128,-1,18
 303.55859375 1140 303.55859375 1140 373.55859375 1140 c 128,-1,19
 443.55859375 1140 443.55859375 1140 488.188476562 1084 c 128,-1,20
 532.819335938 1028 532.819335938 1028 543.704101562 901 c 128,-1,21
 554.58984375 774 554.58984375 774 520.537109375 559 c 0,22,23
 470.329101562 242 470.329101562 242 383.66015625 111.5 c 128,-1,24
 296.990234375 -19 296.990234375 -19 189.990234375 -19 c 0,11,12
EndSplineSet
Substitution2: "Single Substitution lookup 29 subtable" ordmasculine
Substitution2: "'aalt' Access All Alternates in Latin lookup 0 subtable" ordmasculine
EndChar

StartChar: oslash
Encoding: 248 248 383
Width: 512
VWidth: 2441
GlyphClass: 2
Flags: HW
AnchorPoint: "Anchor-4" 281.537 559 basechar 0
AnchorPoint: "Anchor-3" 237.801 24 basechar 0
AnchorPoint: "Anchor-2" 193 0 basechar 0
AnchorPoint: "Anchor-1" 484.68 1065 basechar 0
AnchorPoint: "Anchor-0" 369.757 1116 basechar 0
LayerCount: 2
Fore
SplineSet
210.739257812 112 m 0,0,1
 273.739257812 112 273.739257812 112 323.315429688 213.5 c 128,-1,2
 372.890625 315 372.890625 315 411.853515625 561 c 0,3,4
 441.313476562 747 441.313476562 747 436.943359375 852 c 1,5,-1
 142.5 161 l 1,6,7
 164.739257812 112 164.739257812 112 210.739257812 112 c 0,0,1
148.853515625 561 m 0,8,9
 122.561523438 395 122.561523438 395 123.881835938 296 c 1,10,-1
 412.266601562 974 l 1,11,12
 389.809570312 1009 389.809570312 1009 352.809570312 1009 c 0,13,14
 293.809570312 1009 293.809570312 1009 241.446289062 912 c 128,-1,15
 189.083007812 815 189.083007812 815 148.853515625 561 c 0,8,9
26.9443359375 -114 m 1,16,-1
 -40.4130859375 -91 l 1,17,-1
 39.8388671875 100 l 1,18,19
 16.2919921875 166 16.2919921875 166 15.2685546875 279.5 c 128,-1,20
 14.2451171875 393 14.2451171875 393 40.537109375 559 c 0,21,22
 74.58984375 774 74.58984375 774 125.204101562 901 c 128,-1,23
 175.819335938 1028 175.819335938 1028 239.688476562 1084 c 128,-1,24
 303.55859375 1140 303.55859375 1140 373.55859375 1140 c 0,25,26
 430.55859375 1140 430.55859375 1140 468.172851562 1106 c 1,27,-1
 529.98046875 1250 l 1,28,-1
 596.020507812 1225 l 1,29,-1
 516.245117188 1037 l 1,30,31
 542.474609375 969 542.474609375 969 545.6015625 853 c 128,-1,32
 548.729492188 737 548.729492188 737 520.537109375 559 c 0,33,34
 470.329101562 242 470.329101562 242 383.16015625 111.5 c 128,-1,35
 295.990234375 -19 295.990234375 -19 189.990234375 -19 c 0,36,37
 126.990234375 -19 126.990234375 -19 85.326171875 21 c 1,38,-1
 26.9443359375 -114 l 1,16,-1
EndSplineSet
EndChar

StartChar: oe
Encoding: 339 339 389
Width: 512
VWidth: 2441
GlyphClass: 1
Flags: HW
LayerCount: 2
Fore
SplineSet
74.421875 110 m 128,-1,1
 93.421875 110 93.421875 110 109.411132812 141.5 c 128,-1,2
 125.400390625 173 125.400390625 173 132.369140625 217 c 0,3,4
 133.161132812 222 133.161132812 222 134.299804688 235.5 c 128,-1,5
 135.4375 249 135.4375 249 137.239257812 273 c 0,6,7
 152.639648438 446 152.639648438 446 174.021484375 581 c 0,8,9
 196.51171875 723 196.51171875 723 212.916015625 795 c 128,-1,10
 229.319335938 867 229.319335938 867 231.853515625 883 c 0,11,12
 239.138671875 929 239.138671875 929 236.078125 966.5 c 128,-1,13
 233.017578125 1004 233.017578125 1004 214.017578125 1004 c 0,14,15
 201.017578125 1004 201.017578125 1004 179.419921875 965.5 c 128,-1,16
 157.822265625 927 157.822265625 927 134.409179688 836 c 128,-1,17
 110.99609375 745 110.99609375 745 85.337890625 583 c 0,18,19
 56.6708984375 402 56.6708984375 402 47.857421875 299 c 128,-1,20
 39.04296875 196 39.04296875 196 47.232421875 153 c 128,-1,0
 55.421875 110 55.421875 110 74.421875 110 c 128,-1,1
282.384765625 678 m 1,21,-1
 400.384765625 678 l 1,22,23
 427.78515625 851 427.78515625 851 430.8515625 933.5 c 128,-1,24
 433.918945312 1016 433.918945312 1016 389.918945312 1016 c 0,25,26
 352.918945312 1016 352.918945312 1016 330.243164062 926.5 c 128,-1,27
 307.567382812 837 307.567382812 837 282.384765625 678 c 1,21,-1
256.248046875 -30 m 0,28,29
 185.248046875 -30 185.248046875 -30 153.869140625 56 c 1,30,31
 99.7236328125 -27 99.7236328125 -27 42.7236328125 -27 c 0,32,33
 18.7236328125 -27 18.7236328125 -27 -3.1337890625 -4 c 128,-1,34
 -24.990234375 19 -24.990234375 19 -36.75 80.5 c 128,-1,35
 -48.509765625 142 -48.509765625 142 -44.3740234375 256.5 c 128,-1,36
 -40.2392578125 371 -40.2392578125 371 -10.7802734375 557 c 0,37,38
 25.0146484375 783 25.0146484375 783 63.4716796875 909 c 128,-1,39
 101.927734375 1035 101.927734375 1035 145.005859375 1086 c 128,-1,40
 188.083007812 1137 188.083007812 1137 235.083007812 1137 c 0,41,42
 294.083007812 1137 294.083007812 1137 311.561523438 1039 c 1,43,44
 364.083007812 1137 364.083007812 1137 426.083007812 1137 c 0,45,46
 467.083007812 1137 467.083007812 1137 489.748046875 1097 c 128,-1,47
 512.412109375 1057 512.412109375 1057 513.127929688 960.5 c 128,-1,48
 513.84375 864 513.84375 864 486.443359375 691 c 2,49,-1
 462.52734375 540 l 1,50,-1
 258.52734375 540 l 1,51,52
 233.126953125 367 233.126953125 367 226.421875 271 c 128,-1,53
 219.716796875 175 219.716796875 175 231.515625 139 c 128,-1,54
 243.313476562 103 243.313476562 103 269.313476562 103 c 0,55,56
 299.313476562 103 299.313476562 103 327.407226562 132 c 128,-1,57
 355.5 161 355.5 161 379.78515625 207 c 1,58,-1
 397.313476562 103 l 1,59,60
 325.248046875 -30 325.248046875 -30 256.248046875 -30 c 0,28,29
EndSplineSet
EndChar

StartChar: p
Encoding: 112 112 390
Width: 512
VWidth: 2304
GlyphClass: 2
Flags: HW
AnchorPoint: "Anchor-2" 219.848 119 basechar 0
AnchorPoint: "Anchor-0" 378.074 1118 basechar 0
LayerCount: 2
Fore
SplineSet
231.736328125 213 m 0,0,1
 258.736328125 213 258.736328125 213 282.874023438 226.5 c 128,-1,2
 307.012695312 240 307.012695312 240 328.84765625 280 c 128,-1,3
 350.682617188 320 350.682617188 320 372.01171875 401 c 128,-1,4
 393.340820312 482 393.340820312 482 415.198242188 620 c 0,5,6
 441.6484375 787 441.6484375 787 442.532226562 871.5 c 128,-1,7
 443.415039062 956 443.415039062 956 422.166992188 986 c 128,-1,8
 400.918945312 1016 400.918945312 1016 361.918945312 1016 c 0,9,10
 307.918945312 1016 307.918945312 1016 251.73828125 917 c 128,-1,11
 195.55859375 818 195.55859375 818 158.655273438 585 c 0,12,13
 127.7109375 377 127.7109375 377 149.223632812 295 c 128,-1,14
 170.736328125 213 170.736328125 213 231.736328125 213 c 0,0,1
-71.962890625 -246 m 1,15,-1
 144.07421875 1118 l 1,16,-1
 243.07421875 1118 l 1,17,-1
 218.999023438 966 l 1,18,19
 247.877929688 1041 247.877929688 1041 296.217773438 1090.5 c 128,-1,20
 344.55859375 1140 344.55859375 1140 397.55859375 1140 c 0,21,22
 443.55859375 1140 443.55859375 1140 476.127929688 1121.5 c 128,-1,23
 508.698242188 1103 508.698242188 1103 528.3828125 1050.5 c 128,-1,24
 548.067382812 998 548.067382812 998 545.491210938 896.5 c 128,-1,25
 542.916015625 795 542.916015625 795 516.1484375 626 c 0,26,27
 482.887695312 416 482.887695312 416 440.515625 300 c 128,-1,28
 398.142578125 184 398.142578125 184 344.857421875 138 c 128,-1,29
 291.571289062 92 291.571289062 92 226.571289062 92 c 0,30,31
 176.571289062 92 176.571289062 92 143.723632812 134 c 128,-1,32
 110.875976562 176 110.875976562 176 105.595703125 250 c 1,33,-1
 27.037109375 -246 l 1,34,-1
 -71.962890625 -246 l 1,15,-1
EndSplineSet
EndChar

StartChar: thorn
Encoding: 254 254 391
Width: 512
VWidth: 2374
GlyphClass: 1
Flags: HW
LayerCount: 2
Fore
SplineSet
242.794921875 226 m 0,0,1
 269.794921875 226 269.794921875 226 294.432617188 239.5 c 128,-1,2
 319.071289062 253 319.071289062 253 341.64453125 294.5 c 128,-1,3
 364.216796875 336 364.216796875 336 385.86328125 419 c 128,-1,4
 407.508789062 502 407.508789062 502 430 644 c 0,5,6
 457.083007812 815 457.083007812 815 458.362304688 902 c 128,-1,7
 459.642578125 989 459.642578125 989 437.551757812 1020 c 128,-1,8
 415.461914062 1051 415.461914062 1051 375.461914062 1051 c 0,9,10
 319.461914062 1051 319.461914062 1051 262.385742188 949.5 c 128,-1,11
 205.309570312 848 205.309570312 848 167.297851562 608 c 0,12,13
 135.403320312 394 135.403320312 394 157.599609375 310 c 128,-1,14
 179.794921875 226 179.794921875 226 242.794921875 226 c 0,0,1
226.216796875 1624 m 1,15,-1
 347.216796875 1624 l 1,16,-1
 344.682617188 1608 l 1,17,18
 329.623046875 1595 329.623046875 1595 324.088867188 1579 c 128,-1,19
 318.5546875 1563 318.5546875 1563 312.536132812 1525 c 2,20,-1
 229.225585938 999 l 1,21,22
 259.421875 1076 259.421875 1076 308.999023438 1127 c 128,-1,23
 358.577148438 1178 358.577148438 1178 411.577148438 1178 c 0,24,25
 458.577148438 1178 458.577148438 1178 492.646484375 1159.5 c 128,-1,26
 526.716796875 1141 526.716796875 1141 546.584960938 1086.5 c 128,-1,27
 566.453125 1032 566.453125 1032 564.48046875 928 c 128,-1,28
 562.508789062 824 562.508789062 824 534.950195312 650 c 0,29,30
 500.739257812 434 500.739257812 434 456.890625 315 c 128,-1,31
 413.04296875 196 413.04296875 196 358.599609375 149 c 128,-1,32
 304.155273438 102 304.155273438 102 237.155273438 102 c 0,33,34
 185.155273438 102 185.155273438 102 151.38671875 144.5 c 128,-1,35
 117.618164062 187 117.618164062 187 112.813476562 264 c 1,36,-1
 32.037109375 -246 l 1,37,-1
 -69.962890625 -246 l 1,38,-1
 226.216796875 1624 l 1,15,-1
EndSplineSet
EndChar

StartChar: q
Encoding: 113 113 392
Width: 512
VWidth: 2305
GlyphClass: 1
Flags: HW
LayerCount: 2
Fore
SplineSet
208.794921875 226 m 0,0,1
 265.794921875 226 265.794921875 226 315.791992188 327 c 128,-1,2
 365.788085938 428 365.788085938 428 400.474609375 647 c 0,3,4
 433.1015625 853 433.1015625 853 411.381835938 940 c 128,-1,5
 389.661132812 1027 389.661132812 1027 339.661132812 1027 c 0,6,7
 272.661132812 1027 272.661132812 1027 227.643554688 938.5 c 128,-1,8
 182.626953125 850 182.626953125 850 147.624023438 629 c 0,9,10
 113.571289062 414 113.571289062 414 127.682617188 320 c 128,-1,11
 141.794921875 226 141.794921875 226 208.794921875 226 c 0,0,1
261.037109375 -246 m 1,12,-1
 339.754882812 251 l 1,13,14
 305.608398438 168 305.608398438 168 264.327148438 131.5 c 128,-1,15
 226.181640625 97.7724609375 226.181640625 97.7724609375 180.997070312 97.7724609375 c 0,0,0
 177.283203125 97.7724609375 177.283203125 97.7724609375 173.521484375 98 c 0,16,17
 67.1552734375 102 67.1552734375 102 35.6904296875 228.5 c 128,-1,18
 4.2265625 355 4.2265625 355 46.5146484375 622 c 0,19,20
 73.2822265625 791 73.2822265625 791 106.016601562 893.5 c 128,-1,21
 138.750976562 996 138.750976562 996 176.461914062 1051 c 128,-1,22
 214.172851562 1106 214.172851562 1106 257.340820312 1126 c 128,-1,23
 300.508789062 1146 300.508789062 1146 345.508789062 1146 c 0,24,25
 404.508789062 1146 404.508789062 1146 428.088867188 1096 c 128,-1,26
 451.669921875 1046 451.669921875 1046 454.999023438 966 c 1,27,-1
 479.232421875 1119 l 1,28,-1
 575.232421875 1119 l 1,29,-1
 359.037109375 -246 l 1,30,-1
 261.037109375 -246 l 1,12,-1
EndSplineSet
EndChar

StartChar: r
Encoding: 114 114 393
Width: 512
VWidth: 2441
GlyphClass: 2
Flags: HW
AnchorPoint: "Anchor-2" 229 0 basechar 0
AnchorPoint: "Anchor-0" 450.074 1118 basechar 0
LayerCount: 2
Fore
SplineSet
165.756835938 1116 m 1,0,-1
 290.756835938 1116 l 1,1,-1
 258.297851562 930 l 1,2,3
 304.719726562 1040 304.719726562 1040 370.797851562 1091 c 128,-1,4
 436.875 1142 436.875 1142 492.875 1142 c 0,5,6
 591.875 1142 591.875 1142 630.551757812 1020 c 1,7,-1
 569.853515625 883 l 1,8,-1
 561.051757812 859 l 1,9,-1
 544.84375 864 l 1,10,11
 538.853515625 883 538.853515625 883 542.288085938 911 c 128,-1,12
 545.72265625 939 545.72265625 939 525.94921875 972 c 0,13,14
 495.918945312 1016 495.918945312 1016 465.918945312 1016 c 0,15,16
 426.918945312 1016 426.918945312 1016 373.31640625 968 c 128,-1,17
 319.713867188 920 319.713867188 920 273.325195312 826 c 128,-1,18
 226.9375 732 226.9375 732 204.60546875 591 c 2,19,-1
 110.68359375 -2 l 1,20,-1
 -11.31640625 -2 l 1,21,-1
 165.756835938 1116 l 1,0,-1
EndSplineSet
EndChar

StartChar: uni027B
Encoding: 635 635 399
Width: 512
VWidth: 2281
GlyphClass: 1
Flags: HW
LayerCount: 2
Fore
SplineSet
274.037109375 -246 m 0,0,1
 245.037109375 -246 245.037109375 -246 213.076171875 -220.5 c 128,-1,2
 181.115234375 -195 181.115234375 -195 168.092773438 -132 c 128,-1,3
 155.071289062 -69 155.071289062 -69 173.286132812 46 c 2,4,-1
 212.713867188 276 l 1,5,6
 181.092773438 190 181.092773438 190 140.7578125 150 c 128,-1,7
 100.421875 110 100.421875 110 57.421875 110 c 0,8,9
 24.421875 110 24.421875 110 0.4560546875 126 c 128,-1,10
 -23.509765625 142 -23.509765625 142 -40.95703125 196 c 1,11,-1
 8.0498046875 316 l 1,12,-1
 16.5341796875 338 l 1,13,-1
 25.216796875 336 l 1,14,15
 26.841796875 321 26.841796875 321 25.228515625 304.5 c 128,-1,16
 23.6142578125 288 23.6142578125 288 30.921875 271 c 0,17,18
 46.4873046875 243 46.4873046875 243 82.4873046875 243 c 0,19,20
 130.487304688 243 130.487304688 243 180.791992188 327 c 128,-1,21
 231.095703125 411 231.095703125 411 260.397460938 596 c 2,22,-1
 343.07421875 1118 l 1,23,-1
 448.07421875 1118 l 1,24,-1
 278.286132812 46 l 2,25,26
 252.944335938 -114 252.944335938 -114 306.944335938 -114 c 0,27,28
 316.944335938 -114 316.944335938 -114 328.236328125 -109 c 128,-1,29
 339.528320312 -104 339.528320312 -104 347.112304688 -94 c 0,30,31
 357.170898438 -81 357.170898438 -81 361.729492188 -68 c 128,-1,32
 366.2890625 -55 366.2890625 -55 374.60546875 -53 c 1,33,-1
 378.540039062 -186 l 1,34,35
 352.997070312 -221 352.997070312 -221 329.017578125 -233.5 c 128,-1,36
 305.037109375 -246 305.037109375 -246 274.037109375 -246 c 0,0,1
EndSplineSet
EndChar

StartChar: uni024D
Encoding: 589 589 402
Width: 512
VWidth: 2441
GlyphClass: 2
Flags: HW
AnchorPoint: "Anchor-2" 205 0 basechar 0
AnchorPoint: "Anchor-0" 422.074 1118 basechar 0
LayerCount: 2
Fore
SplineSet
12.521484375 420 m 1,0,-1
 34.2197265625 557 l 1,1,-1
 70.2197265625 557 l 1,2,-1
 158.756835938 1116 l 1,3,-1
 274.756835938 1116 l 1,4,-1
 243.297851562 930 l 1,5,6
 287.719726562 1040 287.719726562 1040 349.297851562 1091 c 128,-1,7
 410.875 1142 410.875 1142 461.875 1142 c 0,8,9
 553.875 1142 553.875 1142 587.551757812 1020 c 1,10,-1
 529.853515625 883 l 1,11,-1
 522.051757812 859 l 1,12,-1
 507.84375 864 l 1,13,14
 501.853515625 883 501.853515625 883 505.288085938 911 c 128,-1,15
 508.72265625 939 508.72265625 939 490.94921875 972 c 0,16,17
 463.918945312 1016 463.918945312 1016 435.918945312 1016 c 0,18,19
 399.918945312 1016 399.918945312 1016 349.81640625 968 c 128,-1,20
 299.713867188 920 299.713867188 920 255.825195312 826 c 128,-1,21
 211.9375 732 211.9375 732 189.60546875 591 c 2,22,-1
 184.219726562 557 l 1,23,-1
 335.219726562 557 l 1,24,-1
 313.521484375 420 l 1,25,-1
 162.521484375 420 l 1,26,-1
 95.68359375 -2 l 1,27,-1
 -18.31640625 -2 l 1,28,-1
 48.521484375 420 l 1,29,-1
 12.521484375 420 l 1,0,-1
EndSplineSet
EndChar

StartChar: s
Encoding: 115 115 403
Width: 512
VWidth: 2441
GlyphClass: 1
Flags: HW
LayerCount: 2
Fore
SplineSet
186.19921875 -24 m 0,0,1
 88.19921875 -24 88.19921875 -24 40.92578125 9 c 128,-1,2
 -6.34765625 42 -6.34765625 42 -31.37890625 86 c 1,3,-1
 43.052734375 215 l 1,4,-1
 53.537109375 237 l 1,5,-1
 66.7451171875 232 l 1,6,7
 71.052734375 215 71.052734375 215 71.3310546875 191.5 c 128,-1,8
 71.6083984375 168 71.6083984375 168 89.015625 139 c 1,9,10
 115.213867188 115 115.213867188 115 145.129882812 105 c 128,-1,11
 175.046875 95 175.046875 95 207.046875 95 c 0,12,13
 263.046875 95 263.046875 95 305.599609375 149 c 128,-1,14
 348.15234375 203 348.15234375 203 363.515625 300 c 0,15,16
 374.602539062 370 374.602539062 370 359.80859375 415.5 c 128,-1,17
 345.015625 461 345.015625 461 282.458984375 508 c 0,18,19
 190.545898438 578 190.545898438 578 141.950195312 650 c 128,-1,20
 93.353515625 722 93.353515625 722 114.418945312 855 c 0,21,22
 134.05859375 979 134.05859375 979 203.466796875 1060.5 c 128,-1,23
 272.875 1142 272.875 1142 389.875 1142 c 0,24,25
 557.875 1142 557.875 1142 587.958984375 991 c 1,26,-1
 510.745117188 876 l 1,27,-1
 498.418945312 855 l 1,28,-1
 484.52734375 862 l 1,29,30
 480.537109375 881 480.537109375 881 487.313476562 908 c 0,31,32
 488.06640625 911 488.06640625 911 488.560546875 914.123046875 c 0,33,34
 492.518554688 939.111328125 492.518554688 939.111328125 479.94921875 972 c 1,35,36
 450.055664062 1025.01855469 450.055664062 1025.01855469 380.91796875 1025.01855469 c 0,37,38
 379.637695312 1025.01855469 379.637695312 1025.01855469 378.34375 1025 c 0,39,40
 308.34375 1025 308.34375 1025 274.8203125 977.5 c 128,-1,41
 241.297851562 930 241.297851562 930 231.953125 871 c 0,42,43
 223.083007812 815 223.083007812 815 228.540039062 780 c 128,-1,44
 233.99609375 745 233.99609375 745 260.427734375 713 c 128,-1,45
 286.859375 681 286.859375 681 339.416015625 634 c 0,46,47
 399.337890625 583 399.337890625 583 435.056640625 546.5 c 128,-1,48
 470.776367188 510 470.776367188 510 483.515625 461 c 128,-1,49
 496.25390625 412 496.25390625 412 482.31640625 324 c 0,50,51
 452.857421875 138 452.857421875 138 372.028320312 57 c 128,-1,52
 291.19921875 -24 291.19921875 -24 186.19921875 -24 c 0,0,1
EndSplineSet
EndChar

StartChar: germandbls
Encoding: 223 223 414
Width: 512
VWidth: 2441
GlyphClass: 1
Flags: HW
LayerCount: 2
Fore
SplineSet
231.19921875 -24 m 0,0,1
 199.19921875 -24 199.19921875 -24 166.995117188 -9.5 c 128,-1,2
 134.791992188 5 134.791992188 5 114.54296875 35 c 1,3,-1
 173.291992188 166 l 1,4,5
 198.10546875 108 198.10546875 108 245.947265625 107 c 0,6,7
 279.947265625 107 279.947265625 107 308.866210938 157 c 128,-1,8
 337.78515625 207 337.78515625 207 362.431640625 290 c 128,-1,9
 387.077148438 373 387.077148438 373 402.598632812 471 c 0,10,11
 417.01171875 562 417.01171875 562 416.916015625 634 c 128,-1,12
 416.819335938 706 416.819335938 706 393.288085938 750 c 128,-1,13
 369.756835938 794 369.756835938 794 308.756835938 794 c 2,14,-1
 274.756835938 794 l 1,15,-1
 295.188476562 923 l 1,16,-1
 336.188476562 923 l 2,17,18
 422.188476562 923 422.188476562 923 465.5859375 1197 c 0,19,20
 485.225585938 1321 485.225585938 1321 477.584960938 1408.5 c 128,-1,21
 469.943359375 1496 469.943359375 1496 415.943359375 1496 c 0,22,23
 363.943359375 1496 363.943359375 1496 318.169921875 1368 c 128,-1,24
 272.396484375 1240 272.396484375 1240 240.245117188 1037 c 2,25,-1
 76 0 l 1,26,-1
 -40 0 l 1,27,-1
 123.453125 1032 l 2,28,29
 160.198242188 1264 160.198242188 1264 207.946289062 1395 c 128,-1,30
 255.694335938 1526 255.694335938 1526 311.66796875 1579.5 c 128,-1,31
 367.641601562 1633 367.641601562 1633 426.641601562 1633 c 0,32,33
 525.641601562 1633 525.641601562 1633 570.51171875 1528 c 128,-1,34
 615.380859375 1423 615.380859375 1423 580.6953125 1204 c 0,35,36
 564.064453125 1099 564.064453125 1099 532.626953125 1011 c 128,-1,37
 501.188476562 923 501.188476562 923 450.745117188 876 c 1,38,39
 502.567382812 837 502.567382812 837 522.36328125 741 c 128,-1,40
 542.158203125 645 542.158203125 645 510.005859375 442 c 0,41,42
 471.360351562 198 471.360351562 198 393.279296875 87 c 128,-1,43
 315.19921875 -24 315.19921875 -24 231.19921875 -24 c 0,0,1
EndSplineSet
EndChar

StartChar: t
Encoding: 116 116 415
Width: 512
VWidth: 2441
GlyphClass: 2
Flags: HW
AnchorPoint: "Anchor-4" 271.688 762 basechar 0
AnchorPoint: "Anchor-2" 245 0 basechar 0
AnchorPoint: "Anchor-1" 445.757 1116 basechar 0
AnchorPoint: "Anchor-0" 411.965 1433 basechar 0
LayerCount: 2
Fore
SplineSet
273.248046875 -30 m 0,0,1
 203.248046875 -30 203.248046875 -30 170.197265625 26.5 c 128,-1,2
 137.145507812 83 137.145507812 83 143.502929688 221 c 0,3,4
 148.309570312 325.341796875 148.309570312 325.341796875 174.705078125 491.99609375 c 0,5,6
 183.219726562 545.755859375 183.219726562 545.755859375 193.981445312 606 c 2,7,-1
 254.672851562 945 l 1,8,-1
 127.672851562 945 l 1,9,-1
 148.421875 1076 l 1,10,-1
 277.421875 1076 l 1,11,-1
 334.0546875 1402 l 1,12,-1
 455.380859375 1423 l 1,13,-1
 481.172851562 1428 l 1,14,-1
 480.48046875 1411 l 1,15,16
 468.788085938 1394 468.788085938 1394 456.936523438 1376 c 128,-1,17
 445.0859375 1358 445.0859375 1358 436.43359375 1316 c 2,18,-1
 388.421875 1076 l 1,19,-1
 570.421875 1076 l 1,20,-1
 549.672851562 945 l 1,21,-1
 369.672851562 945 l 1,22,-1
 305.080078125 594 l 2,23,24
 293.489257812 531.482421875 293.489257812 531.482421875 284.948242188 477.559570312 c 0,25,26
 258.106445312 308.0859375 258.106445312 308.0859375 261.3984375 223.5 c 0,27,28
 265.739257812 112 265.739257812 112 316.739257812 112 c 0,29,30
 357.739257812 112 357.739257812 112 396.940429688 148 c 128,-1,31
 436.142578125 184 436.142578125 184 463.052734375 215 c 1,32,-1
 470.829101562 81 l 1,33,34
 420.16796875 20 420.16796875 20 370.708007812 -5 c 128,-1,35
 321.248046875 -30 321.248046875 -30 273.248046875 -30 c 0,0,1
EndSplineSet
EndChar

StartChar: tbar
Encoding: 359 359 416
Width: 512
VWidth: 2441
GlyphClass: 2
Flags: HW
AnchorPoint: "Anchor-4" 271.688 762 basechar 0
AnchorPoint: "Anchor-2" 245 0 basechar 0
AnchorPoint: "Anchor-1" 445.757 1116 basechar 0
AnchorPoint: "Anchor-0" 411.965 1433 basechar 0
LayerCount: 2
Fore
SplineSet
273.248046875 -30 m 0,0,1
 206.248046875 -30 206.248046875 -30 172.66796875 20 c 128,-1,2
 139.086914062 70 139.086914062 70 142.305664062 194.5 c 0,3,4
 145.029296875 299.845703125 145.029296875 299.845703125 172.657226562 474.284179688 c 0,5,6
 177.680664062 506 177.680664062 506 183.52734375 540 c 1,7,-1
 65.52734375 540 l 1,8,-1
 87.068359375 676 l 1,9,-1
 207.068359375 676 l 1,10,-1
 254.672851562 945 l 1,11,-1
 127.672851562 945 l 1,12,-1
 148.421875 1076 l 1,13,-1
 277.421875 1076 l 1,14,-1
 334.0546875 1402 l 1,15,-1
 455.380859375 1423 l 1,16,-1
 481.172851562 1428 l 1,17,-1
 480.48046875 1411 l 1,18,19
 468.788085938 1394 468.788085938 1394 456.936523438 1376 c 128,-1,20
 445.0859375 1358 445.0859375 1358 436.43359375 1316 c 2,21,-1
 388.421875 1076 l 1,22,-1
 570.421875 1076 l 1,23,-1
 549.672851562 945 l 1,24,-1
 369.672851562 945 l 1,25,-1
 320.068359375 676 l 1,26,-1
 485.068359375 676 l 1,27,-1
 463.52734375 540 l 1,28,-1
 296.52734375 540 l 1,29,30
 288.85546875 497.407226562 288.85546875 497.407226562 282.821289062 459.307617188 c 0,31,32
 256.26953125 291.666992188 256.26953125 291.666992188 261.418945312 211 c 0,33,34
 267.739257812 112 267.739257812 112 316.739257812 112 c 0,35,36
 357.739257812 112 357.739257812 112 396.940429688 148 c 128,-1,37
 436.142578125 184 436.142578125 184 463.052734375 215 c 1,38,-1
 470.829101562 81 l 1,39,40
 420.16796875 20 420.16796875 20 370.708007812 -5 c 128,-1,41
 321.248046875 -30 321.248046875 -30 273.248046875 -30 c 0,0,1
EndSplineSet
EndChar

StartChar: u
Encoding: 117 117 423
Width: 512
VWidth: 2441
GlyphClass: 2
Flags: HW
AnchorPoint: "Anchor-3" 367 0 basechar 0
AnchorPoint: "Anchor-2" 179 0 basechar 0
AnchorPoint: "Anchor-1" 602.757 1116 basechar 0
AnchorPoint: "Anchor-0" 380.757 1116 basechar 0
LayerCount: 2
Fore
SplineSet
174.723632812 -27 m 0,0,1
 106.723632812 -27 106.723632812 -27 69.900390625 12 c 128,-1,2
 33.0771484375 51 33.0771484375 51 31.81640625 163 c 128,-1,3
 30.5556640625 275 30.5556640625 275 65.2421875 494 c 2,4,-1
 165.756835938 1116 l 1,5,-1
 287.756835938 1116 l 1,6,-1
 189.2421875 494 l 2,7,8
 166.750976562 352 166.750976562 352 160.16015625 272.5 c 128,-1,9
 153.568359375 193 153.568359375 193 160.4453125 157.5 c 128,-1,10
 167.323242188 122 167.323242188 122 181.4765625 113.5 c 128,-1,11
 195.629882812 105 195.629882812 105 218.629882812 105 c 0,12,13
 264.629882812 105 264.629882812 105 313.073242188 202.5 c 128,-1,14
 361.515625 300 361.515625 300 393.350585938 501 c 2,15,-1
 490.756835938 1116 l 1,16,-1
 611.756835938 1116 l 1,17,-1
 462.400390625 173 l 2,18,19
 455.431640625 129 455.431640625 129 450.200195312 86.5 c 128,-1,20
 444.96875 44 444.96875 44 448 0 c 1,21,-1
 335 0 l 1,22,23
 331.65234375 42 331.65234375 42 333.141601562 73.5 c 128,-1,24
 334.629882812 105 334.629882812 105 341.282226562 147 c 1,25,26
 315.403320312 72 315.403320312 72 276.563476562 22.5 c 128,-1,27
 237.723632812 -27 237.723632812 -27 174.723632812 -27 c 0,0,1
EndSplineSet
EndChar

StartChar: v
Encoding: 118 118 446
Width: 512
VWidth: 2441
GlyphClass: 2
Flags: HW
AnchorPoint: "Anchor-2" 199 0 basechar 0
AnchorPoint: "Anchor-0" 375.757 1116 basechar 0
LayerCount: 2
Fore
SplineSet
146 0 m 1,0,-1
 133.756835938 1116 l 1,1,-1
 243.756835938 1116 l 1,2,-1
 248.297851562 286 l 1,3,-1
 374.583007812 654 l 2,4,5
 421.96484375 789 421.96484375 789 452.600585938 903.5 c 128,-1,6
 483.235351562 1018 483.235351562 1018 507.756835938 1116 c 1,7,-1
 613.756835938 1116 l 1,8,9
 588.443359375 1013 588.443359375 1013 551.620117188 891 c 128,-1,10
 514.797851562 769 514.797851562 769 467.306640625 627 c 2,11,-1
 252 0 l 1,12,-1
 146 0 l 1,0,-1
EndSplineSet
EndChar

StartChar: w
Encoding: 119 119 447
Width: 512
VWidth: 2441
GlyphClass: 2
Flags: HW
AnchorPoint: "Anchor-2" 163 0 basechar 0
AnchorPoint: "Anchor-0" 339.757 1116 basechar 0
LayerCount: 2
Fore
SplineSet
5.68359375 -2 m 1,0,-1
 98.7568359375 1116 l 1,1,-1
 193.756835938 1116 l 1,2,-1
 120.297851562 286 l 1,3,-1
 268.60546875 913 l 1,4,-1
 360.60546875 913 l 1,5,-1
 328.297851562 286 l 1,6,7
 366.6484375 465 366.6484375 465 397.544921875 628.5 c 128,-1,8
 428.440429688 792 428.440429688 792 449.446289062 912 c 128,-1,9
 470.453125 1032 470.453125 1032 477.896484375 1079 c 2,10,-1
 483.756835938 1116 l 1,11,-1
 578.756835938 1116 l 1,12,13
 519.775390625 832 519.775390625 832 460.166015625 553.5 c 128,-1,14
 400.555664062 275 400.555664062 275 333.68359375 -2 c 1,15,-1
 221.68359375 -2 l 1,16,-1
 269.990234375 625 l 1,17,-1
 115.68359375 -2 l 1,18,-1
 5.68359375 -2 l 1,0,-1
EndSplineSet
EndChar

StartChar: x
Encoding: 120 120 452
Width: 512
VWidth: 2441
GlyphClass: 2
Flags: HW
AnchorPoint: "Anchor-2" 199 0 basechar 0
AnchorPoint: "Anchor-0" 375.757 1116 basechar 0
LayerCount: 2
Fore
SplineSet
-40 0 m 1,0,-1
 229.645507812 566 l 1,1,-1
 140.756835938 1116 l 1,2,-1
 245.756835938 1116 l 1,3,-1
 311.145507812 727 l 1,4,-1
 491.756835938 1116 l 1,5,-1
 592.756835938 1116 l 1,6,-1
 342.75390625 573 l 1,7,-1
 440 0 l 1,8,-1
 330 0 l 1,9,-1
 260.9375 410 l 1,10,-1
 69 0 l 1,11,-1
 -40 0 l 1,0,-1
EndSplineSet
EndChar

StartChar: y
Encoding: 121 121 453
Width: 512
VWidth: 2286
GlyphClass: 2
Flags: HW
AnchorPoint: "Anchor-2" 336.432 129 basechar 0
AnchorPoint: "Anchor-0" 367.757 1116 basechar 0
LayerCount: 2
Fore
SplineSet
16.037109375 -246 m 0,0,1
 -53.962890625 -246 -53.962890625 -246 -84.658203125 -162 c 1,2,-1
 -32.869140625 -56 l 1,3,-1
 -23.54296875 -35 l 1,4,-1
 -11.65234375 -42 l 1,5,6
 -3.0283203125 -57 -3.0283203125 -57 -2.353515625 -78 c 128,-1,7
 -1.6796875 -99 -1.6796875 -99 18.0439453125 -126 c 1,8,9
 30.41015625 -130 30.41015625 -130 38.41015625 -130 c 0,10,11
 81.41015625 -130 81.41015625 -130 105.497070312 -60 c 128,-1,12
 129.583984375 10 129.583984375 10 171.490234375 142 c 1,13,-1
 182.2421875 172 l 1,14,-1
 138.756835938 1116 l 1,15,-1
 246.756835938 1116 l 1,16,-1
 270.639648438 446 l 1,17,-1
 359.51171875 723 l 2,18,19
 392.192382812 822 392.192382812 822 422.134765625 919.5 c 128,-1,20
 452.077148438 1017 452.077148438 1017 473.756835938 1116 c 1,21,-1
 576.756835938 1116 l 1,22,23
 553.077148438 1017 553.077148438 1017 520.421875 915 c 128,-1,24
 487.766601562 813 487.766601562 813 454.76953125 712 c 2,25,-1
 221.850585938 18 l 2,26,27
 173.043945312 -126 173.043945312 -126 120.540039062 -186 c 128,-1,28
 68.037109375 -246 68.037109375 -246 16.037109375 -246 c 0,0,1
EndSplineSet
EndChar

StartChar: z
Encoding: 122 122 463
Width: 512
VWidth: 2441
GlyphClass: 2
Flags: HW
AnchorPoint: "Anchor-2" 265 0 basechar 0
AnchorPoint: "Anchor-0" 441.757 1116 basechar 0
LayerCount: 2
Fore
SplineSet
-17.3701171875 105 m 1,0,-1
 447.375 981 l 1,1,-1
 148.375 981 l 1,2,-1
 169.756835938 1116 l 1,3,-1
 592.756835938 1116 l 1,4,-1
 576.126953125 1011 l 1,5,-1
 118.907226562 132 l 1,6,-1
 360.907226562 132 l 2,7,8
 401.907226562 132 401.907226562 132 419.198242188 137 c 128,-1,9
 436.490234375 142 436.490234375 142 452.708007812 156 c 1,10,-1
 470.708007812 156 l 1,11,-1
 446 0 l 1,12,-1
 -34 0 l 1,13,-1
 -17.3701171875 105 l 1,0,-1
EndSplineSet
EndChar

StartChar: u.i
Encoding: 65539 -1 468
Width: 512
VWidth: 2441
GlyphClass: 2
Flags: HW
AnchorPoint: "Anchor-3" 330 0 basechar 0
AnchorPoint: "Anchor-2" 158 0 basechar 0
AnchorPoint: "Anchor-1" 548.757 1116 basechar 0
AnchorPoint: "Anchor-0" 341.757 1116 basechar 0
LayerCount: 2
Fore
SplineSet
136.723632812 -27 m 0,0,1
 70.7236328125 -27 70.7236328125 -27 36.400390625 12 c 128,-1,2
 2.0771484375 51 2.0771484375 51 0.31640625 163 c 0,3,4
 -1.2802734375 264.581054688 -1.2802734375 264.581054688 28.7490234375 454.181640625 c 0,5,6
 31.8291015625 473.627929688 31.8291015625 473.627929688 35.2421875 494 c 2,7,-1
 136.756835938 1116 l 1,8,-1
 250.756835938 1116 l 1,9,-1
 152.2421875 494 l 2,10,11
 129.750976562 352 129.750976562 352 123.66015625 272.5 c 128,-1,12
 117.568359375 193 117.568359375 193 122.9453125 157.5 c 128,-1,13
 128.323242188 122 128.323242188 122 142.9765625 113.5 c 128,-1,14
 157.629882812 105 157.629882812 105 176.629882812 105 c 0,15,16
 220.629882812 105 220.629882812 105 267.573242188 202.5 c 128,-1,17
 314.515625 300 314.515625 300 346.350585938 501 c 2,18,-1
 443.756835938 1116 l 1,19,-1
 560.756835938 1116 l 1,20,-1
 411.400390625 173 l 2,21,22
 404.431640625 129 404.431640625 129 398.700195312 86.5 c 128,-1,23
 392.96875 44 392.96875 44 395 0 c 1,24,-1
 290 0 l 1,25,26
 286.65234375 42 286.65234375 42 287.641601562 73.5 c 128,-1,27
 288.629882812 105 288.629882812 105 295.282226562 147 c 1,28,29
 269.403320312 72 269.403320312 72 232.063476562 22.5 c 128,-1,30
 194.723632812 -27 194.723632812 -27 136.723632812 -27 c 0,0,1
EndSplineSet
EndChar

StartChar: r.serif
Encoding: 65540 -1 469
Width: 512
VWidth: 2441
GlyphClass: 1
Flags: HW
LayerCount: 2
Fore
SplineSet
-0.31640625 -2 m 1,0,-1
 20.58984375 130 l 1,1,-1
 79.58984375 130 l 1,2,-1
 214.692382812 983 l 1,3,-1
 157.692382812 983 l 1,4,-1
 178.756835938 1116 l 1,5,-1
 358.756835938 1116 l 1,6,-1
 326.822265625 927 l 1,7,8
 368.551757812 1020 368.551757812 1020 415.555664062 1080 c 128,-1,9
 462.55859375 1140 462.55859375 1140 520.55859375 1140 c 0,10,11
 601.55859375 1140 601.55859375 1140 641.551757812 1020 c 1,12,-1
 574.943359375 852 l 1,13,14
 559.735351562 857 559.735351562 857 555.45703125 880.5 c 128,-1,15
 551.1796875 904 551.1796875 904 547.614257812 932 c 128,-1,16
 544.048828125 960 544.048828125 960 529.795898438 980.5 c 128,-1,17
 515.54296875 1001 515.54296875 1001 479.54296875 1001 c 0,18,19
 446.54296875 1001 446.54296875 1001 403.643554688 938.5 c 128,-1,20
 360.745117188 876 360.745117188 876 323.90625 776 c 128,-1,21
 287.068359375 676 287.068359375 676 268.853515625 561 c 2,22,-1
 200.58984375 130 l 1,23,-1
 293.58984375 130 l 1,24,-1
 272.68359375 -2 l 1,25,-1
 -0.31640625 -2 l 1,0,-1
EndSplineSet
EndChar

StartChar: ordfeminine
Encoding: 170 170 470
Width: 512
VWidth: 2441
GlyphClass: 1
Flags: HW
LayerCount: 2
Fore
SplineSet
80.2509765625 513 m 1,0,-1
 507.250976562 513 l 1,1,-1
 488.245117188 393 l 1,2,-1
 61.2451171875 393 l 1,3,-1
 80.2509765625 513 l 1,0,-1
257.279296875 892 m 0,4,5
 234.471679688 748 234.471679688 748 302.313476562 747 c 0,6,7
 405.313476562 747 405.313476562 747 460.204101562 1062 c 1,8,9
 433.99609375 1067 433.99609375 1067 407.99609375 1067 c 0,10,11
 349.99609375 1067 349.99609375 1067 311.556640625 1029.5 c 128,-1,12
 273.1171875 992 273.1171875 992 257.279296875 892 c 0,4,5
269.098632812 632 m 0,13,14
 201.098632812 632 201.098632812 632 174.661132812 705 c 128,-1,15
 148.22265625 778 148.22265625 778 164.853515625 883 c 0,16,17
 192.5703125 1058 192.5703125 1058 260.311523438 1119.5 c 128,-1,18
 328.051757812 1181 328.051757812 1181 420.051757812 1181 c 0,19,20
 444.051757812 1181 444.051757812 1181 477.943359375 1174 c 1,21,22
 498.750976562 1318 498.750976562 1318 489.01171875 1367 c 128,-1,23
 479.272460938 1416 479.272460938 1416 421.272460938 1416 c 0,24,25
 370.272460938 1416 370.272460938 1416 310.977539062 1351 c 1,26,-1
 281.390625 1442 l 1,27,28
 320.04296875 1484 320.04296875 1484 360.422851562 1508.5 c 128,-1,29
 400.803710938 1533 400.803710938 1533 448.803710938 1533 c 0,30,31
 516.803710938 1533 516.803710938 1533 549.91796875 1499 c 128,-1,32
 583.033203125 1465 583.033203125 1465 584.961914062 1373 c 128,-1,33
 586.890625 1281 586.890625 1281 559.6484375 1109 c 2,34,-1
 487.266601562 652 l 1,35,-1
 400.266601562 652 l 1,36,-1
 419.114257812 771 l 1,37,38
 384.493164062 685 384.493164062 685 345.295898438 658.5 c 128,-1,39
 306.098632812 632 306.098632812 632 269.098632812 632 c 0,13,14
EndSplineSet
EndChar

StartChar: ordmasculine
Encoding: 186 186 471
Width: 512
VWidth: 2441
GlyphClass: 1
Flags: HW
LayerCount: 2
Fore
SplineSet
80.2509765625 513 m 1,0,-1
 507.250976562 513 l 1,1,-1
 488.245117188 393 l 1,2,-1
 61.2451171875 393 l 1,3,-1
 80.2509765625 513 l 1,0,-1
332.788085938 750 m 0,4,5
 381.788085938 750 381.788085938 750 415.587890625 824.5 c 128,-1,6
 449.387695312 899 449.387695312 899 478.688476562 1084 c 0,7,8
 509.256835938 1277 509.256835938 1277 497.16015625 1349 c 128,-1,9
 485.064453125 1421 485.064453125 1421 439.064453125 1421 c 0,10,11
 395.064453125 1421 395.064453125 1421 357.66015625 1349 c 128,-1,12
 320.256835938 1277 320.256835938 1277 289.688476562 1084 c 0,13,14
 260.229492188 898 260.229492188 898 273.508789062 824 c 128,-1,15
 286.788085938 750 286.788085938 750 332.788085938 750 c 0,4,5
315.048828125 638 m 128,-1,17
 229.048828125 638 229.048828125 638 190.25390625 734 c 128,-1,18
 151.458984375 830 151.458984375 830 191.213867188 1081 c 0,19,20
 218.614257812 1254 218.614257812 1254 258.71484375 1352.5 c 128,-1,21
 298.815429688 1451 298.815429688 1451 349.809570312 1492 c 128,-1,22
 400.803710938 1533 400.803710938 1533 456.803710938 1533 c 128,-1,23
 512.803710938 1533 512.803710938 1533 548.809570312 1492 c 128,-1,24
 584.815429688 1451 584.815429688 1451 593.793945312 1353 c 128,-1,25
 602.772460938 1255 602.772460938 1255 575.213867188 1081 c 0,26,27
 535.30078125 829 535.30078125 829 468.174804688 733.5 c 128,-1,16
 401.048828125 638 401.048828125 638 315.048828125 638 c 128,-1,17
EndSplineSet
EndChar

StartChar: uni2124
Encoding: 8484 8484 473
Width: 512
VWidth: 2441
GlyphClass: 1
Flags: HW
LayerCount: 2
Fore
SplineSet
601.272460938 1416 m 1,0,-1
 535.272460938 1416 l 1,1,-1
 50.3134765625 103 l 1,2,-1
 114.313476562 103 l 1,3,-1
 601.272460938 1416 l 1,0,-1
684.90234375 1521 m 1,4,-1
 666.0546875 1402 l 1,5,-1
 186.313476562 103 l 1,6,-1
 358.313476562 103 l 2,7,8
 398.313476562 103 398.313476562 103 415.026367188 107.5 c 128,-1,9
 431.739257812 112 431.739257812 112 447.956054688 126 c 1,10,-1
 463.956054688 126 l 1,11,-1
 444 0 l 1,12,-1
 -36 0 l 1,13,-1
 -17.15234375 119 l 1,14,-1
 466.272460938 1416 l 1,15,-1
 190.272460938 1416 l 1,16,-1
 206.90234375 1521 l 1,17,-1
 684.90234375 1521 l 1,4,-1
EndSplineSet
EndChar

StartChar: zero
Encoding: 48 48 474
Width: 512
VWidth: 2441
GlyphClass: 1
Flags: HW
LayerCount: 2
Fore
SplineSet
221.421875 110 m 0,0,1
 278.421875 110 278.421875 110 333.337890625 261 c 128,-1,2
 388.25390625 412 388.25390625 412 442.10546875 752 c 0,3,4
 457.151367188 847 457.151367188 847 468.297851562 930 c 1,5,-1
 159.176757812 361 l 1,6,7
 154.270507812 229 154.270507812 229 172.345703125 169.5 c 128,-1,8
 190.421875 110 190.421875 110 221.421875 110 c 0,0,1
202.10546875 752 m 0,9,10
 183.57421875 635 183.57421875 635 172.735351562 535 c 1,11,-1
 485.282226562 1113 l 1,12,13
 500.788085938 1394 500.788085938 1394 424.788085938 1394 c 0,14,15
 374.788085938 1394 374.788085938 1394 314.104492188 1235 c 128,-1,16
 253.421875 1076 253.421875 1076 202.10546875 752 c 0,9,10
199.723632812 -27 m 0,17,18
 89.7236328125 -27 89.7236328125 -27 53.4453125 157.5 c 128,-1,19
 17.1669921875 342 17.1669921875 342 82.10546875 752 c 0,20,21
 145.142578125 1150 145.142578125 1150 241.314453125 1340.5 c 128,-1,22
 337.486328125 1531 337.486328125 1531 446.486328125 1531 c 0,23,24
 558.486328125 1531 558.486328125 1531 591.814453125 1340.5 c 128,-1,25
 625.142578125 1150 625.142578125 1150 562.10546875 752 c 0,26,27
 497.166992188 342 497.166992188 342 404.4453125 157.5 c 128,-1,28
 311.723632812 -27 311.723632812 -27 199.723632812 -27 c 0,17,18
EndSplineSet
Substitution2: "'ss02' Style Set 2 in Latin lookup 36 subtable" zero.ss02
Substitution2: "'zero' Slashed Zero in Latin lookup 33 subtable" zero.zero
Substitution2: "'frac' Diagonal Fractions in Latin lookup 24 subtable" zero.numr
Substitution2: "'dnom' Denominators in Latin lookup 22 subtable" zero.dnom
Substitution2: "'numr' Numerators in Latin lookup 21 subtable" zero.numr
Substitution2: "'sups' Superscript in Latin lookup 20 subtable" uni2070
Substitution2: "'subs' Subscript in Latin lookup 19 subtable" uni2080
AlternateSubs2: "'aalt' Access All Alternates in Latin lookup 1 subtable" zero.zero zero.ss02 uni2080 zero.dnom zero.numr uni2070
EndChar

StartChar: one
Encoding: 49 49 475
Width: 512
VWidth: 2441
GlyphClass: 1
Flags: HW
LayerCount: 2
Fore
SplineSet
167 0 m 1,0,-1
 370.682617188 1286 l 1,1,-1
 207.5859375 1197 l 1,2,-1
 207.43359375 1316 l 1,3,-1
 455.219726562 1523 l 1,4,-1
 533.219726562 1523 l 1,5,-1
 292 0 l 1,6,-1
 167 0 l 1,0,-1
EndSplineSet
Substitution2: "'frac' Diagonal Fractions in Latin lookup 24 subtable" one.numr
Substitution2: "'dnom' Denominators in Latin lookup 22 subtable" one.dnom
Substitution2: "'numr' Numerators in Latin lookup 21 subtable" one.numr
Substitution2: "'sups' Superscript in Latin lookup 20 subtable" uni00B9
Substitution2: "'subs' Subscript in Latin lookup 19 subtable" uni2081
AlternateSubs2: "'aalt' Access All Alternates in Latin lookup 1 subtable" uni2081 one.dnom one.numr uni00B9
EndChar

StartChar: two
Encoding: 50 50 476
Width: 512
VWidth: 2441
GlyphClass: 1
Flags: HW
LayerCount: 2
Fore
SplineSet
16.9560546875 126 m 1,0,1
 162.434570312 350 162.434570312 350 257.280273438 519.5 c 128,-1,2
 352.126953125 689 352.126953125 689 409.404296875 826.5 c 128,-1,3
 466.682617188 964 466.682617188 964 490.380859375 1101 c 0,4,5
 494.954101562 1125.09082031 494.954101562 1125.09082031 498.435546875 1147.06933594 c 0,0,0
 517.9296875 1270.15136719 517.9296875 1270.15136719 503.17578125 1327 c 128,-1,6
 485.788085938 1394 485.788085938 1394 441.788085938 1394 c 0,7,8
 402.788085938 1394 402.788085938 1394 373.3828125 1372.5 c 128,-1,9
 343.977539062 1351 343.977539062 1351 312.682617188 1286 c 0,10,11
 294.505859375 1247 294.505859375 1247 291.891601562 1230.5 c 128,-1,12
 289.278320312 1214 289.278320312 1214 294.953125 1193 c 1,13,-1
 288.418945312 1177 l 1,14,-1
 263.52734375 1184 l 1,15,-1
 164.912109375 1218 l 1,16,17
 224.403320312 1360 224.403320312 1360 294.944335938 1445.5 c 128,-1,18
 365.486328125 1531 365.486328125 1531 463.486328125 1531 c 0,19,20
 577.486328125 1531 577.486328125 1531 611.959960938 1423.5 c 128,-1,21
 646.43359375 1316 646.43359375 1316 611.748046875 1097 c 0,22,23
 574.52734375 862 574.52734375 862 452.51953125 631.5 c 128,-1,24
 330.51171875 401 330.51171875 401 162.698242188 137 c 1,25,-1
 356.698242188 137 l 2,26,27
 398.698242188 137 398.698242188 137 416.490234375 142 c 128,-1,28
 434.282226562 147 434.282226562 147 451.5 161 c 1,29,-1
 469.5 161 l 1,30,-1
 444 0 l 1,31,-1
 -3 0 l 1,32,-1
 16.9560546875 126 l 1,0,1
EndSplineSet
Substitution2: "'frac' Diagonal Fractions in Latin lookup 24 subtable" two.numr
Substitution2: "'dnom' Denominators in Latin lookup 22 subtable" two.dnom
Substitution2: "'numr' Numerators in Latin lookup 21 subtable" two.numr
Substitution2: "'sups' Superscript in Latin lookup 20 subtable" uni00B2
Substitution2: "'subs' Subscript in Latin lookup 19 subtable" uni2082
AlternateSubs2: "'aalt' Access All Alternates in Latin lookup 1 subtable" uni2082 two.dnom two.numr uni00B2
EndChar

StartChar: three
Encoding: 51 51 477
Width: 512
VWidth: 2441
GlyphClass: 1
Flags: HW
LayerCount: 2
Fore
SplineSet
194.723632812 -27 m 0,0,1
 108.723632812 -27 108.723632812 -27 66.8310546875 30.5 c 128,-1,2
 24.9375 88 24.9375 88 -3.599609375 173 c 1,3,-1
 105.645507812 244 l 1,4,-1
 128.021484375 259 l 1,5,-1
 136.12109375 247 l 1,6,7
 130.794921875 226 130.794921875 226 129.626953125 206 c 128,-1,8
 128.459960938 186 128.459960938 186 141.916015625 151 c 1,9,10
 169.947265625 107 169.947265625 107 210.947265625 107 c 0,11,12
 266.947265625 107 266.947265625 107 310.592773438 190 c 128,-1,13
 354.239257812 273 354.239257812 273 378.155273438 424 c 0,14,15
 405.555664062 597 405.555664062 597 370.171875 673.5 c 128,-1,16
 342.122070312 734.145507812 342.122070312 734.145507812 268.331054688 734.145507812 c 0,0,0
 249.0390625 734.145507812 249.0390625 734.145507812 226.62109375 730 c 1,17,-1
 246.735351562 857 l 1,18,19
 329.735351562 857 329.735351562 857 373.045898438 900 c 128,-1,20
 416.356445312 943 416.356445312 943 436.78515625 1012 c 128,-1,21
 457.213867188 1081 457.213867188 1081 469.725585938 1160 c 0,22,23
 489.048828125 1282 489.048828125 1282 472.577148438 1339 c 128,-1,24
 456.104492188 1396 456.104492188 1396 415.104492188 1396 c 0,25,26
 383.104492188 1396 383.104492188 1396 352.377929688 1363 c 128,-1,27
 321.651367188 1330 321.651367188 1330 293.46484375 1272 c 1,28,-1
 202.334960938 1328 l 1,29,30
 256.380859375 1423 256.380859375 1423 314.43359375 1477 c 128,-1,31
 372.486328125 1531 372.486328125 1531 446.486328125 1531 c 0,32,33
 539.486328125 1531 539.486328125 1531 581.51953125 1436.5 c 128,-1,34
 623.551757812 1342 623.551757812 1342 593.6171875 1153 c 0,35,36
 574.76953125 1034 574.76953125 1034 533.698242188 942 c 128,-1,37
 492.626953125 850 492.626953125 850 425.450195312 811 c 1,38,39
 481.797851562 769 481.797851562 769 503.776367188 671 c 128,-1,40
 525.75390625 573 525.75390625 573 501.045898438 417 c 0,41,42
 468.260742188 210 468.260742188 210 386.4921875 91.5 c 128,-1,43
 304.723632812 -27 304.723632812 -27 194.723632812 -27 c 0,0,1
EndSplineSet
Substitution2: "'frac' Diagonal Fractions in Latin lookup 24 subtable" three.numr
Substitution2: "'dnom' Denominators in Latin lookup 22 subtable" three.dnom
Substitution2: "'numr' Numerators in Latin lookup 21 subtable" three.numr
Substitution2: "'sups' Superscript in Latin lookup 20 subtable" uni00B3
Substitution2: "'subs' Subscript in Latin lookup 19 subtable" uni2083
AlternateSubs2: "'aalt' Access All Alternates in Latin lookup 1 subtable" uni2083 three.dnom three.numr uni00B3
EndChar

StartChar: four
Encoding: 52 52 478
Width: 512
VWidth: 2441
GlyphClass: 1
Flags: HW
LayerCount: 2
Fore
SplineSet
175.884765625 517 m 1,0,-1
 346.884765625 517 l 1,1,-1
 440.6484375 1109 l 1,2,-1
 175.884765625 517 l 1,0,-1
265 0 m 1,3,-1
 325.186523438 380 l 1,4,-1
 35.1865234375 380 l 1,5,-1
 53.875 498 l 1,6,-1
 523.219726562 1523 l 1,7,-1
 621.219726562 1523 l 1,8,-1
 461.568359375 515 l 1,9,-1
 536.568359375 515 l 1,10,-1
 514.869140625 378 l 1,11,-1
 439.869140625 378 l 1,12,-1
 380 0 l 1,13,-1
 265 0 l 1,3,-1
EndSplineSet
Substitution2: "'frac' Diagonal Fractions in Latin lookup 24 subtable" four.numr
Substitution2: "'dnom' Denominators in Latin lookup 22 subtable" four.dnom
Substitution2: "'numr' Numerators in Latin lookup 21 subtable" four.numr
Substitution2: "'sups' Superscript in Latin lookup 20 subtable" uni2074
Substitution2: "'subs' Subscript in Latin lookup 19 subtable" uni2084
AlternateSubs2: "'aalt' Access All Alternates in Latin lookup 1 subtable" uni2084 four.dnom four.numr uni2074
EndChar

StartChar: five
Encoding: 53 53 479
Width: 512
VWidth: 2441
GlyphClass: 1
Flags: HW
LayerCount: 2
Fore
SplineSet
206.723632812 -27 m 0,0,1
 138.723632812 -27 138.723632812 -27 80.4052734375 21.5 c 128,-1,2
 22.0869140625 70 22.0869140625 70 1.142578125 184 c 1,3,-1
 97.2294921875 254 l 1,4,-1
 116.447265625 268 l 1,5,-1
 125.229492188 254 l 1,6,7
 122.537109375 237 122.537109375 237 122.790039062 216.5 c 128,-1,8
 123.04296875 196 123.04296875 196 134.5 161 c 1,9,10
 169.947265625 107 169.947265625 107 225.947265625 107 c 0,11,12
 344.947265625 107 344.947265625 107 404.658203125 484 c 0,13,14
 434.434570312 672 434.434570312 672 417.426757812 763.5 c 128,-1,15
 400.418945312 855 400.418945312 855 344.418945312 855 c 0,16,17
 298.418945312 855 298.418945312 855 266.587890625 824.5 c 128,-1,18
 234.756835938 794 234.756835938 794 195.829101562 725 c 1,19,-1
 129.313476562 747 l 1,20,-1
 276.90234375 1521 l 1,21,-1
 661.90234375 1521 l 1,22,-1
 640.204101562 1384 l 1,23,-1
 374.204101562 1384 l 1,24,-1
 289.822265625 927 l 1,25,26
 314.624023438 951 314.624023438 951 343.999023438 966 c 128,-1,27
 373.375 981 373.375 981 406.375 981 c 0,28,29
 511.375 981 511.375 981 539.15625 856.5 c 128,-1,30
 566.9375 732 566.9375 732 526.708007812 478 c 0,31,32
 446.723632812 -27 446.723632812 -27 206.723632812 -27 c 0,0,1
EndSplineSet
Substitution2: "'frac' Diagonal Fractions in Latin lookup 24 subtable" five.numr
Substitution2: "'dnom' Denominators in Latin lookup 22 subtable" five.dnom
Substitution2: "'numr' Numerators in Latin lookup 21 subtable" five.numr
Substitution2: "'sups' Superscript in Latin lookup 20 subtable" uni2075
Substitution2: "'subs' Subscript in Latin lookup 19 subtable" uni2085
AlternateSubs2: "'aalt' Access All Alternates in Latin lookup 1 subtable" uni2085 five.dnom five.numr uni2075
EndChar

StartChar: six
Encoding: 54 54 480
Width: 512
VWidth: 2441
GlyphClass: 1
Flags: HW
LayerCount: 2
Fore
SplineSet
248.055664062 114 m 0,0,1
 292.055664062 114 292.055664062 114 329.418945312 211 c 128,-1,2
 366.782226562 308 366.782226562 308 394.024414062 480 c 0,3,4
 423.166992188 664 423.166992188 664 414.471679688 748 c 128,-1,5
 405.775390625 832 405.775390625 832 359.775390625 832 c 0,6,7
 315.775390625 832 315.775390625 832 284.252929688 784.5 c 128,-1,8
 252.729492188 737 252.729492188 737 214.266601562 652 c 1,9,10
 204.805664062 607 204.805664062 607 197.889648438 563.333007812 c 0,0,0
 184.057617188 476 184.057617188 476 180.403320312 394 c 128,-1,11
 174.921875 271 174.921875 271 191.989257812 192.5 c 128,-1,12
 209.055664062 114 209.055664062 114 248.055664062 114 c 0,0,1
221.19921875 -24 m 0,13,14
 109.19921875 -24 109.19921875 -24 74.7578125 150 c 128,-1,15
 40.31640625 324 40.31640625 324 98.9189453125 694 c 0,16,17
 169.716796875 1141 169.716796875 1141 267.15625 1339.5 c 128,-1,18
 364.595703125 1538 364.595703125 1538 501.595703125 1538 c 0,19,20
 571.595703125 1538 571.595703125 1538 606.15625 1500.5 c 128,-1,21
 640.716796875 1463 640.716796875 1463 654.104492188 1396 c 1,22,-1
 572.256835938 1277 l 1,23,-1
 562.564453125 1260 l 1,24,-1
 551.356445312 1265 l 1,25,26
 549.048828125 1282 549.048828125 1282 553.295898438 1302.5 c 128,-1,27
 557.54296875 1323 557.54296875 1323 547.293945312 1353 c 1,28,29
 522.580078125 1399 522.580078125 1399 481.73828125 1400 c 0,30,31
 457.73828125 1400 457.73828125 1400 430.466796875 1382.5 c 128,-1,32
 403.194335938 1365 403.194335938 1365 374.379882812 1312.5 c 128,-1,33
 345.564453125 1260 345.564453125 1260 316.830078125 1157.5 c 128,-1,34
 288.095703125 1055 288.095703125 1055 258.329101562 886 c 1,35,36
 295.614257812 932 295.614257812 932 329.995117188 956.5 c 128,-1,37
 364.375 981 364.375 981 413.375 981 c 0,38,39
 499.375 981 499.375 981 527.755859375 844.5 c 128,-1,40
 556.135742188 708 556.135742188 708 520.658203125 484 c 0,41,42
 484.86328125 258 484.86328125 258 406.53125 117 c 128,-1,43
 328.19921875 -24 328.19921875 -24 221.19921875 -24 c 0,13,14
EndSplineSet
Substitution2: "'frac' Diagonal Fractions in Latin lookup 24 subtable" six.numr
Substitution2: "'dnom' Denominators in Latin lookup 22 subtable" six.dnom
Substitution2: "'numr' Numerators in Latin lookup 21 subtable" six.numr
Substitution2: "'sups' Superscript in Latin lookup 20 subtable" uni2076
Substitution2: "'subs' Subscript in Latin lookup 19 subtable" uni2086
AlternateSubs2: "'aalt' Access All Alternates in Latin lookup 1 subtable" uni2086 six.dnom six.numr uni2076
EndChar

StartChar: seven
Encoding: 55 55 481
Width: 512
VWidth: 2441
GlyphClass: 1
Flags: HW
LayerCount: 2
Fore
SplineSet
74 0 m 1,0,1
 183.276367188 349 183.276367188 349 288.631835938 698.5 c 128,-1,2
 393.987304688 1048 393.987304688 1048 511.204101562 1384 c 1,3,-1
 220.204101562 1384 l 1,4,-1
 241.90234375 1521 l 1,5,-1
 673.90234375 1521 l 1,6,-1
 661.073242188 1440 l 1,7,8
 537.322265625 1088 537.322265625 1088 425.145507812 727 c 128,-1,9
 312.96875 366 312.96875 366 206 0 c 1,10,-1
 74 0 l 1,0,1
EndSplineSet
Substitution2: "'frac' Diagonal Fractions in Latin lookup 24 subtable" seven.numr
Substitution2: "'dnom' Denominators in Latin lookup 22 subtable" seven.dnom
Substitution2: "'numr' Numerators in Latin lookup 21 subtable" seven.numr
Substitution2: "'sups' Superscript in Latin lookup 20 subtable" uni2077
Substitution2: "'subs' Subscript in Latin lookup 19 subtable" uni2087
AlternateSubs2: "'aalt' Access All Alternates in Latin lookup 1 subtable" uni2087 seven.dnom seven.numr uni2077
EndChar

StartChar: eight
Encoding: 56 56 482
Width: 512
VWidth: 2441
GlyphClass: 1
Flags: HW
LayerCount: 2
Fore
SplineSet
231.421875 110 m 0,0,1
 280.421875 110 280.421875 110 322.776367188 188 c 128,-1,2
 365.129882812 266 365.129882812 266 385.245117188 393 c 0,3,4
 405.834960938 523 405.834960938 523 394.005859375 603 c 128,-1,5
 382.176757812 683 382.176757812 683 327.729492188 737 c 1,6,7
 266.443359375 691 266.443359375 691 226.114257812 610 c 128,-1,8
 185.78515625 529 185.78515625 529 165.51171875 401 c 0,9,10
 145.555664062 275 145.555664062 275 167.489257812 192.5 c 128,-1,11
 189.421875 110 189.421875 110 231.421875 110 c 0,0,1
366.912109375 896 m 1,12,13
 418.672851562 945 418.672851562 945 446.498046875 1016.5 c 128,-1,14
 474.322265625 1088 474.322265625 1088 487.943359375 1174 c 0,15,16
 504.573242188 1279 504.573242188 1279 492.47265625 1341.5 c 128,-1,17
 480.372070312 1404 480.372070312 1404 438.372070312 1404 c 0,18,19
 394.372070312 1404 394.372070312 1404 364.630859375 1342.5 c 128,-1,20
 334.890625 1281 334.890625 1281 319.051757812 1181 c 0,21,22
 301.3125 1069 301.3125 1069 310.943359375 1013 c 128,-1,23
 320.57421875 957 320.57421875 957 366.912109375 896 c 1,12,13
207.19921875 -24 m 128,-1,25
 100.19921875 -24 100.19921875 -24 55.12109375 86 c 128,-1,26
 10.04296875 196 10.04296875 196 39.8193359375 384 c 0,27,28
 88.9189453125 694 88.9189453125 694 251.350585938 823 c 1,29,30
 205.903320312 877 205.903320312 877 194.499023438 966 c 128,-1,31
 183.095703125 1055 183.095703125 1055 200.517578125 1165 c 0,32,33
 227.91796875 1338 227.91796875 1338 294.915039062 1439 c 128,-1,34
 361.912109375 1540 361.912109375 1540 461.912109375 1540 c 0,35,36
 566.912109375 1540 566.912109375 1540 599.469726562 1442.5 c 128,-1,37
 632.02734375 1345 632.02734375 1345 605.735351562 1179 c 0,38,39
 588.3125 1069 588.3125 1069 548.81640625 968 c 128,-1,40
 509.319335938 867 509.319335938 867 443.974609375 808 c 1,41,42
 555.126953125 689 555.126953125 689 508.245117188 393 c 0,43,44
 477.202148438 197 477.202148438 197 395.700195312 86.5 c 128,-1,24
 314.19921875 -24 314.19921875 -24 207.19921875 -24 c 128,-1,25
EndSplineSet
Substitution2: "'frac' Diagonal Fractions in Latin lookup 24 subtable" eight.numr
Substitution2: "'dnom' Denominators in Latin lookup 22 subtable" eight.dnom
Substitution2: "'numr' Numerators in Latin lookup 21 subtable" eight.numr
Substitution2: "'sups' Superscript in Latin lookup 20 subtable" uni2078
Substitution2: "'subs' Subscript in Latin lookup 19 subtable" uni2088
AlternateSubs2: "'aalt' Access All Alternates in Latin lookup 1 subtable" uni2088 eight.dnom eight.numr uni2078
EndChar

StartChar: nine
Encoding: 57 57 483
Width: 512
VWidth: 2441
GlyphClass: 1
Flags: HW
LayerCount: 2
Fore
SplineSet
270.245117188 1037 m 0,0,1
 247.4375 893 247.4375 893 267.340820312 804 c 128,-1,2
 287.245117188 715 287.245117188 715 329.245117188 715 c 0,3,4
 397.245117188 715 397.245117188 715 449.22265625 778 c 1,5,-1
 449.698242188 781 l 2,6,7
 503.548828125 1121 503.548828125 1121 499.327148438 1258.5 c 128,-1,8
 495.104492188 1396 495.104492188 1396 432.104492188 1396 c 0,9,10
 390.104492188 1396 390.104492188 1396 345.854492188 1315.5 c 128,-1,11
 301.604492188 1235 301.604492188 1235 270.245117188 1037 c 0,0,1
180.19921875 -24 m 0,12,13
 126.19921875 -24 126.19921875 -24 80.1875 7.5 c 128,-1,14
 34.1767578125 39 34.1767578125 39 12.521484375 98 c 1,15,-1
 82.052734375 215 l 1,16,-1
 94.537109375 237 l 1,17,-1
 108.745117188 232 l 1,18,19
 112.736328125 213 112.736328125 213 112.776367188 188 c 128,-1,20
 112.81640625 163 112.81640625 163 131.907226562 132 c 1,21,22
 155.10546875 108 155.10546875 108 193.947265625 107 c 0,23,24
 249.947265625 107 249.947265625 107 292.747070312 181.5 c 128,-1,25
 335.546875 256 335.546875 256 367.948242188 378.5 c 128,-1,26
 400.350585938 501 400.350585938 501 424.048828125 638 c 1,27,28
 369.971679688 587 369.971679688 587 303.971679688 587 c 0,29,30
 208.971679688 587 208.971679688 587 164.874023438 709.5 c 128,-1,31
 120.775390625 832 120.775390625 832 152.927734375 1035 c 0,32,33
 192.840820312 1287 192.840820312 1287 276.6640625 1409 c 128,-1,34
 360.486328125 1531 360.486328125 1531 451.486328125 1531 c 0,35,36
 581.486328125 1531 581.486328125 1531 609.436523438 1376 c 128,-1,37
 637.387695312 1221 637.387695312 1221 584.329101562 886 c 0,38,39
 532.219726562 557 532.219726562 557 476.201171875 358 c 128,-1,40
 420.18359375 159 420.18359375 159 348.086914062 70 c 128,-1,41
 275.990234375 -19 275.990234375 -19 180.19921875 -24 c 0,12,13
EndSplineSet
Substitution2: "'frac' Diagonal Fractions in Latin lookup 24 subtable" nine.numr
Substitution2: "'dnom' Denominators in Latin lookup 22 subtable" nine.dnom
Substitution2: "'numr' Numerators in Latin lookup 21 subtable" nine.numr
Substitution2: "'sups' Superscript in Latin lookup 20 subtable" uni2079
Substitution2: "'subs' Subscript in Latin lookup 19 subtable" uni2089
AlternateSubs2: "'aalt' Access All Alternates in Latin lookup 1 subtable" uni2089 nine.dnom nine.numr uni2079
EndChar

StartChar: zero.zero
Encoding: 65541 -1 484
Width: 512
VWidth: 2441
GlyphClass: 1
Flags: HW
LayerCount: 2
Fore
SplineSet
309.068359375 676 m 0,0,1
 278.068359375 676 278.068359375 676 262.344726562 703 c 128,-1,2
 246.62109375 730 246.62109375 730 252.48046875 767 c 128,-1,3
 258.340820312 804 258.340820312 804 281.879882812 829.5 c 128,-1,4
 305.418945312 855 305.418945312 855 337.418945312 855 c 0,5,6
 366.418945312 855 366.418945312 855 383.30078125 829 c 128,-1,7
 400.182617188 803 400.182617188 803 394.48046875 767 c 0,8,9
 388.62109375 730 388.62109375 730 363.344726562 703 c 128,-1,10
 338.068359375 676 338.068359375 676 309.068359375 676 c 0,0,1
221.421875 110 m 0,11,12
 278.421875 110 278.421875 110 333.337890625 261 c 128,-1,13
 388.25390625 412 388.25390625 412 442.10546875 752 c 0,14,15
 493.421875 1076 493.421875 1076 486.604492188 1235 c 128,-1,16
 479.788085938 1394 479.788085938 1394 424.788085938 1394 c 0,17,18
 374.788085938 1394 374.788085938 1394 314.104492188 1235 c 128,-1,19
 253.421875 1076 253.421875 1076 202.10546875 752 c 0,20,21
 148.25390625 412 148.25390625 412 160.837890625 261 c 128,-1,22
 173.421875 110 173.421875 110 221.421875 110 c 0,11,12
199.723632812 -27 m 0,23,24
 89.7236328125 -27 89.7236328125 -27 53.4453125 157.5 c 128,-1,25
 17.1669921875 342 17.1669921875 342 82.10546875 752 c 0,26,27
 145.142578125 1150 145.142578125 1150 241.314453125 1340.5 c 128,-1,28
 337.486328125 1531 337.486328125 1531 446.486328125 1531 c 0,29,30
 558.486328125 1531 558.486328125 1531 591.814453125 1340.5 c 128,-1,31
 625.142578125 1150 625.142578125 1150 562.10546875 752 c 0,32,33
 497.166992188 342 497.166992188 342 404.4453125 157.5 c 128,-1,34
 311.723632812 -27 311.723632812 -27 199.723632812 -27 c 0,23,24
EndSplineSet
EndChar

StartChar: zero.ss02
Encoding: 65542 -1 485
Width: 512
VWidth: 2441
GlyphClass: 1
Flags: HW
LayerCount: 2
Fore
SplineSet
221.421875 110 m 0,0,1
 278.421875 110 278.421875 110 333.337890625 261 c 128,-1,2
 388.25390625 412 388.25390625 412 442.10546875 752 c 0,3,4
 493.421875 1076 493.421875 1076 486.604492188 1235 c 128,-1,5
 479.788085938 1394 479.788085938 1394 424.788085938 1394 c 0,6,7
 374.788085938 1394 374.788085938 1394 314.104492188 1235 c 128,-1,8
 253.421875 1076 253.421875 1076 202.10546875 752 c 0,9,10
 148.25390625 412 148.25390625 412 160.837890625 261 c 128,-1,11
 173.421875 110 173.421875 110 221.421875 110 c 0,0,1
199.723632812 -27 m 0,12,13
 89.7236328125 -27 89.7236328125 -27 53.4453125 157.5 c 128,-1,14
 17.1669921875 342 17.1669921875 342 82.10546875 752 c 0,15,16
 145.142578125 1150 145.142578125 1150 241.314453125 1340.5 c 128,-1,17
 337.486328125 1531 337.486328125 1531 446.486328125 1531 c 0,18,19
 558.486328125 1531 558.486328125 1531 591.814453125 1340.5 c 128,-1,20
 625.142578125 1150 625.142578125 1150 562.10546875 752 c 0,21,22
 497.166992188 342 497.166992188 342 404.4453125 157.5 c 128,-1,23
 311.723632812 -27 311.723632812 -27 199.723632812 -27 c 0,12,13
EndSplineSet
EndChar

StartChar: uni2070
Encoding: 8304 8304 516
Width: 512
VWidth: 2441
GlyphClass: 1
Flags: HW
LayerCount: 2
Fore
SplineSet
319.176757812 683 m 0,0,1
 358.176757812 683 358.176757812 683 392.510742188 773.5 c 128,-1,2
 426.84375 864 426.84375 864 458.99609375 1067 c 0,3,4
 466.756835938 1116 466.756835938 1116 469.725585938 1160 c 1,5,-1
 279.04296875 840 l 1,6,7
 273.176757812 683 273.176757812 683 319.176757812 683 c 0,0,1
300.99609375 1067 m 0,8,9
 291.334960938 1006 291.334960938 1006 287.256835938 955 c 1,10,-1
 482.682617188 1286 l 1,11,12
 489.499023438 1449 489.499023438 1449 440.815429688 1451 c 0,13,14
 405.815429688 1451 405.815429688 1451 368.927734375 1357 c 128,-1,15
 332.0390625 1263 332.0390625 1263 300.99609375 1067 c 0,8,9
303.337890625 583 m 0,16,17
 228.337890625 583 228.337890625 583 198.65625 695.5 c 128,-1,18
 168.974609375 808 168.974609375 808 209.99609375 1067 c 0,19,20
 249.909179688 1319 249.909179688 1319 315.702148438 1434.5 c 128,-1,21
 381.49609375 1550 381.49609375 1550 456.49609375 1550 c 0,22,23
 535.49609375 1550 535.49609375 1550 563.123046875 1434 c 128,-1,24
 590.750976562 1318 590.750976562 1318 550.99609375 1067 c 0,25,26
 509.974609375 808 509.974609375 808 446.15625 695.5 c 128,-1,27
 382.337890625 583 382.337890625 583 303.337890625 583 c 0,16,17
EndSplineSet
Substitution2: "'ss02' Style Set 2 in Latin lookup 36 subtable" uni2070.ss02
Substitution2: "'zero' Slashed Zero in Latin lookup 33 subtable" uni2070.zero
AlternateSubs2: "'aalt' Access All Alternates in Latin lookup 1 subtable" uni2070.ss02 uni2070.zero
EndChar

StartChar: uni00B9
Encoding: 185 185 517
Width: 512
VWidth: 2441
GlyphClass: 1
Flags: HW
LayerCount: 2
Fore
SplineSet
272.189453125 601 m 1,0,-1
 396.204101562 1384 l 1,1,-1
 291.334960938 1328 l 1,2,-1
 289.272460938 1416 l 1,3,-1
 453.704101562 1545 l 1,4,-1
 514.704101562 1545 l 1,5,-1
 365.189453125 601 l 1,6,-1
 272.189453125 601 l 1,0,-1
EndSplineSet
EndChar

StartChar: uni00B2
Encoding: 178 178 518
Width: 512
VWidth: 2441
GlyphClass: 1
Flags: HW
LayerCount: 2
Fore
SplineSet
168.493164062 685 m 1,0,1
 263.984375 827 263.984375 827 327.71875 929.5 c 128,-1,2
 391.453125 1032 391.453125 1032 427.677734375 1115.5 c 128,-1,3
 463.903320312 1199 463.903320312 1199 480.365234375 1284 c 0,4,5
 481.927734375 1292.59960938 481.927734375 1292.59960938 483.217773438 1300.74511719 c 0,6,7
 494.828125 1374.04980469 494.828125 1374.04980469 484.401367188 1410.5 c 0,8,9
 472.815429688 1451 472.815429688 1451 445.815429688 1451 c 0,10,11
 413.815429688 1451 413.815429688 1451 391.172851562 1428 c 1,12,13
 368.3125 1391 368.3125 1391 362.961914062 1373 c 128,-1,14
 357.611328125 1355 357.611328125 1355 361.443359375 1335 c 1,15,-1
 352.225585938 1321 l 1,16,-1
 331.651367188 1330 l 1,17,-1
 260.0859375 1358 l 1,18,19
 298.0234375 1446 298.0234375 1446 346.759765625 1498 c 128,-1,20
 395.49609375 1550 395.49609375 1550 463.49609375 1550 c 0,21,22
 614.49609375 1550 614.49609375 1550 572.573242188 1279 c 0,23,24
 549.766601562 1135 549.766601562 1135 473.54296875 1001 c 128,-1,25
 397.319335938 867 397.319335938 867 285.02734375 701 c 1,26,-1
 376.02734375 701 l 2,27,28
 418.02734375 701 418.02734375 701 435.740234375 705.5 c 128,-1,29
 453.453125 710 453.453125 710 469.829101562 725 c 1,30,-1
 486.829101562 725 l 1,31,-1
 467.189453125 601 l 1,32,-1
 155.189453125 601 l 1,33,-1
 168.493164062 685 l 1,0,1
EndSplineSet
EndChar

StartChar: uni00B3
Encoding: 179 179 519
Width: 512
VWidth: 2441
GlyphClass: 1
Flags: HW
LayerCount: 2
Fore
SplineSet
294.337890625 583 m 0,0,1
 240.337890625 583 240.337890625 583 207.802734375 617.5 c 128,-1,2
 175.266601562 652 175.266601562 652 156.819335938 706 c 1,3,-1
 230.897460938 757 l 1,4,-1
 252.58984375 774 l 1,5,-1
 261.213867188 759 l 1,6,7
 256.204101562 740 256.204101562 740 263.169921875 724 c 128,-1,8
 270.135742188 708 270.135742188 708 291.384765625 678 c 1,9,-1
 304.384765625 678 l 2,10,11
 381.43359375 678 381.43359375 678 409.45703125 854.927734375 c 0,12,13
 410.166015625 859.407226562 410.166015625 859.407226562 410.84375 864 c 0,14,15
 427.791015625 971 427.791015625 971 403.33984375 1015.5 c 0,16,17
 384.081054688 1050.54882812 384.081054688 1050.54882812 336.62890625 1050.54882812 c 0,18,19
 323.833007812 1050.54882812 323.833007812 1050.54882812 308.987304688 1048 c 1,20,-1
 323.083007812 1137 l 1,21,22
 404.083007812 1137 404.083007812 1137 429.635742188 1191 c 128,-1,23
 455.188476562 1245 455.188476562 1245 466.750976562 1318 c 0,24,25
 488.766601562 1457 488.766601562 1457 429.924804688 1458 c 0,26,27
 387.924804688 1458 387.924804688 1458 349.204101562 1384 c 1,28,-1
 285.856445312 1426 l 1,29,30
 322.04296875 1484 322.04296875 1484 363.76953125 1517 c 128,-1,31
 405.49609375 1550 405.49609375 1550 451.49609375 1550 c 0,32,33
 514.49609375 1550 514.49609375 1550 546.388671875 1492.5 c 128,-1,34
 578.28125 1435 578.28125 1435 559.43359375 1316 c 0,35,36
 547.5546875 1241 547.5546875 1241 521.106445312 1184.5 c 128,-1,37
 494.657226562 1128 494.657226562 1128 448.856445312 1104 c 1,38,39
 486.580078125 1077 486.580078125 1077 502.577148438 1017 c 128,-1,40
 518.57421875 957 518.57421875 957 503.051757812 859 c 0,41,42
 482.461914062 729 482.461914062 729 427.900390625 656 c 128,-1,43
 373.337890625 583 373.337890625 583 294.337890625 583 c 0,0,1
EndSplineSet
EndChar

StartChar: uni2074
Encoding: 8308 8308 520
Width: 512
VWidth: 2441
GlyphClass: 1
Flags: HW
LayerCount: 2
Fore
SplineSet
293.297851562 930 m 1,0,-1
 412.297851562 930 l 1,1,-1
 465.356445312 1265 l 1,2,-1
 293.297851562 930 l 1,0,-1
360.189453125 601 m 1,3,-1
 396.458984375 830 l 1,4,-1
 184.458984375 830 l 1,5,-1
 198.080078125 916 l 1,6,-1
 528.704101562 1545 l 1,7,-1
 602.704101562 1545 l 1,8,-1
 504.822265625 927 l 1,9,-1
 555.822265625 927 l 1,10,-1
 539.984375 827 l 1,11,-1
 488.984375 827 l 1,12,-1
 453.189453125 601 l 1,13,-1
 360.189453125 601 l 1,3,-1
EndSplineSet
EndChar

StartChar: uni2075
Encoding: 8309 8309 521
Width: 512
VWidth: 2441
GlyphClass: 1
Flags: HW
LayerCount: 2
Fore
SplineSet
303.337890625 583 m 0,0,1
 254.337890625 583 254.337890625 583 214.40625 615 c 128,-1,2
 174.474609375 647 174.474609375 647 159.037109375 720 c 1,3,-1
 232.797851562 769 l 1,4,-1
 251.22265625 778 l 1,5,-1
 259.005859375 764 l 1,6,7
 254.313476562 747 254.313476562 747 261.279296875 731 c 128,-1,8
 268.245117188 715 268.245117188 715 287.176757812 683 c 1,9,10
 292.176757812 683 292.176757812 683 299.518554688 682 c 128,-1,11
 306.859375 681 306.859375 681 313.859375 681 c 0,12,13
 391.872070312 681 391.872070312 681 425.8515625 895.534179688 c 0,14,15
 426.28125 898.25 426.28125 898.25 426.704101562 901 c 0,16,17
 461.866210938 1123 461.866210938 1123 386.866210938 1123 c 0,18,19
 337.866210938 1123 337.866210938 1123 293.987304688 1048 c 1,20,-1
 240.204101562 1062 l 1,21,-1
 331.38671875 1543 l 1,22,-1
 599.38671875 1543 l 1,23,-1
 583.865234375 1445 l 1,24,-1
 402.865234375 1445 l 1,25,-1
 353.735351562 1179 l 1,26,27
 369.953125 1193 369.953125 1193 390.115234375 1203.5 c 128,-1,28
 410.278320312 1214 410.278320312 1214 433.278320312 1214 c 0,29,30
 571.286132812 1214 571.286132812 1214 522.104492188 903.484375 c 0,31,32
 471.345703125 583 471.345703125 583 303.337890625 583 c 0,0,1
EndSplineSet
EndChar

StartChar: uni2076
Encoding: 8310 8310 522
Width: 512
VWidth: 2441
GlyphClass: 1
Flags: HW
LayerCount: 2
Fore
SplineSet
331.493164062 685 m 0,0,1
 389.493164062 685 389.493164062 685 424.387695312 899 c 0,2,3
 441.334960938 1006 441.334960938 1006 433.75390625 1056 c 128,-1,4
 426.172851562 1106 426.172851562 1106 398.172851562 1106 c 0,5,6
 371.172851562 1106 371.172851562 1106 350.134765625 1080.5 c 128,-1,7
 329.095703125 1055 329.095703125 1055 307.334960938 1006 c 1,8,9
 302.625976562 982.2265625 302.625976562 982.2265625 299.021484375 959.467773438 c 0,10,11
 283.521484375 861.603515625 283.521484375 861.603515625 288.435546875 782.5 c 0,12,13
 294.493164062 685 294.493164062 685 331.493164062 685 c 0,0,1
313.971679688 587 m 0,14,15
 232.971679688 587 232.971679688 587 207.418945312 694 c 128,-1,16
 181.866210938 801 181.866210938 801 218.135742188 1030 c 0,17,18
 261.69140625 1305 261.69140625 1305 330.569335938 1430.5 c 128,-1,19
 399.446289062 1556 399.446289062 1556 492.446289062 1556 c 0,20,21
 575.446289062 1556 575.446289062 1556 601.716796875 1463 c 1,22,-1
 540.204101562 1384 l 1,23,-1
 527.51171875 1367 l 1,24,-1
 516.620117188 1374 l 1,25,26
 517.3125 1391 517.3125 1391 516.584960938 1408.5 c 128,-1,27
 515.856445312 1426 515.856445312 1426 496.815429688 1451 c 0,28,29
 494.815429688 1451 494.815429688 1451 488.974609375 1452 c 128,-1,30
 483.1328125 1453 483.1328125 1453 478.1328125 1453 c 0,31,32
 459.1328125 1453 459.1328125 1453 433.306640625 1432 c 128,-1,33
 407.48046875 1411 407.48046875 1411 381.52734375 1345 c 128,-1,34
 355.573242188 1279 355.573242188 1279 331.825195312 1148 c 1,35,36
 378.486328125 1209 378.486328125 1209 437.486328125 1209 c 0,37,38
 493.486328125 1209 493.486328125 1209 515.499023438 1127 c 128,-1,39
 537.51171875 1045 537.51171875 1045 514.704101562 901 c 0,40,41
 492.213867188 759 492.213867188 759 440.592773438 673 c 128,-1,42
 388.971679688 587 388.971679688 587 313.971679688 587 c 0,14,15
EndSplineSet
EndChar

StartChar: uni2077
Encoding: 8311 8311 523
Width: 512
VWidth: 2441
GlyphClass: 1
Flags: HW
LayerCount: 2
Fore
SplineSet
206.189453125 601 m 1,0,1
 277.55859375 818 277.55859375 818 344.58203125 1026.5 c 128,-1,2
 411.604492188 1235 411.604492188 1235 488.390625 1442 c 1,3,-1
 293.390625 1442 l 1,4,-1
 309.38671875 1543 l 1,5,-1
 611.38671875 1543 l 1,6,-1
 601.250976562 1479 l 1,7,8
 520.880859375 1262 520.880859375 1262 449.932617188 1044.5 c 128,-1,9
 378.984375 827 378.984375 827 309.189453125 601 c 1,10,-1
 206.189453125 601 l 1,0,1
EndSplineSet
EndChar

StartChar: uni2078
Encoding: 8312 8312 524
Width: 512
VWidth: 2441
GlyphClass: 1
Flags: HW
LayerCount: 2
Fore
SplineSet
322.176757812 683 m 0,0,1
 392.176757812 683 392.176757812 683 417.834960938 845 c 0,2,3
 441.1171875 992 441.1171875 992 374.987304688 1048 c 1,4,5
 298.434570312 994 298.434570312 994 275.626953125 850 c 0,6,7
 263.114257812 771 263.114257812 771 277.645507812 727 c 128,-1,8
 292.176757812 683 292.176757812 683 322.176757812 683 c 0,0,1
404.725585938 1160 m 1,9,10
 436.001953125 1187 436.001953125 1187 454.129882812 1232 c 128,-1,11
 472.256835938 1277 472.256835938 1277 480.334960938 1328 c 0,12,13
 489.520507812 1386 489.520507812 1386 480.72265625 1422 c 128,-1,14
 471.924804688 1458 471.924804688 1458 444.924804688 1458 c 128,-1,15
 417.924804688 1458 417.924804688 1458 398.959960938 1423.5 c 128,-1,16
 379.99609375 1389 379.99609375 1389 371.125976562 1333 c 0,17,18
 360.356445312 1265 360.356445312 1265 369.3125 1230 c 128,-1,19
 378.26953125 1195 378.26953125 1195 404.725585938 1160 c 1,9,10
303.971679688 587 m 0,20,21
 228.971679688 587 228.971679688 587 195.663085938 654.5 c 128,-1,22
 162.353515625 722 162.353515625 722 180.567382812 837 c 0,23,24
 210.34375 1025 210.34375 1025 321.96484375 1111 c 1,25,26
 290.508789062 1146 290.508789062 1146 281.640625 1200.5 c 128,-1,27
 272.772460938 1255 272.772460938 1255 283.54296875 1323 c 0,28,29
 300.490234375 1430 300.490234375 1430 347.467773438 1493 c 128,-1,30
 394.446289062 1556 394.446289062 1556 462.446289062 1556 c 0,31,32
 532.446289062 1556 532.446289062 1556 558.705078125 1494.5 c 128,-1,33
 584.96484375 1433 584.96484375 1433 568.651367188 1330 c 0,34,35
 557.880859375 1262 557.880859375 1262 530.482421875 1199.5 c 128,-1,36
 503.083007812 1137 503.083007812 1137 460.380859375 1101 c 1,37,38
 536.819335938 1028 536.819335938 1028 507.834960938 845 c 0,39,40
 488.987304688 726 488.987304688 726 435.979492188 656.5 c 128,-1,41
 382.971679688 587 382.971679688 587 303.971679688 587 c 0,20,21
EndSplineSet
EndChar

StartChar: uni2079
Encoding: 8313 8313 525
Width: 512
VWidth: 2441
GlyphClass: 1
Flags: HW
LayerCount: 2
Fore
SplineSet
339.713867188 1242 m 0,0,1
 325.775390625 1154 325.775390625 1154 338.27734375 1103.5 c 128,-1,2
 350.779296875 1053 350.779296875 1053 382.779296875 1053 c 0,3,4
 426.779296875 1053 426.779296875 1053 456.005859375 1086 c 1,5,6
 488.791015625 1293 488.791015625 1293 484.961914062 1373 c 128,-1,7
 481.1328125 1453 481.1328125 1453 441.1328125 1453 c 0,8,9
 411.1328125 1453 411.1328125 1453 384.451171875 1404.5 c 128,-1,10
 357.76953125 1356 357.76953125 1356 339.713867188 1242 c 0,0,1
284.971679688 587 m 1,11,12
 196.971679688 587 196.971679688 587 162.958984375 669 c 1,13,-1
 219.99609375 745 l 1,14,-1
 232.48046875 767 l 1,15,-1
 247.897460938 757 l 1,16,17
 250.204101562 740 250.204101562 740 257.51171875 723 c 128,-1,18
 264.819335938 706 264.819335938 706 291.384765625 678 c 1,19,20
 289.701171875 680 289.701171875 680 294.859375 681 c 0,21,22
 345.859375 681 345.859375 681 380.8515625 772.5 c 128,-1,23
 415.84375 864 415.84375 864 438.483398438 988 c 1,24,25
 404.478515625 956.969726562 404.478515625 956.969726562 365.043945312 956.969726562 c 0,26,27
 363.811523438 956.969726562 363.811523438 956.969726562 362.57421875 957 c 0,28,29
 296.57421875 957 296.57421875 957 263.611328125 1033 c 128,-1,30
 230.6484375 1109 230.6484375 1109 251.713867188 1242 c 0,31,32
 276.421875 1398 276.421875 1398 333.958984375 1474 c 128,-1,33
 391.49609375 1550 391.49609375 1550 454.49609375 1550 c 0,34,35
 542.49609375 1550 542.49609375 1550 564.553710938 1452.5 c 128,-1,36
 586.611328125 1355 586.611328125 1355 554.142578125 1150 c 0,37,38
 505.834960938 845 505.834960938 845 443.298828125 718.5 c 128,-1,39
 380.763671875 592 380.763671875 592 284.971679688 587 c 1,11,12
EndSplineSet
EndChar

StartChar: fraction
Encoding: 8260 8260 526
Width: 512
VWidth: 2441
GlyphClass: 1
Flags: HW
LayerCount: 2
Fore
SplineSet
40.6865234375 -103 m 1,0,-1
 -22.978515625 -63 l 1,1,-1
 639.216796875 1624 l 1,2,-1
 703.564453125 1582 l 1,3,-1
 40.6865234375 -103 l 1,0,-1
EndSplineSet
EndChar

StartChar: onehalf
Encoding: 189 189 527
Width: 512
VWidth: 2441
GlyphClass: 1
Flags: HW
LayerCount: 2
Fore
SplineSet
161.07421875 -170 m 1,0,-1
 172.161132812 -100 l 1,1,2
 238.900390625 12 238.900390625 12 281.413085938 91 c 128,-1,3
 323.92578125 170 323.92578125 170 349.720703125 235 c 128,-1,4
 375.515625 300 375.515625 300 386.28515625 368 c 0,5,6
 388.38671875 379.022460938 388.38671875 379.022460938 389.979492188 389.080078125 c 0,0,0
 406.30859375 492.177734375 406.30859375 492.177734375 369.2421875 494 c 0,7,8
 349.2421875 494 349.2421875 494 333.969726562 476.5 c 128,-1,9
 318.698242188 459 318.698242188 459 296.145507812 405 c 1,10,-1
 244.629882812 427 l 1,11,12
 271.716796875 497 271.716796875 497 304.631835938 537.5 c 128,-1,13
 337.545898438 578 337.545898438 578 384.545898438 578 c 0,14,15
 485.545898438 578 485.545898438 578 452.96875 366 c 0,16,17
 434.913085938 252 434.913085938 252 384.336914062 150.5 c 128,-1,18
 333.760742188 49 333.760742188 49 257.37890625 -86 c 1,19,-1
 383.37890625 -86 l 1,20,-1
 370.07421875 -170 l 1,21,-1
 161.07421875 -170 l 1,0,-1
12.6865234375 -103 m 1,22,-1
 -38.978515625 -63 l 1,23,-1
 556.216796875 1624 l 1,24,-1
 608.564453125 1582 l 1,25,-1
 12.6865234375 -103 l 1,22,-1
134.822265625 927 m 1,26,-1
 231.595703125 1538 l 1,27,-1
 166.625976562 1494 l 1,28,-1
 165.98046875 1572 l 1,29,-1
 276.293945312 1675 l 1,30,-1
 323.293945312 1675 l 1,31,-1
 204.822265625 927 l 1,32,-1
 134.822265625 927 l 1,26,-1
EndSplineSet
EndChar

StartChar: onequarter
Encoding: 188 188 528
Width: 512
VWidth: 2441
GlyphClass: 1
Flags: HW
LayerCount: 2
Fore
SplineSet
231.729492188 93 m 1,0,-1
 302.729492188 93 l 1,1,-1
 341.850585938 340 l 1,2,-1
 231.729492188 93 l 1,0,-1
261.07421875 -170 m 1,3,-1
 289.108398438 7 l 1,4,-1
 154.108398438 7 l 1,5,-1
 166.145507812 83 l 1,6,-1
 395.229492188 576 l 1,7,-1
 444.229492188 576 l 1,8,-1
 367.729492188 93 l 1,9,-1
 399.729492188 93 l 1,10,-1
 385.791992188 5 l 1,11,-1
 353.791992188 5 l 1,12,-1
 326.07421875 -170 l 1,13,-1
 261.07421875 -170 l 1,3,-1
-2.3134765625 -103 m 1,14,-1
 -52.978515625 -63 l 1,15,-1
 535.216796875 1624 l 1,16,-1
 586.564453125 1582 l 1,17,-1
 -2.3134765625 -103 l 1,14,-1
121.822265625 927 m 1,18,-1
 218.595703125 1538 l 1,19,-1
 154.625976562 1494 l 1,20,-1
 153.98046875 1572 l 1,21,-1
 262.293945312 1675 l 1,22,-1
 307.293945312 1675 l 1,23,-1
 188.822265625 927 l 1,24,-1
 121.822265625 927 l 1,18,-1
EndSplineSet
EndChar

StartChar: threequarters
Encoding: 190 190 529
Width: 512
VWidth: 2441
GlyphClass: 1
Flags: HW
LayerCount: 2
Fore
SplineSet
291.729492188 93 m 1,0,-1
 330.850585938 340 l 1,1,-1
 221.729492188 93 l 1,2,-1
 291.729492188 93 l 1,0,-1
278.108398438 7 m 1,3,-1
 146.108398438 7 l 1,4,-1
 158.145507812 83 l 1,5,-1
 383.229492188 576 l 1,6,-1
 431.229492188 576 l 1,7,-1
 354.729492188 93 l 1,8,-1
 385.729492188 93 l 1,9,-1
 371.791992188 5 l 1,10,-1
 340.791992188 5 l 1,11,-1
 313.07421875 -170 l 1,12,-1
 250.07421875 -170 l 1,13,-1
 278.108398438 7 l 1,3,-1
-5.3134765625 -103 m 1,14,-1
 -54.978515625 -63 l 1,15,-1
 524.216796875 1624 l 1,16,-1
 573.564453125 1582 l 1,17,-1
 -5.3134765625 -103 l 1,14,-1
136.080078125 916 m 0,18,19
 101.080078125 916 101.080078125 916 81.27734375 942.5 c 128,-1,20
 61.474609375 969 61.474609375 969 51.126953125 1011 c 1,21,-1
 99.779296875 1053 l 1,22,-1
 117.3125 1069 l 1,23,-1
 121.204101562 1062 l 1,24,25
 108.877929688 1041 108.877929688 1041 119.126953125 1011 c 0,26,27
 127.434570312 994 127.434570312 994 144.434570312 994 c 0,28,29
 190.434570312 994 190.434570312 994 213.766601562 1135 c 0,30,31
 227.387695312 1221 227.387695312 1221 213.03515625 1253.5 c 128,-1,32
 201.794921875 1278.95214844 201.794921875 1278.95214844 172.724609375 1278.95214844 c 0,0,0
 164.674804688 1278.95214844 164.674804688 1278.95214844 155.256835938 1277 c 1,33,-1
 167.611328125 1355 l 1,34,35
 217.611328125 1355 217.611328125 1355 234.68359375 1396.5 c 128,-1,36
 251.756835938 1438 251.756835938 1438 260.625976562 1494 c 0,37,38
 277.256835938 1599 277.256835938 1599 242.256835938 1599 c 0,39,40
 217.256835938 1599 217.256835938 1599 191.38671875 1543 c 1,41,-1
 150.247070312 1580 l 1,42,43
 198.279296875 1677.00976562 198.279296875 1677.00976562 258.3828125 1677.00976562 c 0,0,0
 258.99609375 1677.00976562 258.99609375 1677.00976562 259.610351562 1677 c 0,44,45
 299.610351562 1677 299.610351562 1677 318.483398438 1632 c 128,-1,46
 337.356445312 1587 337.356445312 1587 322.151367188 1491 c 0,47,48
 312.96484375 1433 312.96484375 1433 294.99609375 1389 c 128,-1,49
 277.02734375 1345 277.02734375 1345 250.017578125 1326 c 1,50,51
 273.69140625 1305 273.69140625 1305 280.248046875 1258 c 128,-1,52
 286.803710938 1211 286.803710938 1211 274.291015625 1132 c 0,53,54
 257.661132812 1027 257.661132812 1027 220.870117188 971.5 c 128,-1,55
 184.080078125 916 184.080078125 916 136.080078125 916 c 0,18,19
EndSplineSet
EndChar

StartChar: uni2070.ss02
Encoding: 65566 -1 533
Width: 512
VWidth: 2441
GlyphClass: 1
Flags: HW
LayerCount: 2
Fore
SplineSet
319.176757812 683 m 0,0,1
 358.176757812 683 358.176757812 683 392.510742188 773.5 c 128,-1,2
 426.84375 864 426.84375 864 458.99609375 1067 c 0,3,4
 519.815429688 1451 519.815429688 1451 440.815429688 1451 c 0,5,6
 405.815429688 1451 405.815429688 1451 368.848632812 1356.5 c 128,-1,7
 331.880859375 1262 331.880859375 1262 300.99609375 1067 c 0,8,9
 268.84375 864 268.84375 864 278.010742188 773.5 c 128,-1,10
 287.176757812 683 287.176757812 683 319.176757812 683 c 0,0,1
303.337890625 583 m 0,11,12
 228.337890625 583 228.337890625 583 198.65625 695.5 c 128,-1,13
 168.974609375 808 168.974609375 808 209.99609375 1067 c 0,14,15
 249.909179688 1319 249.909179688 1319 315.702148438 1434.5 c 128,-1,16
 381.49609375 1550 381.49609375 1550 456.49609375 1550 c 0,17,18
 535.49609375 1550 535.49609375 1550 563.123046875 1434 c 128,-1,19
 590.750976562 1318 590.750976562 1318 550.99609375 1067 c 0,20,21
 509.974609375 808 509.974609375 808 446.15625 695.5 c 128,-1,22
 382.337890625 583 382.337890625 583 303.337890625 583 c 0,11,12
EndSplineSet
EndChar

StartChar: uni2070.zero
Encoding: 65570 -1 537
Width: 512
VWidth: 2441
GlyphClass: 1
Flags: HW
LayerCount: 2
Fore
SplineSet
381.51171875 1045 m 0,0,1
 362.51171875 1045 362.51171875 1045 352.466796875 1060.5 c 128,-1,2
 342.421875 1076 342.421875 1076 346.064453125 1099 c 0,3,4
 349.390625 1120 349.390625 1120 364.50390625 1136.5 c 128,-1,5
 379.6171875 1153 379.6171875 1153 398.6171875 1153 c 0,6,7
 415.6171875 1153 415.6171875 1153 426.583007812 1137 c 128,-1,8
 437.548828125 1121 437.548828125 1121 434.064453125 1099 c 0,9,10
 430.73828125 1078 430.73828125 1078 414.625 1061.5 c 128,-1,11
 398.51171875 1045 398.51171875 1045 381.51171875 1045 c 0,0,1
319.176757812 683 m 0,12,13
 358.176757812 683 358.176757812 683 392.510742188 773.5 c 128,-1,14
 426.84375 864 426.84375 864 458.99609375 1067 c 0,15,16
 519.815429688 1451 519.815429688 1451 440.815429688 1451 c 0,17,18
 405.815429688 1451 405.815429688 1451 368.848632812 1356.5 c 128,-1,19
 331.880859375 1262 331.880859375 1262 300.99609375 1067 c 0,20,21
 268.84375 864 268.84375 864 278.010742188 773.5 c 128,-1,22
 287.176757812 683 287.176757812 683 319.176757812 683 c 0,12,13
303.337890625 583 m 0,23,24
 228.337890625 583 228.337890625 583 198.65625 695.5 c 128,-1,25
 168.974609375 808 168.974609375 808 209.99609375 1067 c 0,26,27
 249.909179688 1319 249.909179688 1319 315.702148438 1434.5 c 128,-1,28
 381.49609375 1550 381.49609375 1550 456.49609375 1550 c 0,29,30
 535.49609375 1550 535.49609375 1550 563.123046875 1434 c 128,-1,31
 590.750976562 1318 590.750976562 1318 550.99609375 1067 c 0,32,33
 509.974609375 808 509.974609375 808 446.15625 695.5 c 128,-1,34
 382.337890625 583 382.337890625 583 303.337890625 583 c 0,23,24
EndSplineSet
EndChar

StartChar: period
Encoding: 46 46 538
Width: 512
VWidth: 2607
GlyphClass: 1
Flags: HW
LayerCount: 2
Fore
SplineSet
223.540039062 136 m 128,-1,1
 186.540039062 136 186.540039062 136 165.6875 168.5 c 128,-1,2
 144.834960938 201 144.834960938 201 151.803710938 245 c 128,-1,3
 158.7734375 289 158.7734375 289 189.762695312 320.5 c 128,-1,4
 220.750976562 352 220.750976562 352 257.750976562 352 c 128,-1,5
 294.750976562 352 294.750976562 352 315.182617188 320 c 128,-1,6
 335.614257812 288 335.614257812 288 328.803710938 245 c 0,7,8
 321.834960938 201 321.834960938 201 291.1875 168.5 c 128,-1,0
 260.540039062 136 260.540039062 136 223.540039062 136 c 128,-1,1
EndSplineSet
EndChar

StartChar: comma
Encoding: 44 44 539
Width: 512
VWidth: 2607
GlyphClass: 1
Flags: HW
LayerCount: 2
Fore
SplineSet
153.354492188 -244 m 1,0,-1
 107.431640625 -193 l 1,1,2
 152.41015625 -130 152.41015625 -130 184.4921875 -69.5 c 128,-1,3
 216.57421875 -9 216.57421875 -9 223.702148438 36 c 0,4,5
 229.245117188 71 229.245117188 71 217.625976562 95.5 c 128,-1,6
 206.005859375 120 206.005859375 120 196.099609375 149 c 128,-1,7
 186.192382812 178 186.192382812 178 193.161132812 222 c 0,8,9
 202.823242188 283 202.823242188 283 233.787109375 317.5 c 128,-1,10
 264.750976562 352 264.750976562 352 296.750976562 352 c 128,-1,11
 328.750976562 352 328.750976562 352 353.049804688 316 c 128,-1,12
 377.34765625 280 377.34765625 280 363.092773438 190 c 0,13,14
 347.571289062 92 347.571289062 92 294.153320312 -8.5 c 128,-1,15
 240.736328125 -109 240.736328125 -109 153.354492188 -244 c 1,0,-1
EndSplineSet
EndChar

StartChar: colon
Encoding: 58 58 540
Width: 512
VWidth: 2716
GlyphClass: 1
Flags: HW
LayerCount: 2
Fore
SplineSet
263.803710938 245 m 128,-1,1
 226.803710938 245 226.803710938 245 206.952148438 277.5 c 128,-1,2
 187.099609375 310 187.099609375 310 194.068359375 354 c 128,-1,3
 201.037109375 398 201.037109375 398 232.026367188 429.5 c 128,-1,4
 263.015625 461 263.015625 461 298.015625 461 c 0,5,6
 335.015625 461 335.015625 461 355.947265625 429 c 128,-1,7
 376.87890625 397 376.87890625 397 370.068359375 354 c 0,8,9
 363.099609375 310 363.099609375 310 331.952148438 277.5 c 128,-1,0
 300.803710938 245 300.803710938 245 263.803710938 245 c 128,-1,1
392.5703125 1058 m 128,-1,11
 355.5703125 1058 355.5703125 1058 335.717773438 1090.5 c 128,-1,12
 315.866210938 1123 315.866210938 1123 322.834960938 1167 c 128,-1,13
 329.803710938 1211 329.803710938 1211 360.79296875 1242.5 c 128,-1,14
 391.782226562 1274 391.782226562 1274 426.782226562 1274 c 0,15,16
 463.782226562 1274 463.782226562 1274 484.713867188 1242 c 128,-1,17
 505.645507812 1210 505.645507812 1210 498.834960938 1167 c 0,18,19
 491.866210938 1123 491.866210938 1123 460.717773438 1090.5 c 128,-1,10
 429.5703125 1058 429.5703125 1058 392.5703125 1058 c 128,-1,11
EndSplineSet
EndChar

StartChar: semicolon
Encoding: 59 59 541
Width: 512
VWidth: 2716
GlyphClass: 1
Flags: HW
LayerCount: 2
Fore
SplineSet
157.618164062 -135 m 1,0,-1
 111.6953125 -84 l 1,1,2
 156.673828125 -21 156.673828125 -21 189.255859375 39.5 c 128,-1,3
 221.838867188 100 221.838867188 100 228.965820312 145 c 0,4,5
 234.508789062 180 234.508789062 180 223.889648438 204.5 c 128,-1,6
 213.270507812 229 213.270507812 229 202.36328125 258 c 128,-1,7
 191.456054688 287 191.456054688 287 198.424804688 331 c 0,8,9
 208.086914062 392 208.086914062 392 239.05078125 426.5 c 128,-1,10
 270.015625 461 270.015625 461 301.015625 461 c 0,11,12
 333.015625 461 333.015625 461 357.813476562 425 c 128,-1,13
 382.611328125 389 382.611328125 389 368.357421875 299 c 0,14,15
 352.834960938 201 352.834960938 201 298.91796875 100.5 c 128,-1,16
 245 0 245 0 157.618164062 -135 c 1,0,-1
392.5703125 1058 m 128,-1,18
 355.5703125 1058 355.5703125 1058 335.717773438 1090.5 c 128,-1,19
 315.866210938 1123 315.866210938 1123 322.834960938 1167 c 128,-1,20
 329.803710938 1211 329.803710938 1211 360.79296875 1242.5 c 128,-1,21
 391.782226562 1274 391.782226562 1274 426.782226562 1274 c 0,22,23
 463.782226562 1274 463.782226562 1274 484.713867188 1242 c 128,-1,24
 505.645507812 1210 505.645507812 1210 498.834960938 1167 c 0,25,26
 491.866210938 1123 491.866210938 1123 460.717773438 1090.5 c 128,-1,17
 429.5703125 1058 429.5703125 1058 392.5703125 1058 c 128,-1,18
EndSplineSet
EndChar

StartChar: ellipsis
Encoding: 8230 8230 542
Width: 512
VWidth: 2441
GlyphClass: 1
Flags: HW
LayerCount: 2
Fore
SplineSet
-19.751953125 -30 m 128,-1,1
 -50.751953125 -30 -50.751953125 -30 -66.6044921875 2.5 c 128,-1,2
 -82.45703125 35 -82.45703125 35 -75.4873046875 79 c 128,-1,3
 -68.5185546875 123 -68.5185546875 123 -42.529296875 154.5 c 128,-1,4
 -16.5400390625 186 -16.5400390625 186 14.4599609375 186 c 128,-1,5
 45.4599609375 186 45.4599609375 186 61.3916015625 154 c 128,-1,6
 77.3232421875 122 77.3232421875 122 70.5126953125 79 c 0,7,8
 63.54296875 35 63.54296875 35 37.3955078125 2.5 c 128,-1,0
 11.248046875 -30 11.248046875 -30 -19.751953125 -30 c 128,-1,1
146.248046875 -30 m 128,-1,10
 115.248046875 -30 115.248046875 -30 99.3955078125 2.5 c 128,-1,11
 83.54296875 35 83.54296875 35 90.5126953125 79 c 128,-1,12
 97.4814453125 123 97.4814453125 123 123.470703125 154.5 c 128,-1,13
 149.459960938 186 149.459960938 186 180.459960938 186 c 128,-1,14
 211.459960938 186 211.459960938 186 227.391601562 154 c 128,-1,15
 243.323242188 122 243.323242188 122 236.512695312 79 c 0,16,17
 229.54296875 35 229.54296875 35 203.395507812 2.5 c 128,-1,9
 177.248046875 -30 177.248046875 -30 146.248046875 -30 c 128,-1,10
314.248046875 -30 m 128,-1,19
 283.248046875 -30 283.248046875 -30 267.395507812 2.5 c 128,-1,20
 251.54296875 35 251.54296875 35 258.512695312 79 c 128,-1,21
 265.481445312 123 265.481445312 123 291.470703125 154.5 c 128,-1,22
 317.459960938 186 317.459960938 186 348.459960938 186 c 128,-1,23
 379.459960938 186 379.459960938 186 395.391601562 154 c 128,-1,24
 411.323242188 122 411.323242188 122 404.512695312 79 c 0,25,26
 397.54296875 35 397.54296875 35 371.395507812 2.5 c 128,-1,18
 345.248046875 -30 345.248046875 -30 314.248046875 -30 c 128,-1,19
EndSplineSet
EndChar

StartChar: exclam
Encoding: 33 33 543
Width: 512
VWidth: 2441
GlyphClass: 1
Flags: HW
LayerCount: 2
Fore
SplineSet
197.248046875 -30 m 128,-1,1
 160.248046875 -30 160.248046875 -30 139.395507812 2.5 c 128,-1,2
 118.54296875 35 118.54296875 35 125.512695312 79 c 128,-1,3
 132.481445312 123 132.481445312 123 163.470703125 154.5 c 128,-1,4
 194.459960938 186 194.459960938 186 231.459960938 186 c 128,-1,5
 268.459960938 186 268.459960938 186 288.891601562 154 c 128,-1,6
 309.323242188 122 309.323242188 122 302.512695312 79 c 0,7,8
 295.54296875 35 295.54296875 35 264.895507812 2.5 c 128,-1,0
 234.248046875 -30 234.248046875 -30 197.248046875 -30 c 128,-1,1
236.916015625 473 m 1,9,-1
 360.259765625 1498 l 2,10,11
 360.8984375 1503.08300781 360.8984375 1503.08300781 361.67578125 1507.99316406 c 0,12,13
 370.229492188 1562 370.229492188 1562 395.623046875 1595 c 0,14,15
 423.325195312 1631 423.325195312 1631 460.325195312 1631 c 0,16,17
 495.325195312 1631 495.325195312 1631 513.202148438 1595.5 c 0,18,19
 527.943359375 1566.22851562 527.943359375 1566.22851562 517.9765625 1503.30078125 c 0,20,21
 515.856445312 1489.91210938 515.856445312 1489.91210938 512.6171875 1475 c 2,22,-1
 313.916015625 473 l 1,23,-1
 236.916015625 473 l 1,9,-1
EndSplineSet
EndChar

StartChar: question
Encoding: 63 63 545
Width: 512
VWidth: 2441
GlyphClass: 1
Flags: HW
LayerCount: 2
Fore
SplineSet
225.248046875 -30 m 128,-1,1
 188.248046875 -30 188.248046875 -30 168.395507812 2.5 c 128,-1,2
 148.54296875 35 148.54296875 35 155.512695312 79 c 128,-1,3
 162.481445312 123 162.481445312 123 192.970703125 154.5 c 128,-1,4
 223.459960938 186 223.459960938 186 259.459960938 186 c 0,5,6
 296.459960938 186 296.459960938 186 316.891601562 154 c 128,-1,7
 337.323242188 122 337.323242188 122 330.512695312 79 c 0,8,9
 323.54296875 35 323.54296875 35 292.895507812 2.5 c 128,-1,0
 262.248046875 -30 262.248046875 -30 225.248046875 -30 c 128,-1,1
250.46875 527 m 2,10,11
 267.890625 637 267.890625 637 295.294921875 709 c 128,-1,12
 322.698242188 781 322.698242188 781 355.513671875 833.5 c 128,-1,13
 388.329101562 886 388.329101562 886 420.90625 937 c 128,-1,14
 453.483398438 988 453.483398438 988 479.833007812 1056.5 c 128,-1,15
 506.182617188 1125 506.182617188 1125 522.8125 1230 c 0,16,17
 540.235351562 1340 540.235351562 1340 529.193359375 1415.5 c 128,-1,18
 518.151367188 1491 518.151367188 1491 457.151367188 1491 c 0,19,20
 387.151367188 1491 387.151367188 1491 322.3125 1391 c 1,21,22
 304.452148438 1354 304.452148438 1354 299.1015625 1336 c 128,-1,23
 293.750976562 1318 293.750976562 1318 299.741210938 1299 c 1,24,-1
 289.890625 1281 l 1,25,-1
 269.474609375 1291 l 1,26,-1
 202.303710938 1372 l 1,27,28
 263.151367188 1491 263.151367188 1491 328.18359375 1557.5 c 128,-1,29
 393.216796875 1624 393.216796875 1624 482.216796875 1624 c 0,30,31
 580.216796875 1624 580.216796875 1624 625.515625 1537.5 c 128,-1,32
 670.815429688 1451 670.815429688 1451 637.713867188 1242 c 0,33,34
 618.390625 1120 618.390625 1120 589.877929688 1041 c 128,-1,35
 561.366210938 962 561.366210938 962 529.49609375 906 c 128,-1,36
 497.626953125 850 497.626953125 850 465.208007812 800 c 128,-1,37
 432.788085938 750 432.788085938 750 406.651367188 686 c 128,-1,38
 380.514648438 622 380.514648438 622 365.46875 527 c 2,39,-1
 349.629882812 427 l 1,40,-1
 234.629882812 427 l 1,41,-1
 250.46875 527 l 2,10,11
EndSplineSet
EndChar

StartChar: periodcentered
Encoding: 183 183 547
Width: 512
VWidth: 2441
GlyphClass: 1
Flags: HW
LayerCount: 2
Fore
SplineSet
313.344726562 703 m 128,-1,1
 276.344726562 703 276.344726562 703 255.412109375 735 c 128,-1,2
 234.48046875 767 234.48046875 767 241.450195312 811 c 128,-1,3
 248.418945312 855 248.418945312 855 279.408203125 886.5 c 128,-1,4
 310.396484375 918 310.396484375 918 347.396484375 918 c 128,-1,5
 384.396484375 918 384.396484375 918 404.908203125 886.5 c 128,-1,6
 425.418945312 855 425.418945312 855 418.450195312 811 c 128,-1,7
 411.48046875 767 411.48046875 767 380.912109375 735 c 128,-1,0
 350.344726562 703 350.344726562 703 313.344726562 703 c 128,-1,1
EndSplineSet
Substitution2: "Single Substitution lookup 11 subtable" periodcentered.loclCAT
Substitution2: "Single Substitution lookup 10 subtable" periodcentered.loclCAT
Substitution2: "'aalt' Access All Alternates in Latin lookup 0 subtable" periodcentered.loclCAT
EndChar

StartChar: bullet
Encoding: 8226 8226 548
Width: 512
VWidth: 2441
GlyphClass: 1
Flags: HW
LayerCount: 2
Fore
SplineSet
318.75390625 573 m 0,0,1
 272.75390625 573 272.75390625 573 246.564453125 616 c 128,-1,2
 220.375 659 220.375 659 229.245117188 715 c 0,3,4
 238.90625 776 238.90625 776 280.979492188 817.5 c 128,-1,5
 323.051757812 859 323.051757812 859 364.051757812 859 c 0,6,7
 410.051757812 859 410.051757812 859 437.821289062 816.5 c 128,-1,8
 465.58984375 774 465.58984375 774 456.245117188 715 c 0,9,10
 447.375 659 447.375 659 407.564453125 616 c 128,-1,11
 367.75390625 573 367.75390625 573 318.75390625 573 c 0,0,1
EndSplineSet
EndChar

StartChar: asterisk
Encoding: 42 42 549
Width: 512
VWidth: 2441
GlyphClass: 1
Flags: HW
LayerCount: 2
Fore
SplineSet
103.515625 300 m 1,0,-1
 41.13671875 386 l 1,1,-1
 249.797851562 769 l 1,2,-1
 86.3876953125 899 l 1,3,-1
 146.819335938 1028 l 1,4,-1
 283.745117188 876 l 1,5,-1
 339.325195312 1309 l 1,6,-1
 447.325195312 1309 l 1,7,-1
 359.745117188 876 l 1,8,-1
 556.819335938 1028 l 1,9,-1
 566.387695312 899 l 1,10,-1
 350.797851562 769 l 1,11,-1
 447.13671875 386 l 1,12,-1
 356.990234375 303 l 1,13,-1
 287.750976562 674 l 1,14,-1
 103.515625 300 l 1,0,-1
EndSplineSet
Substitution2: "'ss01' Style Set 1 in Latin lookup 35 subtable" asterisk.ss01
Substitution2: "'salt' Stylistic Alternatives in Latin lookup 34 subtable" asterisk.ss01
Substitution2: "'aalt' Access All Alternates in Latin lookup 0 subtable" asterisk.ss01
EndChar

StartChar: uni2E12
Encoding: 11794 11794 550
Width: 512
VWidth: 2212
GlyphClass: 1
Flags: HW
LayerCount: 2
Fore
SplineSet
85.037109375 -246 m 1,0,-1
 101.826171875 -140 l 1,1,2
 138.826171875 -140 138.826171875 -140 165.170898438 -81 c 128,-1,3
 191.515625 -22 191.515625 -22 202.444335938 47 c 0,4,5
 213.53125 117 213.53125 117 206.034179688 177 c 128,-1,6
 198.537109375 237 198.537109375 237 161.537109375 237 c 1,7,-1
 177.850585938 340 l 1,8,9
 240.850585938 340 240.850585938 340 275.263671875 270 c 128,-1,10
 309.676757812 200 309.676757812 200 285.126953125 45 c 0,11,12
 261.370117188 -105 261.370117188 -105 204.703125 -175.5 c 128,-1,13
 148.037109375 -246 148.037109375 -246 85.037109375 -246 c 1,0,-1
EndSplineSet
EndChar

StartChar: numbersign
Encoding: 35 35 551
Width: 512
VWidth: 2441
GlyphClass: 1
Flags: HW
LayerCount: 2
Fore
SplineSet
207.229492188 576 m 1,0,-1
 307.229492188 576 l 1,1,-1
 395.54296875 1001 l 1,2,-1
 295.54296875 1001 l 1,3,-1
 207.229492188 576 l 1,0,-1
189.80078125 24 m 1,4,-1
 285.390625 476 l 1,5,-1
 184.390625 476 l 1,6,-1
 90.54296875 35 l 1,7,-1
 11.068359375 32 l 1,8,-1
 102.598632812 471 l 1,9,-1
 8.5986328125 471 l 1,10,-1
 28.4375 571 l 1,11,-1
 124.4375 571 l 1,12,-1
 213.225585938 999 l 1,13,-1
 107.225585938 999 l 1,14,-1
 125.380859375 1101 l 1,15,-1
 237.380859375 1101 l 1,16,-1
 324.219726562 1523 l 1,17,-1
 407.01171875 1528 l 1,18,-1
 318.172851562 1106 l 1,19,-1
 419.172851562 1106 l 1,20,-1
 505.5859375 1519 l 1,21,-1
 588.90234375 1521 l 1,22,-1
 502.96484375 1111 l 1,23,-1
 589.96484375 1111 l 1,24,-1
 567.334960938 1006 l 1,25,-1
 479.334960938 1006 l 1,26,-1
 389.337890625 583 l 1,27,-1
 487.337890625 583 l 1,28,-1
 465.658203125 484 l 1,29,-1
 369.658203125 484 l 1,30,-1
 274.54296875 35 l 1,31,-1
 189.80078125 24 l 1,4,-1
EndSplineSet
EndChar

StartChar: slash
Encoding: 47 47 552
Width: 512
VWidth: 2441
GlyphClass: 1
Flags: HW
LayerCount: 2
Fore
SplineSet
51.6865234375 -103 m 1,0,-1
 -51.869140625 -56 l 1,1,-1
 583.216796875 1624 l 1,2,-1
 685.98046875 1572 l 1,3,-1
 51.6865234375 -103 l 1,0,-1
EndSplineSet
Substitution2: "'frac' Diagonal Fractions in Latin lookup 23 subtable" fraction
Substitution2: "'aalt' Access All Alternates in Latin lookup 0 subtable" fraction
EndChar

StartChar: backslash
Encoding: 92 92 553
Width: 512
VWidth: 2441
GlyphClass: 1
Flags: HW
LayerCount: 2
Fore
SplineSet
309.686523438 -103 m 1,0,-1
 205.98046875 1572 l 1,1,-1
 325.216796875 1624 l 1,2,-1
 428.130859375 -56 l 1,3,-1
 309.686523438 -103 l 1,0,-1
EndSplineSet
EndChar

StartChar: asterisk.ss01
Encoding: 65572 -1 555
Width: 512
VWidth: 2441
GlyphClass: 1
Flags: HW
LayerCount: 2
Fore
SplineSet
126.797851562 447 m 1,0,-1
 64.2607421875 532 l 1,1,-1
 273.080078125 916 l 1,2,-1
 109.51171875 1045 l 1,3,-1
 169.943359375 1174 l 1,4,-1
 307.02734375 1023 l 1,5,-1
 362.607421875 1456 l 1,6,-1
 470.607421875 1456 l 1,7,-1
 383.02734375 1023 l 1,8,-1
 579.943359375 1174 l 1,9,-1
 589.51171875 1045 l 1,10,-1
 374.080078125 916 l 1,11,-1
 470.260742188 532 l 1,12,-1
 380.114257812 449 l 1,13,-1
 310.875 820 l 1,14,-1
 126.797851562 447 l 1,0,-1
EndSplineSet
EndChar

StartChar: parenleft
Encoding: 40 40 556
Width: 512
VWidth: 2449
GlyphClass: 1
Flags: HW
LayerCount: 2
Fore
SplineSet
331.037109375 -246 m 1,0,1
 246.083984375 -151 246.083984375 -151 190.92578125 9 c 128,-1,2
 135.766601562 169 135.766601562 169 121.181640625 370.5 c 128,-1,3
 106.595703125 572 106.595703125 572 140.96484375 789 c 128,-1,4
 175.334960938 1006 175.334960938 1006 251.45703125 1202.5 c 128,-1,5
 327.580078125 1399 327.580078125 1399 431.629882812 1554 c 128,-1,6
 535.678710938 1709 535.678710938 1709 648.409179688 1802 c 1,7,-1
 683.669921875 1690 l 1,8,9
 591.048828125 1604 591.048828125 1604 504.3203125 1460.5 c 128,-1,10
 417.592773438 1317 417.592773438 1317 351.216796875 1141 c 128,-1,11
 284.840820312 965 284.840820312 965 255.856445312 782 c 0,12,13
 226.713867188 598 226.713867188 598 237.497070312 423 c 128,-1,14
 248.279296875 248 248.279296875 248 291.234375 102.5 c 128,-1,15
 334.189453125 -43 334.189453125 -43 400.251953125 -131 c 1,16,-1
 331.037109375 -246 l 1,0,1
EndSplineSet
EndChar

StartChar: parenright
Encoding: 41 41 557
Width: 512
VWidth: 2449
GlyphClass: 1
Flags: HW
LayerCount: 2
Fore
SplineSet
37.037109375 -246 m 1,0,1
 152.083984375 -151 152.083984375 -151 259.42578125 9 c 0,2,3
 365.766601562 169 365.766601562 169 442.602539062 370 c 0,4,5
 520.4375 571 520.4375 571 555.96484375 789 c 0,6,7
 590.334960938 1006 590.334960938 1006 575.377929688 1202 c 0,8,9
 561.580078125 1399 561.580078125 1399 507.129882812 1554 c 0,10,11
 451.678710938 1709 451.678710938 1709 370.409179688 1802 c 1,12,-1
 297.669921875 1690 l 1,13,14
 363.048828125 1604 363.048828125 1604 404.399414062 1461 c 0,15,16
 445.592773438 1317 445.592773438 1317 456.55859375 1140 c 0,17,18
 466.840820312 965 466.840820312 965 437.856445312 782 c 0,19,20
 408.713867188 598 408.713867188 598 342.997070312 423 c 0,21,22
 277.279296875 248 277.279296875 248 188.155273438 102 c 0,23,24
 99.189453125 -43 99.189453125 -43 4.251953125 -131 c 1,25,-1
 37.037109375 -246 l 1,0,1
EndSplineSet
EndChar

StartChar: braceleft
Encoding: 123 123 558
Width: 512
VWidth: 2486
GlyphClass: 1
Flags: HW
LayerCount: 2
Fore
SplineSet
347.381835938 -187 m 2,0,1
 259.381835938 -187 259.381835938 -187 201.504882812 -151.5 c 128,-1,2
 143.626953125 -116 143.626953125 -116 126.778320312 -23.5 c 128,-1,3
 111.393554688 60.9560546875 111.393554688 60.9560546875 135.267578125 211.688476562 c 0,0,0
 137.541015625 226.043945312 137.541015625 226.043945312 140.170898438 241 c 2,4,-1
 182.81640625 485 l 2,5,6
 208.31640625 646 208.31640625 646 189.185546875 702 c 128,-1,7
 170.055664062 758 170.055664062 758 117.055664062 758 c 2,8,-1
 92.0556640625 758 l 1,9,-1
 113.75390625 895 l 1,10,-1
 138.75390625 895 l 2,11,12
 194.75390625 895 194.75390625 895 232.415039062 956 c 128,-1,13
 270.077148438 1017 270.077148438 1017 292.092773438 1156 c 2,14,-1
 316.809570312 1331 l 2,15,16
 350.38671875 1543 350.38671875 1543 431.833984375 1650 c 128,-1,17
 513.28125 1757 513.28125 1757 624.28125 1757 c 2,18,-1
 701.28125 1757 l 1,19,-1
 680.69140625 1627 l 1,20,-1
 600.69140625 1627 l 2,21,22
 546.69140625 1627 546.69140625 1627 505.104492188 1557 c 128,-1,23
 463.517578125 1487 463.517578125 1487 443.244140625 1359 c 2,24,-1
 418.001953125 1187 l 2,25,26
 396.620117188 1052 396.620117188 1052 353.366210938 962 c 128,-1,27
 310.111328125 872 310.111328125 872 248.825195312 826 c 1,28,29
 294.282226562 791 294.282226562 791 308.973632812 697.5 c 128,-1,30
 323.6640625 604 323.6640625 604 298.956054688 448 c 2,31,-1
 263.487304688 243 l 2,32,33
 237.1953125 77 237.1953125 77 259.846679688 8.5 c 128,-1,34
 282.497070312 -60 282.497070312 -60 350.497070312 -60 c 2,35,-1
 411.497070312 -60 l 1,36,-1
 391.381835938 -187 l 1,37,-1
 347.381835938 -187 l 2,0,1
EndSplineSet
EndChar

StartChar: braceright
Encoding: 125 125 559
Width: 512
VWidth: 2486
GlyphClass: 1
Flags: HW
LayerCount: 2
Fore
SplineSet
15.3818359375 -187 m 2,0,1
 103.381835938 -187 103.381835938 -187 172.92578125 -152 c 0,2,3
 241.626953125 -116 241.626953125 -116 288.357421875 -23 c 0,4,5
 331.081054688 62.0283203125 331.081054688 62.0283203125 354.875976562 212.258789062 c 0,0,0
 357.106445312 226.342773438 357.106445312 226.342773438 359.170898438 241 c 2,1,-1
 392.81640625 485 l 2,2,3
 418.31640625 646 418.31640625 646 456.185546875 702 c 0,4,5
 494.055664062 758 494.055664062 758 546.055664062 758 c 2,6,-1
 571.055664062 758 l 1,7,-1
 592.75390625 895 l 1,8,-1
 567.75390625 895 l 2,9,10
 511.75390625 895 511.75390625 895 493.415039062 956 c 0,11,12
 474.721679688 1014.96679688 474.721679688 1014.96679688 495.60546875 1146.8203125 c 0,0,0
 496.325195312 1151.36621094 496.325195312 1151.36621094 497.092773438 1156 c 2,1,-1
 526.809570312 1331 l 2,2,3
 560.38671875 1543 560.38671875 1543 513.493164062 1651 c 0,4,5
 466.28125 1757 466.28125 1757 354.28125 1757 c 2,6,-1
 277.28125 1757 l 1,7,-1
 256.69140625 1627 l 1,8,-1
 336.69140625 1627 l 2,9,10
 390.69140625 1627 390.69140625 1627 409.762695312 1558 c 0,11,12
 429.833984375 1489 429.833984375 1489 409.244140625 1359 c 2,13,-1
 380.001953125 1187 l 2,14,15
 358.620117188 1052 358.620117188 1052 373.524414062 963 c 0,16,17
 389.111328125 872 389.111328125 872 434.825195312 826 c 1,18,19
 378.282226562 791 378.282226562 791 333.552734375 698 c 0,20,21
 290.112304688 607.032226562 290.112304688 607.032226562 266.5078125 458 c 0,0,0
 265.720703125 453.032226562 265.720703125 453.032226562 264.956054688 448 c 2,1,-1
 235.487304688 243 l 2,2,3
 209.1953125 77 209.1953125 77 164.266601562 8 c 0,4,5
 120.497070312 -60 120.497070312 -60 52.4970703125 -60 c 2,6,-1
 -8.5029296875 -60 l 1,7,-1
 -28.6181640625 -187 l 1,8,-1
 15.3818359375 -187 l 2,0,1
EndSplineSet
EndChar

StartChar: bracketleft
Encoding: 91 91 560
Width: 512
VWidth: 2516
GlyphClass: 1
Flags: HW
LayerCount: 2
Fore
SplineSet
22.509765625 -142 m 1,0,-1
 315.99609375 1711 l 1,1,-1
 686.99609375 1711 l 1,2,-1
 665.138671875 1573 l 1,3,-1
 416.138671875 1573 l 1,4,-1
 164.94140625 -13 l 1,5,-1
 416.94140625 -13 l 1,6,-1
 396.509765625 -142 l 1,7,-1
 22.509765625 -142 l 1,0,-1
EndSplineSet
EndChar

StartChar: bracketright
Encoding: 93 93 561
Width: 512
VWidth: 2516
GlyphClass: 1
Flags: HW
LayerCount: 2
Fore
SplineSet
354.509765625 -142 m 1,0,-1
 647.99609375 1711 l 1,1,-1
 276.99609375 1711 l 1,2,-1
 255.138671875 1573 l 1,3,-1
 504.138671875 1573 l 1,4,-1
 252.94140625 -13 l 1,5,-1
 1.94140625 -13 l 1,6,-1
 -18.490234375 -142 l 1,7,-1
 354.509765625 -142 l 1,0,-1
EndSplineSet
EndChar

StartChar: hyphen
Encoding: 45 45 562
Width: 512
VWidth: 2441
GlyphClass: 1
Flags: HW
LayerCount: 2
Fore
SplineSet
155.135742188 708 m 1,0,-1
 177.626953125 850 l 1,1,-1
 518.626953125 850 l 1,2,-1
 496.135742188 708 l 1,3,-1
 155.135742188 708 l 1,0,-1
EndSplineSet
EndChar

StartChar: endash
Encoding: 8211 8211 564
Width: 512
VWidth: 2441
GlyphClass: 1
Flags: HW
LayerCount: 2
Fore
SplineSet
106.135742188 708 m 1,0,-1
 128.626953125 850 l 1,1,-1
 567.626953125 850 l 1,2,-1
 545.135742188 708 l 1,3,-1
 106.135742188 708 l 1,0,-1
EndSplineSet
EndChar

StartChar: emdash
Encoding: 8212 8212 565
Width: 512
VWidth: 2441
GlyphClass: 1
Flags: HW
LayerCount: 2
Fore
SplineSet
21.1357421875 708 m 1,0,-1
 43.626953125 850 l 1,1,-1
 523.626953125 850 l 1,2,-1
 501.135742188 708 l 1,3,-1
 21.1357421875 708 l 1,0,-1
EndSplineSet
EndChar

StartChar: underscore
Encoding: 95 95 569
Width: 512
VWidth: 2441
GlyphClass: 1
Flags: HW
LayerCount: 2
Fore
SplineSet
-86.2509765625 -191 m 1,0,-1
 -64.552734375 -54 l 1,1,-1
 415.447265625 -54 l 1,2,-1
 393.749023438 -191 l 1,3,-1
 -86.2509765625 -191 l 1,0,-1
EndSplineSet
EndChar

StartChar: quotedblleft
Encoding: 8220 8220 572
Width: 512
VWidth: 2441
GlyphClass: 1
Flags: HW
LayerCount: 2
Fore
SplineSet
378.762695312 1558 m 1,0,-1
 425.685546875 1507 l 1,1,2
 314.995117188 1376.43457031 314.995117188 1376.43457031 296.174804688 1257.61035156 c 0,3,4
 290.220703125 1220.01367188 290.220703125 1220.01367188 304.32421875 1198.5 c 128,-1,5
 318.418945312 1177 318.418945312 1177 332.038085938 1152.5 c 128,-1,6
 345.657226562 1128 345.657226562 1128 338.688476562 1084 c 0,7,8
 330.135742188 1030 330.135742188 1030 301.750976562 996 c 128,-1,9
 273.366210938 962 273.366210938 962 239.366210938 962 c 0,10,11
 202.366210938 962 202.366210938 962 181.176757812 1005 c 128,-1,12
 159.987304688 1048 159.987304688 1048 171.07421875 1118 c 0,13,14
 186.595703125 1216 186.595703125 1216 234.48828125 1319.5 c 128,-1,15
 282.380859375 1423 282.380859375 1423 378.762695312 1558 c 1,0,-1
636.762695312 1558 m 1,16,-1
 682.685546875 1507 l 1,17,18
 570.778320312 1375 570.778320312 1375 551.772460938 1255 c 0,19,20
 546.229492188 1220 546.229492188 1220 561.32421875 1198.5 c 128,-1,21
 576.418945312 1177 576.418945312 1177 589.038085938 1152.5 c 128,-1,22
 601.657226562 1128 601.657226562 1128 594.688476562 1084 c 0,23,24
 586.135742188 1030 586.135742188 1030 557.750976562 996 c 128,-1,25
 529.366210938 962 529.366210938 962 495.366210938 962 c 0,26,27
 458.366210938 962 458.366210938 962 437.676757812 1005 c 128,-1,28
 416.987304688 1048 416.987304688 1048 428.07421875 1118 c 0,29,30
 443.595703125 1216 443.595703125 1216 491.98828125 1319.5 c 128,-1,31
 540.380859375 1423 540.380859375 1423 636.762695312 1558 c 1,16,-1
EndSplineSet
EndChar

StartChar: quoteleft
Encoding: 8216 8216 574
Width: 512
VWidth: 2441
GlyphClass: 1
Flags: HW
LayerCount: 2
Fore
SplineSet
501.762695312 1558 m 1,0,-1
 547.685546875 1507 l 1,1,2
 435.778320312 1375 435.778320312 1375 416.772460938 1255 c 0,3,4
 411.229492188 1220 411.229492188 1220 426.32421875 1198.5 c 128,-1,5
 441.418945312 1177 441.418945312 1177 455.038085938 1152.5 c 128,-1,6
 468.657226562 1128 468.657226562 1128 461.688476562 1084 c 0,7,8
 453.135742188 1030 453.135742188 1030 424.250976562 996 c 128,-1,9
 395.366210938 962 395.366210938 962 361.366210938 962 c 0,10,11
 324.366210938 962 324.366210938 962 303.176757812 1005 c 128,-1,12
 281.987304688 1048 281.987304688 1048 293.07421875 1118 c 0,13,14
 308.595703125 1216 308.595703125 1216 356.98828125 1319.5 c 128,-1,15
 405.380859375 1423 405.380859375 1423 501.762695312 1558 c 1,0,-1
EndSplineSet
EndChar

StartChar: quoteright
Encoding: 8217 8217 575
Width: 512
VWidth: 2441
GlyphClass: 1
Flags: HW
LayerCount: 2
Fore
SplineSet
302.366210938 962 m 1,0,-1
 257.443359375 1013 l 1,1,2
 368.133789062 1143.56542969 368.133789062 1143.56542969 386.954101562 1262.38964844 c 0,3,4
 392.908203125 1299.98632812 392.908203125 1299.98632812 379.225585938 1321 c 128,-1,5
 365.551757812 1342 365.551757812 1342 351.169921875 1368 c 128,-1,6
 336.788085938 1394 336.788085938 1394 343.28125 1435 c 0,7,8
 352.151367188 1491 352.151367188 1491 380.45703125 1524.5 c 128,-1,9
 408.762695312 1558 408.762695312 1558 443.762695312 1558 c 0,10,11
 480.762695312 1558 480.762695312 1558 501.952148438 1515 c 128,-1,12
 523.141601562 1472 523.141601562 1472 512.0546875 1402 c 0,13,14
 496.533203125 1304 496.533203125 1304 447.640625 1200.5 c 128,-1,15
 398.748046875 1097 398.748046875 1097 302.366210938 962 c 1,0,-1
EndSplineSet
EndChar

StartChar: guillemotleft
Encoding: 171 171 576
Width: 512
VWidth: 2441
GlyphClass: 1
Flags: HW
LayerCount: 2
Fore
SplineSet
407.599609375 149 m 1,0,-1
 283.853515625 561 l 1,1,-1
 292.723632812 617 l 1,2,-1
 529.583007812 976 l 1,3,-1
 586.745117188 876 l 1,4,-1
 394.288085938 589 l 1,5,-1
 494.12109375 247 l 1,6,-1
 407.599609375 149 l 1,0,-1
189.599609375 149 m 1,7,-1
 63.853515625 561 l 1,8,-1
 72.7236328125 617 l 1,9,-1
 313.583007812 976 l 1,10,-1
 366.745117188 876 l 1,11,-1
 178.288085938 589 l 1,12,-1
 278.12109375 247 l 1,13,-1
 189.599609375 149 l 1,7,-1
EndSplineSet
EndChar

StartChar: guilsinglleft
Encoding: 8249 8249 578
Width: 512
VWidth: 2441
GlyphClass: 1
Flags: HW
LayerCount: 2
Fore
SplineSet
300.599609375 149 m 1,0,-1
 173.853515625 561 l 1,1,-1
 182.723632812 617 l 1,2,-1
 424.583007812 976 l 1,3,-1
 480.537109375 881 l 1,4,-1
 283.288085938 589 l 1,5,-1
 389.329101562 242 l 1,6,-1
 300.599609375 149 l 1,0,-1
EndSplineSet
EndChar

StartChar: guilsinglright
Encoding: 8250 8250 579
Width: 512
VWidth: 2441
GlyphClass: 1
Flags: HW
LayerCount: 2
Fore
SplineSet
155.599609375 149 m 1,0,-1
 98.3291015625 242 l 1,1,-1
 314.288085938 589 l 1,2,-1
 206.537109375 881 l 1,3,-1
 295.583007812 976 l 1,4,-1
 423.723632812 617 l 1,5,-1
 414.853515625 561 l 1,6,-1
 155.599609375 149 l 1,0,-1
EndSplineSet
EndChar

StartChar: quotedbl
Encoding: 34 34 580
Width: 512
VWidth: 2441
GlyphClass: 1
Flags: HW
LayerCount: 2
Fore
SplineSet
300.216796875 1624 m 1,0,-1
 422.216796875 1624 l 1,1,2
 398.93359375 1477 398.93359375 1477 382.99609375 1389 c 0,3,4
 368.05859375 1301 368.05859375 1301 355.5546875 1241 c 0,5,6
 342.051757812 1181 342.051757812 1181 328.499023438 1127 c 0,7,8
 314.788085938 1072 314.788085938 1072 298.434570312 994 c 1,9,-1
 224.434570312 994 l 1,10,11
 231.946289062 1073 231.946289062 1073 235.499023438 1127 c 0,12,13
 239.209960938 1182 239.209960938 1182 245.396484375 1240 c 0,14,15
 250.583007812 1298 250.583007812 1298 263.837890625 1388 c 0,16,17
 276.93359375 1477 276.93359375 1477 300.216796875 1624 c 1,0,-1
515.216796875 1624 m 1,18,-1
 636.216796875 1624 l 1,19,20
 612.93359375 1477 612.93359375 1477 597.99609375 1389 c 0,21,22
 583.05859375 1301 583.05859375 1301 569.5546875 1241 c 0,23,24
 556.051757812 1181 556.051757812 1181 543.499023438 1127 c 0,25,26
 529.788085938 1072 529.788085938 1072 512.434570312 994 c 1,27,-1
 439.434570312 994 l 1,28,29
 446.946289062 1073 446.946289062 1073 450.499023438 1127 c 0,30,31
 454.209960938 1182 454.209960938 1182 460.396484375 1240 c 0,32,33
 465.583007812 1298 465.583007812 1298 478.837890625 1388 c 0,34,35
 491.93359375 1477 491.93359375 1477 515.216796875 1624 c 1,18,-1
EndSplineSet
Substitution2: "'ss03' Style Set 3 in Latin lookup 37 subtable" quotedbl.ss03
Substitution2: "'aalt' Access All Alternates in Latin lookup 0 subtable" quotedbl.ss03
EndChar

